<?xml version="1.0" encoding="UTF-8"?>
<svg width="600px" height="128px" viewBox="0 0 600 128" version="1.1" xmlns="http://www.w3.org/2000/svg" xmlns:xlink="http://www.w3.org/1999/xlink">
    <!-- Generator: Sketch 52.1 (67048) - http://www.bohemiancoding.com/sketch -->
    <title>Axure</title>
    <desc>Created with Sketch.</desc>
    <g id="Axure" stroke="none" stroke-width="1" fill="none" fill-rule="evenodd">
        <path d="M101.791233,64.3956164 C101.791233,58.7621918 100.796712,53.610411 98.8093151,48.9336986 C96.8235616,44.2619178 94.1063014,40.2608219 90.6624658,36.930411 C87.2153425,33.6016438 83.1764384,31.0093151 78.5408219,29.1517808 C73.900274,27.2975342 68.9326027,26.3671233 63.6361644,26.3671233 C57.2761644,26.3671233 51.7430137,27.5523288 47.0416438,29.9194521 C42.3369863,32.2915068 38.3983562,35.3309589 35.2175342,39.0427397 C32.0383562,42.7578082 29.6843836,46.8542466 28.1638356,51.3353425 C26.6383562,55.8180822 25.8772603,60.1693151 25.8772603,64.3956164 C25.8772603,69.2630137 26.8027397,73.9364384 28.660274,78.4158904 C30.5145205,82.900274 33.0969863,86.8668493 36.4109589,90.3238356 C39.72,93.7808219 43.6947945,96.5654795 48.3336986,98.6794521 C52.9693151,100.791781 58.0027397,101.847123 63.4372603,101.847123 C68.8684932,101.847123 73.900274,100.857534 78.5408219,98.870137 C83.1764384,96.8876712 87.2153425,94.1983562 90.6624658,90.8038356 C94.1063014,87.4126027 96.8235616,83.4427397 98.8093151,78.8958904 C100.796712,74.3523288 101.791233,69.5178082 101.791233,64.3956164 Z M102.213699,126.26137 L102.213699,111.315616 C102.213699,111.315616 95.88,118.614247 86.9342466,122.707397 C79.5567123,126.080548 71.8865753,127.625753 63.6575342,127.625753 C53.5528767,127.625753 44.529863,125.843836 36.5917808,122.284932 C28.6520548,118.726027 21.9764384,114.001644 16.5632877,108.116712 C11.1517808,102.231781 7.03726027,95.5117808 4.22136986,87.9534247 C1.40712329,80.4 0,72.6246575 0,64.6306849 C0,57.220274 1.29863014,49.7375342 3.89753425,42.1791781 C6.49643836,34.6257534 10.7013699,28.1128767 15.9715068,21.9336986 C21.24,15.7594521 27.8432877,10.7079452 35.7830137,6.78575342 C43.7210959,2.86191781 52.8312329,0.54739726 63.6575342,0.54739726 C72.0279452,0.54739726 79.670137,2.59890411 87.0427397,5.66958904 C95.1764384,9.05753425 102.264658,17.0186301 102.264658,17.0186301 L102.264658,2.12876712 L128.16,2.12876712 L128.16,126.26137 L102.213699,126.26137 Z" id="Fill-1" fill="#4D576A"></path>
        <polyline id="Fill-7" fill="#4D576A" points="267.05589 3.28767123 221.168219 66.7019178 265.486027 127.338082 233.051507 127.338082 204.902466 88.7145205 176.995068 127.338082 144.782466 127.338082 188.876712 66.7019178 142.949589 3.28767123 175.423562 3.28767123 204.902466 44.4641096 234.583562 3.28767123 267.05589 3.28767123"></polyline>
        <path d="M303.920548,2.45753425 L303.920548,68.2947945 C303.920548,75.6789041 304.12274,82.5172603 307.711233,88.2164384 C312.890959,96.4438356 320.927671,102.28274 331.446575,102.28274 C342.729863,102.28274 353.413151,95.500274 357.739726,85.2624658 C359.727123,80.5643836 360.093699,74.3079452 360.093699,67.6323288 L360.093699,2.45753425 L385.597808,2.45753425 L385.597808,126.506301 L359.95726,126.506301 L359.95726,116.345753 C359.95726,116.345753 357.054247,120.936986 351.19726,123.680548 C344.745205,126.703562 339.156164,128.219178 331.354521,128.219178 C324.286027,128.219178 317.804384,127.149041 311.917808,125.016986 C306.026301,122.883288 299.728767,119.169863 295.311781,115.339726 C290.155068,110.92274 285.386301,105.185753 282.591781,97.8213699 C279.792329,90.460274 277.995616,84.6279452 277.995616,68.2947945 L277.995616,2.45753425 L303.920548,2.45753425" id="Fill-3" fill="#4D576A"></path>
        <path d="M413.786301,126.221918 L413.786301,2.6086428 L439.819726,2.65808219 L439.819726,13.7013699 C439.819726,13.7013699 441.72,9.12821918 454.456438,4.90520548 C462.992877,2.07616438 474.789041,2.65808219 476.261918,2.65808219 L476.261918,28.8246575 C474.494795,28.8246575 456.215342,27.739726 446.822466,37.6010959 C442.359452,42.2860274 440.312877,46.7720548 439.890411,59.2980822 L439.890411,126.221918 L413.786301,126.221918" id="Fill-4" fill="#4D576A"></path>
        <path d="M572.155068,53.9326027 C571.85589,49.5156164 560.178082,27.4224658 537.078904,27.4224658 C514.265753,27.4224658 501.876164,49.5156164 501.580274,53.9326027 L572.155068,53.9326027 Z M502.00274,79.2016438 C503.487123,85.0931507 514.370959,101.937534 535.004384,103.26411 C545.733699,103.954521 553.951233,100.46137 560.635068,94.0569863 L589.344658,99.8268493 C582.976438,109.959452 565.561644,125.158356 544.77863,127.053699 C515.88,129.687123 497.256986,116.487123 487.033973,102.782466 C475.423562,87.2169863 474.263014,70.4630137 474.263014,65.8405479 C474.263014,56.7123288 475.408767,48.0328767 478.755616,40.1539726 C482.100822,32.2783562 486.636164,25.4663014 492.363288,19.7243836 C498.087123,13.9808219 504.779178,9.49150685 512.441096,6.25150685 C520.098082,3.01315068 528.313973,1.39232877 537.090411,1.39232877 C545.418082,1.39232877 553.37589,2.97534247 560.960548,6.13972603 C568.545205,9.3090411 575.23726,13.6882192 581.038356,19.2821918 C586.837808,24.8794521 591.445479,31.5057534 594.869589,39.1594521 C598.288767,46.8180822 600,55.1391781 600,64.1178082 C600,66.1824658 599.92274,68.4624658 599.776438,70.9643836 C599.626849,73.4712329 598.632329,78.4668493 598.486027,79.2016438 L502.00274,79.2016438 Z" id="Fill-5" fill="#4D576A"></path>
    </g>
</svg>