<?xml version="1.0" encoding="UTF-8"?>
<svg width="427px" height="226px" viewBox="0 0 427 226" version="1.1" xmlns="http://www.w3.org/2000/svg" xmlns:xlink="http://www.w3.org/1999/xlink">
    <!-- Generator: Sketch 52.1 (67048) - http://www.bohemiancoding.com/sketch -->
    <title>LA-DIA-Design</title>
    <desc>Created with Sketch.</desc>
    <g id="LA-DIA-Design" stroke="none" stroke-width="1" fill="none" fill-rule="evenodd">
        <path d="M269.923543,67.2755919 L280,67.2447151 L276.760925,74.9400158 L257.084667,74.9997774 C253.883407,75.0107336 251.421511,74.6173032 249.691019,73.822474 C247.961523,73.0276449 246.692761,71.9429721 245.890704,70.5674595 C245.083672,69.193939 244.60005,67.5624476 244.434862,65.6729853 C244.267684,63.7845191 244.1831,61.7197562 244.177129,59.4767045 L244,2.02689272 L253.118169,2 L253.295298,59.4478198 C253.299279,61.2416635 253.351024,62.651041 253.450535,63.6759522 C253.550046,64.7008635 253.808774,65.4847363 254.225724,66.0265747 C254.643669,66.5714012 255.332283,66.9200105 256.293557,67.0763866 C257.253835,67.2337588 258.596235,67.3104529 260.324737,67.3044767 L266.276474,67.2855522 L269.923543,67.2755919 Z" id="Fill-1" fill="#DF542F"></path>
        <path d="M319.70345,19.5702994 C319.699466,17.90887 319.534132,16.4065242 319.210436,15.0652505 C318.884748,13.7239768 318.304087,12.5726092 317.46945,11.6181075 C316.634812,10.6596288 315.480462,9.92983274 314.0064,9.42275374 C312.52935,8.91567473 310.640958,8.66611232 308.33425,8.67207796 C305.900056,8.68003214 303.94792,8.9097091 302.477842,9.36011456 C301.004776,9.81350285 299.871342,10.5045223 299.073556,11.4331728 C298.273778,12.3648062 297.749888,13.5181624 297.497903,14.8902585 C297.245918,16.267326 297.124408,17.8492136 297.128392,19.63791 L297.205083,44.572277 L319.780141,44.5046665 L319.70345,19.5702994 Z M329,74.8777045 L319.873764,74.9045498 L319.804045,52.1764735 L297.227991,52.2440841 L297.29771,74.9721604 L288.170478,75 L288.000164,18.6118207 C287.98124,12.6650765 289.59972,8.24951212 292.857596,5.3631389 C296.11348,2.47477713 301.233853,1.02015639 308.216723,1.00027094 C315.19561,0.977402667 320.356818,2.40219524 323.696365,5.26868301 C327.032924,8.13616505 328.713156,12.5417867 328.730087,18.4875366 L329,74.8777045 Z" id="Fill-3" fill="#DF542F"></path>
        <path d="M274.784736,104.956181 C274.77878,103.357203 274.630886,101.966182 274.340062,100.782123 C274.05023,99.6000537 273.519202,98.6239509 272.751941,97.8607799 C271.983687,97.0926338 270.91369,96.5384144 269.540958,96.1891667 C268.165248,95.8429039 266.426256,95.6707676 264.321995,95.6777326 L253.118793,95.7125579 L253.294479,153.294659 L264.496688,153.257844 C266.601942,153.254859 268.339942,153.089687 269.711681,152.763325 C271.082428,152.438952 272.151432,151.909608 272.912738,151.170317 C273.678014,150.434011 274.202094,149.503679 274.486963,148.3833 C274.768855,147.262921 274.908808,145.872895 274.903845,144.207252 L274.784736,104.956181 Z M244.22333,161 L244,88.1594531 L245.245683,88.0579623 L264.585028,88.0002518 C271.286899,87.9793566 276.171364,89.2589368 279.243386,91.8409822 C282.3164,94.4230277 283.859855,98.7204667 283.877722,104.735289 L283.999809,144.658986 C284.009734,147.666894 283.633548,150.178294 282.874228,152.19617 C282.114907,154.214046 280.93672,155.866754 279.348599,157.150315 C277.754522,158.435865 275.729668,159.367192 273.276021,159.952257 C270.820388,160.536326 267.900231,160.863684 264.518525,160.93831 L263.561682,160.941295 L244.22333,161 Z" id="Fill-5" fill="#DF542F"></path>
        <polygon id="Fill-7" fill="#DF542F" points="306 160.972127 297.214765 161 297 88.0298642 305.786194 88"></polygon>
        <path d="M350.70422,105.57174 C350.701232,103.908365 350.534898,102.408047 350.211195,101.065814 C349.884503,99.7235809 349.304824,98.5742317 348.470166,97.6177663 C347.635508,96.661301 346.48113,95.9325182 345.006036,95.4224696 C343.529946,94.9183865 341.642504,94.6658479 339.33574,94.6747961 C336.900491,94.6797673 334.948307,94.9114268 333.478194,95.3628148 C332.005092,95.8151971 330.87163,96.5061985 330.073825,97.4348249 C329.275023,98.3644456 328.750125,99.5177718 328.49913,100.891821 C328.247139,102.269847 328.122637,103.850699 328.12961,105.640343 L328.20431,130.574062 L350.780913,130.503471 L350.70422,105.57174 Z M360,160.876713 L350.874538,160.902564 L350.803822,138.175078 L328.229211,138.24567 L328.298932,160.971167 L319.172474,161 L319.000164,104.613286 C318.98124,98.6676909 320.600755,94.2522412 323.857714,91.3649488 C327.116665,88.4766621 332.234175,87.0240676 339.216219,87.0002057 C346.19627,86.9803208 351.355612,88.4020936 354.697232,91.2704953 C358.033872,94.1369086 359.714145,98.5424158 359.733069,104.487017 L360,160.876713 Z" id="Fill-9" fill="#DF542F"></path>
        <path d="M264.780049,186.382783 C264.777069,185.309477 264.677743,184.374789 264.480084,183.579711 C264.284411,182.787603 263.926836,182.133123 263.40736,181.619243 C262.890863,181.103383 262.165782,180.732082 261.240061,180.49841 C260.312353,180.266718 259.138317,180.150873 257.716958,180.154833 L250.154256,180.177606 L250.274441,218.829514 L257.835156,218.805751 C259.256515,218.80179 260.430552,218.689905 261.355279,218.473065 C262.281,218.254245 263.003102,217.897797 263.517612,217.403719 C264.033116,216.907662 264.386717,216.283876 264.578417,215.530383 C264.769123,214.781841 264.863483,213.847154 264.860503,212.730281 L264.780049,186.382783 Z M244.150976,224 L244,175.107124 L244.842287,175.040785 L257.893759,175.000189 C262.41807,174.985337 265.716696,175.844775 267.789635,177.578501 C269.864561,179.311238 270.906493,182.197482 270.918413,186.233273 L270.99986,213.032272 C271.006813,215.052148 270.754524,216.735378 270.240014,218.090873 C269.726497,219.445378 268.933874,220.552349 267.859163,221.415747 C266.785446,222.279145 265.420704,222.90392 263.762948,223.295024 C262.104199,223.688107 260.134559,223.908908 257.851048,223.958414 L257.204434,223.960395 L244.150976,224 Z" id="Fill-11" fill="#4F433B"></path>
        <path d="M280.955545,184.717314 C280.949645,183.011346 281.031252,181.499192 281.198399,180.184891 C281.362596,178.870589 281.754899,177.753129 282.370391,176.831503 C282.984901,175.910886 283.868811,175.218404 285.019173,174.756077 C286.171501,174.29274 287.70335,174.05552 289.622586,174.050472 L306,174 L303.838893,179.261245 L298.01826,179.278406 L293.286045,179.293548 L291.365826,179.299604 C290.640213,179.301623 290.001124,179.348058 289.44659,179.438908 C288.892057,179.525721 288.432896,179.758903 288.075005,180.13139 C287.712199,180.505895 287.447714,181.054026 287.280567,181.774772 C287.110471,182.498546 287.028864,183.473674 287.032797,184.697125 L287.066227,195.862634 L303.952946,195.808124 L301.72793,201.138012 L287.079992,201.184446 L287.092773,204.926472 L287.116371,213.397763 C287.121287,214.625252 287.145867,215.587257 287.190112,216.285795 C287.23534,216.99039 287.406419,217.513284 287.705316,217.862554 C288.00618,218.212832 288.465342,218.439958 289.083784,218.547969 C289.702226,218.65598 290.58712,218.706452 291.738465,218.704433 L295.703771,218.691311 L298.777302,218.681216 L305.491678,218.660018 L303.267645,223.921263 L298.855959,223.935395 L289.708126,223.96366 L278,224 L289.643233,223.96366 C287.51064,223.971735 285.868671,223.714326 284.716342,223.188403 C283.563031,222.668538 282.719433,221.927602 282.182597,220.966607 C281.645762,220.006622 281.322284,218.891181 281.213147,217.619276 C281.102044,216.351409 281.046,214.950295 281.038135,213.416943 L280.955545,184.717314 Z" id="Fill-13" fill="#4F433B"></path>
        <path d="M324.028763,219.782186 C326.8761,219.773164 328.877314,219.106548 330.033413,217.774318 C331.189513,216.446098 331.764029,214.628691 331.758981,212.325106 C331.751913,210.455574 331.209707,208.84968 330.133373,207.503416 C329.05603,206.159157 327.717175,204.914138 326.11681,203.764351 C324.512406,202.618573 322.767655,201.514897 320.883566,200.455328 C318.998467,199.397764 317.253715,198.215899 315.650321,196.915746 C314.044908,195.615594 312.705044,194.111949 311.629719,192.39679 C310.548337,190.681632 310.007141,188.608606 310.000073,186.1727 C309.995025,184.30417 310.251487,182.618082 310.773499,181.116441 C311.293491,179.615803 312.111343,178.340711 313.225036,177.295176 C314.337719,176.244629 315.768455,175.439678 317.519265,174.86729 C319.270074,174.297909 321.369228,174.006202 323.823795,174.000188 C328.772306,173.984149 332.3547,174.996603 334.570979,177.033542 C336.792306,179.070481 337.905998,182.263221 337.920134,186.609759 L331.679215,186.628806 C331.676186,185.498064 331.56411,184.467566 331.341977,183.531296 C331.117825,182.598033 330.722025,181.806113 330.152557,181.155536 C329.579051,180.503956 328.79048,180.007753 327.782805,179.663919 C326.774121,179.317078 325.480703,179.149673 323.90558,179.151677 C321.013816,179.159697 319.011593,179.798245 317.89992,181.061307 C316.787237,182.327377 316.235944,184.198914 316.242002,186.676922 C316.24705,188.460246 316.789256,189.988952 317.8666,191.268054 C318.943943,192.54916 320.280778,193.72902 321.884172,194.80964 C323.487567,195.893267 325.228279,196.964865 327.117417,198.024434 C329.003525,199.084003 330.747267,200.285917 332.348642,201.629174 C333.952036,202.970426 335.29291,204.53121 336.372273,206.310524 C337.449616,208.091843 337.991822,210.262105 337.9999,212.827324 C338.005958,214.654755 337.737379,216.307762 337.194164,217.786347 C336.650948,219.266937 335.811893,220.541026 334.676997,221.609617 C333.54311,222.680212 332.089151,223.50822 330.316128,224.100656 C328.545124,224.691088 326.432844,224.993822 323.981307,224.999836 C319.030777,225.014873 315.479683,223.994399 313.327015,221.935407 C311.177376,219.878419 310.092965,216.693698 310.080849,212.391267 L316.321768,212.372221 C316.329845,214.849226 316.870032,216.70673 317.948385,217.941724 C319.024719,219.176718 321.051175,219.793213 324.028763,219.782186" id="Fill-15" fill="#4F433B"></path>
        <polygon id="Fill-17" fill="#4F433B" points="351 223.98415 345.144008 224 345 175.016841 350.85694 175"></polygon>
        <path d="M375.877825,224.999813 C370.967028,225.015748 367.443999,224.010872 365.307737,221.986181 C363.172477,219.961489 362.098334,216.812412 362.083304,212.535962 L362.000138,185.582572 C361.99613,183.897487 362.079296,182.405609 362.249636,181.111918 C362.417972,179.815239 362.816767,178.711768 363.445021,177.803495 C364.072272,176.892235 364.971065,176.210034 366.144406,175.754902 C367.315743,175.296782 368.880866,175.064734 370.835766,175.058759 L379.441936,175.031869 L390,175 L387.60422,180.255433 L381.217478,180.275351 C379.56418,180.281327 377.738537,180.264396 375.740551,180.227547 L374.566208,180.229539 C373.002088,180.236511 371.784659,180.271368 370.916928,180.33909 C370.048195,180.407808 369.407917,180.603007 368.994092,180.929666 C368.58227,181.254334 368.345798,181.773204 368.284676,182.486278 C368.218544,183.196364 368.190488,184.226138 368.193494,185.563649 L368.254616,205.066614 L368.277662,212.518035 C368.280668,213.72807 368.370848,214.798676 368.548202,215.724875 C368.724554,216.65207 369.084272,217.417928 369.630361,218.022447 C370.175449,218.624974 370.946988,219.087078 371.948987,219.407762 C372.948982,219.72745 374.275629,219.8858 375.927925,219.879825 C377.492046,219.874845 378.772601,219.70056 379.771594,219.350995 C380.770587,219.003421 381.54914,218.502477 382.115269,217.853142 C382.676389,217.205798 383.067168,216.426994 383.280594,215.517726 C383.496024,214.609453 383.601234,213.595613 383.596224,212.470232 L383.57418,204.826599 L376.533133,204.847513 L378.799654,199.656815 L389.750502,199.62395 L389.790582,212.451309 C389.802606,216.729752 388.714435,219.8858 386.526069,221.922442 C384.337703,223.958088 380.789625,224.983879 375.877825,224.999813" id="Fill-19" fill="#4F433B"></path>
        <path d="M403.429381,223.982074 L397.139349,224 L397,178.518486 C398.406713,177.391158 399.925312,176.523753 401.556815,175.911291 C403.185266,175.304805 404.763877,174.856662 406.28451,174.56985 C407.805144,174.285031 409.194566,174.119716 410.450741,174.07291 C411.708951,174.0271 412.68948,174.000211 413.396396,174.000211 C416.216943,173.989257 418.414996,174.404536 419.983435,175.24306 C421.550857,176.078598 422.692095,177.145178 423.402063,178.439812 C424.109997,179.734447 424.536181,181.180455 424.674513,182.775843 C424.810811,184.375215 424.882011,185.928776 424.887097,187.440511 L425,223.918338 L418.713019,223.938256 L418.595031,186.099071 C418.592996,185.105189 418.535019,184.187991 418.422116,183.346478 C418.308195,182.50397 418.040686,181.783953 417.619587,181.178463 C417.199506,180.574964 416.591253,180.101924 415.795844,179.76034 C415.000436,179.414772 413.91921,179.245474 412.552165,179.249457 C412.155478,179.251449 411.592996,179.274354 410.865737,179.319168 C410.13746,179.364978 409.342052,179.453611 408.484598,179.586062 C407.623075,179.718513 406.742226,179.9147 405.839,180.177611 C404.93374,180.436537 404.086457,180.788081 403.294101,181.221285 L403.429381,223.982074 Z" id="Fill-21" fill="#4F433B"></path>
        <polyline id="Stroke-23" stroke="#DF542F" points="219 91 110.691904 154 2 91.664905"></polyline>
        <polyline id="Stroke-25" stroke="#DF542F" points="219 105 110.689904 168 2 105.660927"></polyline>
        <polyline id="Stroke-27" stroke="#DF542F" points="219 119 110.688407 182 2 119.665937"></polyline>
        <polyline id="Stroke-29" stroke="#DF542F" points="219 77 110.691406 140 2 77.6598953"></polyline>
        <polyline id="Stroke-31" stroke="#DF542F" points="219 133 110.690905 196 2 133.658"></polyline>
        <polyline id="Stroke-33" stroke="#DF542F" points="219 147 110.6939 210 2 147.666884"></polyline>
        <polyline id="Stroke-35" stroke="#DF542F" points="219 160 110.692402 223 2 160.661031"></polyline>
        <polyline id="Stroke-37" stroke="#DF542F" points="2 133 110.310595 70 219 132.345042"></polyline>
        <polyline id="Stroke-39" stroke="#DF542F" points="2 119 110.305596 56 219 118.343063"></polyline>
        <polyline id="Stroke-41" stroke="#DF542F" points="2 105 110.310091 42 219 104.331085"></polyline>
        <polyline id="Stroke-43" stroke="#DF542F" points="2 147 110.314094 84 219 146.341063"></polyline>
        <polyline id="Stroke-45" stroke="#DF542F" points="2 91 110.308596 28 219 90.3340846"></polyline>
        <polyline id="Stroke-47" stroke="#DF542F" points="1 78 109.312596 15 218 77.3320848"></polyline>
        <polyline id="Stroke-49" stroke="#DF542F" points="1 64 109.312094 1 218 63.3360843"></polyline>
        <polyline id="Stroke-51" stroke="#DF542F" points="218 64 109.691904 127 1 64.6629369"></polyline>
        <polyline id="Stroke-53" stroke="#DF542F" points="2 161 110.310593 98 219 160.340021"></polyline>
        <polygon id="Fill-55" fill="#4F433B" points="38 112.014464 110.631929 70 183 111.338147 110.586782 154"></polygon>
        <polyline id="Stroke-57" stroke="#DF542F" points="159 98 109.967446 126 61 98.4308903"></polyline>
        <polyline id="Stroke-59" stroke="#DF542F" points="62 126 110.532866 98 159 125.573047"></polyline>
        <polygon id="Fill-61" fill="#DF542F" points="86 112.419785 110.474565 98 135 111.978353 110.433669 127"></polygon>
        <polygon id="Stroke-63" stroke="#DF542F" points="86 112.419785 110.474565 98 135 111.978353 110.433669 127"></polygon>
    </g>
</svg>