<?xml version="1.0" encoding="UTF-8"?>
<svg width="336px" height="147px" viewBox="0 0 336 147" version="1.1" xmlns="http://www.w3.org/2000/svg" xmlns:xlink="http://www.w3.org/1999/xlink">
    <!-- Generator: Sketch 52.1 (67048) - http://www.bohemiancoding.com/sketch -->
    <title>Loop11</title>
    <desc>Created with Sketch.</desc>
    <g id="Loop11" stroke="none" stroke-width="1" fill="none" fill-rule="evenodd">
        <path d="M2.84217094e-14,8 C0.427635049,2.66666667 3.26096838,3.32093875e-16 8.5,0 C13.7390316,0 16.572365,2.66666667 17,8 C17,34 17,54.6666667 17,70 C17,99 40,98 59,98 C54,94 46,87 46,66 C46,45 60,20.5 89,20.5 C108.333333,20.5 121.333333,27 128,40 C136,27 148.333333,20.5 165,20.5 C181.666667,20.5 194,27 202,40 C211.325607,27 223.834997,20.5 239.528172,20.5 C263.067934,20.5 284,36 284,68 C284,100 257,113 239.528172,113 C222.056344,113 220,110 216,107 C216,103.666667 216,98.3333333 216,91 C222,95.6666667 229.333333,98 238,98 C251,98 268.420786,88 268.420786,67 C268.420786,46 254.056344,36 239.528172,36 C225,36 211,46 211,70 C211,86 211,108.666667 211,138 C210.666667,143.333333 207.833333,146 202.5,146 C197.166667,146 194.333333,143.333333 194,138 L194,102 C186,109.333333 176,113 164,113 C146,113 135,103 128,93 C121,103 110,113 92,113 C74,113 59,113 42,113 C22,113 2,101 2.84217094e-14,75 C2.84217094e-14,57.6666667 2.84217094e-14,35.3333333 2.84217094e-14,8 Z M91,97 C107.016258,97 120,83.3446849 120,66.5 C120,49.6553151 107.016258,36 91,36 C74.9837423,36 62,49.6553151 62,66.5 C62,83.3446849 74.9837423,97 91,97 Z M165,97 C181.016258,97 194,83.3446849 194,66.5 C194,49.6553151 181.016258,36 165,36 C148.983742,36 136,49.6553151 136,66.5 C136,83.3446849 148.983742,97 165,97 Z" id="Path-12" fill="#00AF74" fill-rule="nonzero"></path>
        <path d="M267.8,17 L267.8,9.006 L265.112,9.006 L265.112,7.564 L272.238,7.564 L272.238,9.006 L269.522,9.006 L269.522,17 L267.8,17 Z M281.378571,17 L281.196571,13.15 C281.140571,11.932 281.070571,10.462 281.084571,9.174 L281.042571,9.174 C280.734571,10.336 280.342571,11.61 279.922571,12.8 L278.550571,16.888 L277.220571,16.888 L275.960571,12.856 C275.596571,11.652 275.260571,10.364 275.008571,9.174 L274.980571,9.174 C274.938571,10.42 274.882571,11.918 274.812571,13.206 L274.602571,17 L272.992571,17 L273.622571,7.564 L275.890571,7.564 L277.122571,11.358 C277.458571,12.464 277.752571,13.584 277.990571,14.634 L278.032571,14.634 C278.284571,13.612 278.606571,12.45 278.970571,11.344 L280.272571,7.564 L282.512571,7.564 L283.058571,17 L281.378571,17 Z" id="TM" fill="#00AF74" opacity="0.8"></path>
        <path d="M318.665399,21 L335.268695,21 L335.268695,67 L326.967047,67 L326.967047,29 L316.008872,29 L318.665399,21 Z M291.665399,21 L308.268695,21 L308.268695,67 L299.967047,67 L299.967047,29 L289.008872,29 L291.665399,21 Z" id="Path-Copy-2" fill="#00AF74" fill-rule="nonzero" opacity="0.603437"></path>
    </g>
</svg>