<?xml version="1.0" encoding="UTF-8"?>
<svg width="730px" height="235px" viewBox="0 0 730 235" version="1.1" xmlns="http://www.w3.org/2000/svg" xmlns:xlink="http://www.w3.org/1999/xlink">
    <!-- Generator: Sketch 52.1 (67048) - http://www.bohemiancoding.com/sketch -->
    <title>Optimal-Workshop</title>
    <desc>Created with Sketch.</desc>
    <g id="Optimal-Workshop" stroke="none" stroke-width="1" fill="none" fill-rule="evenodd">
        <rect id="Rectangle" fill="#94CF00" fill-rule="nonzero" x="0" y="0" width="177" height="235" rx="16"></rect>
        <g id="Group" transform="translate(32.000000, 33.000000)" fill-rule="nonzero" stroke="#FFFFFF" stroke-width="7">
            <polygon id="Path-2" stroke-linejoin="round" points="1.42108547e-14 28 1.42108547e-14 55 56 83 112 55 112 28 56 4.03288514e-14"></polygon>
            <polyline id="Path-3" stroke-linejoin="round" points="1.42108547e-14 28 56 55 112 28"></polyline>
            <polyline id="Path-3-Copy" stroke-linejoin="round" transform="translate(56.000000, 41.500000) scale(1, -1) translate(-56.000000, -41.500000) " points="1.42108547e-14 28 56 55 112 28"></polyline>
            <path d="M56,1 L56,29 L56,1 Z M56,54 L56,82 L56,54 Z" id="Path-10"></path>
        </g>
        <path d="M33,134 L55,134 L77,200 L55,200 L33,134 Z M78,134 L100,134 L122,200 L100,200 L78,134 Z M99,134 L77,134 L55,200 L77,200 L99,134 Z M144,134 L122,134 L100,200 L122,200 L144,134 Z" id="Path-5-Copy-4" stroke="#FFFFFF" stroke-width="7" stroke-linejoin="round" fill-rule="nonzero"></path>
        <path d="M238.210393,106.394958 C220.421084,106.394958 206,91.9796556 206,74.197479 C206,56.4153024 220.421084,42 238.210393,42 C255.999702,42 270.420786,56.4153024 270.420786,74.197479 C270.420786,91.9796556 255.999702,106.394958 238.210393,106.394958 Z M238.210393,93.2531298 C248.738759,93.2531298 257.273687,84.7216243 257.273687,74.197479 C257.273687,63.6733336 248.738759,55.1418282 238.210393,55.1418282 C227.682026,55.1418282 219.147099,63.6733336 219.147099,74.197479 C219.147099,84.7216243 227.682026,93.2531298 238.210393,93.2531298 Z M279.054499,43.3277311 C291.862503,43.3277311 300.274839,43.3277311 304.291508,43.3277311 C317.574144,43.3277311 324.879594,53.2857143 324.879594,63.907563 C324.879594,74.5294118 315.581749,84.487395 304.291508,84.487395 C301.634981,84.487395 297.207436,84.487395 291.008872,84.487395 L291.008872,105.067227 L279.054499,105.067227 L279.054499,43.3277311 Z M291.008872,55.2773109 L291.008872,72.5378151 L301.634981,72.5378151 C308.276299,72.5378151 311.596958,69.6610644 311.596958,63.907563 C311.596958,58.1540616 308.276299,55.2773109 301.634981,55.2773109 L291.008872,55.2773109 Z M331.520913,43.3277311 L382.659062,43.3277311 L382.659062,54.6134454 L363.39924,54.6134454 L363.39924,105.067227 L350.780735,105.067227 L350.780735,54.6134454 L331.520913,54.6134454 L331.520913,43.3277311 Z M405.239544,43.3277311 L405.239544,105.067227 L392.621039,105.067227 L392.621039,43.3277311 L405.239544,43.3277311 Z M431.804816,43.3277311 L449.736375,73.8655462 L467.667934,43.3277311 L479.622307,43.3277311 L479.622307,105.067227 L467.667934,105.067227 L467.667934,65.2352941 L452.392902,89.7983193 L445.751584,89.7983193 L431.804816,65.2352941 L431.804816,105.067227 L419.186312,105.067227 L419.186312,43.3277311 L431.804816,43.3277311 Z M524.78327,43.3277311 L550.020279,105.067227 L536.073511,105.067227 L531.424588,93.1176471 L506.187579,93.1176471 L501.538657,105.067227 L487.591888,105.067227 L512.828897,43.3277311 L524.78327,43.3277311 Z M518.806084,59.2605042 L510.17237,81.8319328 L527.439797,81.8319328 L518.806084,59.2605042 Z M557.325729,43.3277311 L569.944233,43.3277311 L569.944233,93.1176471 L600.494297,93.1176471 L600.494297,105.067227 L557.325729,105.067227 L557.325729,43.3277311 Z M220.6109,136.932773 L232.565272,178.756303 L244.519645,143.571429 L256.474018,143.571429 L268.42839,178.756303 L280.382763,136.932773 L293.665399,136.932771 L275.069708,198.672269 L263.115336,198.672269 L250.496831,158.840336 L237.878327,198.672269 L225.923954,198.672269 L207.328264,136.932771 L220.6109,136.932773 Z M329.528517,200 C311.555813,200 296.986058,185.436086 296.986058,167.470588 C296.986058,149.50509 311.555813,134.941176 329.528517,134.941176 C347.501221,134.941176 362.070976,149.50509 362.070976,167.470588 C362.070976,185.436086 347.501221,200 329.528517,200 Z M329.528517,186.722689 C340.165423,186.722689 348.78834,178.10323 348.78834,167.470588 C348.78834,156.837947 340.165423,148.218487 329.528517,148.218487 C318.891611,148.218487 310.268695,156.837947 310.268695,167.470588 C310.268695,178.10323 318.891611,186.722689 329.528517,186.722689 Z M372.032953,136.932773 C384.840956,136.932773 393.253293,136.932773 397.269962,136.932773 C410.552598,136.932773 417.858048,146.890756 417.858048,157.512605 C417.858048,165.024551 413.873257,172.117647 406.491023,175.100975 C415.397303,190.372594 420.071821,198.229692 420.514575,198.672269 L406.491023,198.672269 L393.949303,177.428571 L383.987326,177.428571 L383.987326,198.672269 L372.032953,198.672269 L372.032953,136.932773 Z M383.987326,148.882353 L383.987326,166.142857 L394.613435,166.142857 C401.254753,166.142857 404.575412,163.266106 404.575412,157.512605 C404.575412,151.759104 401.254753,148.882353 394.613435,148.882353 L383.987326,148.882353 Z M432.468948,136.932773 L444.423321,136.932773 L444.423321,162.159664 L469.66033,136.932773 L485.599493,136.932773 L460.044814,162.823529 L486.263625,198.672269 L470.969852,198.672269 L451.064639,171.453782 L444.423321,178.092437 L444.423321,198.672269 L432.468948,198.672269 L432.468948,136.932773 Z M504.859316,152.865546 C505,157 508.844106,158.176471 518.806084,161.495798 C528.768061,164.815126 539,169.386555 539,182 C539,194.613445 525.314322,200 514.157161,200 C503,200 493.415716,191.588235 490,181 C498,179 502,178 502,178 C504,184.666667 508.333333,188 515,188 C525,188 526,184.983193 526,181 C526,177.016807 521,173 511,171 C501,169 492.240811,162.058824 492.240811,153.529412 C492.240811,145 499,135.605042 516.157161,135.605042 C533.314322,135.605042 539,150.134454 539,153 C527,156 539,153 527,156 C524.343473,150.02521 519.680273,146.226891 514.157161,146.226891 C508.844106,146.226891 504.859316,149 504.859316,152.865546 Z M641.670469,200 C623.697765,200 609.12801,185.436086 609.12801,167.470588 C609.12801,149.50509 623.697765,134.941176 641.670469,134.941176 C659.643173,134.941176 674.212928,149.50509 674.212928,167.470588 C674.212928,185.436086 659.643173,200 641.670469,200 Z M641.670469,186.722689 C652.307375,186.722689 660.930292,178.10323 660.930292,167.470588 C660.930292,156.837947 652.307375,148.218487 641.670469,148.218487 C631.033563,148.218487 622.410646,156.837947 622.410646,167.470588 C622.410646,178.10323 631.033563,186.722689 641.670469,186.722689 Z M550.684411,136.932773 L562.638783,136.932773 L562.638783,161.495798 L589.204056,161.495798 L589.204056,136.932773 L601.158428,136.932773 L601.158428,198.672269 L589.204056,198.672269 L589.204056,172.781513 L562.638783,172.781513 L562.638783,198.672269 L550.684411,198.672269 L550.684411,136.932773 Z M684.174905,136.932773 C696.982908,136.932773 705.395245,136.932773 709.411914,136.932773 C722.69455,136.932773 730,146.890756 730,157.512605 C730,168.134454 720.702155,178.092437 709.411914,178.092437 C706.755387,178.092437 702.327841,178.092437 696.129278,178.092437 L696.129278,198.672269 L684.174905,198.672269 L684.174905,136.932773 Z M696.129278,148.882353 L696.129278,166.142857 L706.755387,166.142857 C713.396705,166.142857 716.717364,163.266106 716.717364,157.512605 C716.717364,151.759104 713.396705,148.882353 706.755387,148.882353 L696.129278,148.882353 Z" id="Combined-Shape" fill="#191934" fill-rule="nonzero"></path>
    </g>
</svg>