<?xml version="1.0" encoding="UTF-8"?>
<svg width="586px" height="156px" viewBox="0 0 586 156" version="1.1" xmlns="http://www.w3.org/2000/svg" xmlns:xlink="http://www.w3.org/1999/xlink">
    <!-- Generator: Sketch 52.1 (67048) - http://www.bohemiancoding.com/sketch -->
    <title>Rosenfeld</title>
    <desc>Created with Sketch.</desc>
    <g id="Rosenfeld" stroke="none" stroke-width="1" fill="none" fill-rule="evenodd">
        <path d="M156,78.0005248 C156,121.078292 121.078292,156 78.0005248,156 C34.9217075,156 1.42108547e-14,121.078292 1.42108547e-14,78.0005248 C1.42108547e-14,34.9227571 34.9217075,0 78.0005248,0 C121.078292,0 156,34.9227571 156,78.0005248 Z M133.042123,114.627648 L133.042123,55.8947785 C133.042123,55.8947785 133.529115,41.6166879 118.439721,41.6166879 L51.2695126,41.6166879 C51.2695126,41.6166879 15.2510243,40.3183934 18.0092441,114.627648 L30.015057,114.627648 C30.015057,114.627648 27.2568372,84.125599 55.1633465,84.125599 L55.1633465,114.627648 L70.0911091,114.627648 L70.0911091,97.916698 C70.0911091,97.916698 70.4154203,89.8036694 79.014391,89.8036694 C87.6133616,89.8036694 86.9647391,98.0783288 86.9647391,98.0783288 L86.9647391,114.627648 L101.728772,114.627648 L101.728772,97.7540176 C101.728772,97.7540176 101.566091,89.4793582 110.003431,89.4793582 C118.439721,89.4793582 117.628419,97.4297063 117.628419,97.4297063 L117.628419,114.627648 L133.042123,114.627648 Z M55.8130185,69.6853527 C55.8130185,69.6853527 46.6861237,70.577471 46.6861237,64.6559047 C46.6861237,59.301096 55.8130185,59.4637764 55.8130185,59.4637764 L55.8130185,69.6853527 Z" id="Fill-1074" fill="#1A1919"></path>
        <path d="M177,111.918033 L177,46.5081967 C181.511788,45.7213115 188.279469,45.1311475 195.243315,45.1311475 C204.757302,45.1311475 211.230737,46.704918 215.644442,50.442623 C219.273489,53.4918033 221.333218,58.1147541 221.333218,63.7213115 C221.333218,72.2786885 215.54636,78.0819672 209.367172,80.3442623 L209.367172,80.6393443 C214.075125,82.4098361 216.919513,87.0327869 218.586912,93.4262295 C220.646642,101.688525 222.412124,109.360656 223.785277,111.918033 L211.328819,111.918033 C210.347996,109.95082 208.778678,104.540984 206.915114,96.2786885 C205.051549,87.6229508 201.912915,84.8688525 195.047151,84.6721311 L188.966046,84.6721311 L188.966046,111.918033 L177,111.918033 Z M188.966046,54.8688525 L188.966046,75.8196721 L196.126056,75.8196721 C204.266891,75.8196721 209.367172,71.4918033 209.367172,64.9016393 C209.367172,57.6229508 204.266891,54.2786885 196.420303,54.2786885 C192.595092,54.2786885 190.143034,54.5737705 188.966046,54.8688525 Z M253.788464,62.9344262 C268.010404,62.9344262 277.524391,72.9672131 277.524391,87.5245902 C277.524391,105.131148 265.166016,113 253.003806,113 C239.468443,113 229.071715,103.655738 229.071715,88.3114754 C229.071715,72.5737705 239.37036,62.9344262 253.788464,62.9344262 Z M253.494217,71.7868852 C244.961054,71.7868852 241.528172,80.0491803 241.528172,88.0163934 C241.528172,97.2622951 246.039959,104.245902 253.396135,104.245902 C260.261899,104.245902 265.067934,97.4590164 265.067934,87.8196721 C265.067934,80.3442623 261.733134,71.7868852 253.494217,71.7868852 Z M283.987817,109.557377 L286.341793,100.803279 C289.088099,102.47541 294.286463,104.245902 298.602086,104.245902 C303.898532,104.245902 306.252508,102.081967 306.252508,98.9344262 C306.252508,95.6885246 304.290861,94.0163934 298.405921,91.9508197 C289.088099,88.704918 285.164805,83.5901639 285.262887,77.9836066 C285.262887,69.5245902 292.226734,62.9344262 303.310038,62.9344262 C308.606484,62.9344262 313.216354,64.3114754 315.96266,65.7868852 L313.608684,74.3442623 C311.548955,73.1639344 307.723743,71.5901639 303.506203,71.5901639 C299.19058,71.5901639 296.836604,73.6557377 296.836604,76.6065574 C296.836604,79.6557377 299.092497,81.1311475 305.173603,83.295082 C313.804849,86.442623 317.826224,90.8688525 317.924307,97.9508197 C317.924307,106.606557 311.156625,113 298.504003,113 C292.717145,113 287.518781,111.52459 283.987817,109.557377 Z M367.83821,91.3606557 L335.863367,91.3606557 C336.157614,100.016393 342.925295,103.754098 350.575718,103.754098 C356.166411,103.754098 360.187787,102.967213 363.816834,101.590164 L365.582316,109.95082 C361.462858,111.622951 355.774082,113 348.908318,113 C333.411308,113 324.289651,103.360656 324.289651,88.704918 C324.289651,75.4262295 332.332403,62.9344262 347.633248,62.9344262 C363.22834,62.9344262 368.230539,75.7213115 368.230539,86.2459016 C368.230539,88.5081967 368.034375,90.2786885 367.83821,91.3606557 Z M335.863367,82.9016393 L356.852988,82.9016393 C356.95107,78.4754098 354.989423,71.1967213 346.946671,71.1967213 C339.492413,71.1967213 336.353778,77.9836066 335.863367,82.9016393 Z M377.440271,111.918033 L377.440271,78.2786885 C377.440271,72.7704918 377.342189,68.147541 377.047941,64.0163934 L387.640834,64.0163934 L388.229328,71.1967213 L388.523575,71.1967213 C390.583305,67.4590164 395.781669,62.9344262 403.726338,62.9344262 C412.063337,62.9344262 420.694583,68.3442623 420.694583,83.4918033 L420.694583,111.918033 L408.630455,111.918033 L408.630455,84.8688525 C408.630455,77.9836066 406.080314,72.7704918 399.508798,72.7704918 C394.702763,72.7704918 391.367963,76.2131148 390.092893,79.852459 C389.700563,80.9344262 389.602481,82.4098361 389.602481,83.7868852 L389.602481,111.918033 L377.440271,111.918033 Z M446.48023,111.918033 L434.416102,111.918033 L434.416102,73.0655738 L427.942668,73.0655738 L427.942668,64.0163934 L434.416102,64.0163934 L434.416102,61.9508197 C434.416102,55.7540984 436.083502,49.557377 440.202961,45.6229508 C443.733925,42.2786885 448.539959,41 452.659418,41 C455.896135,41 458.446276,41.4918033 460.407923,42.1803279 L459.525182,51.5245902 C458.250111,51.0327869 456.582711,50.6393443 454.4249,50.6393443 C448.441877,50.6393443 446.382148,55.6557377 446.382148,61.557377 L446.382148,64.0163934 L456.876958,64.0163934 L456.876958,73.0655738 L446.48023,73.0655738 L446.48023,111.918033 Z M503.259897,91.3606557 L471.285054,91.3606557 C471.579301,100.016393 478.346983,103.754098 485.997405,103.754098 C491.588099,103.754098 495.609475,102.967213 499.238521,101.590164 L501.004003,109.95082 C496.884545,111.622951 491.195769,113 484.330005,113 C468.832996,113 459.711338,103.360656 459.711338,88.704918 C459.711338,75.4262295 467.75409,62.9344262 483.054935,62.9344262 C498.650027,62.9344262 503.652227,75.7213115 503.652227,86.2459016 C503.652227,88.5081967 503.456062,90.2786885 503.259897,91.3606557 Z M471.285054,82.9016393 L492.274675,82.9016393 C492.372757,78.4754098 490.411111,71.1967213 482.368359,71.1967213 C474.914101,71.1967213 471.775466,77.9836066 471.285054,82.9016393 Z M512.861958,111.918033 L512.861958,42.0819672 L525.024168,42.0819672 L525.024168,111.918033 L512.861958,111.918033 Z M569.543543,42.0819672 L581.607671,42.0819672 L581.607671,98.442623 C581.607671,103.360656 581.803835,108.672131 582,111.918033 L571.210943,111.918033 L570.720531,104.344262 L570.524366,104.344262 C567.679978,109.655738 561.89312,113 554.929274,113 C543.551722,113 534.528147,103.262295 534.528147,88.5081967 C534.430065,72.4754098 544.434464,62.9344262 555.910097,62.9344262 C562.481614,62.9344262 567.189567,65.6885246 569.347378,69.2295082 L569.543543,69.2295082 L569.543543,42.0819672 Z M569.543543,91.1639344 L569.543543,83.9836066 C569.543543,83 569.44546,81.8196721 569.249296,80.8360656 C568.17039,76.1147541 564.345179,72.2786885 558.852568,72.2786885 C551.104063,72.2786885 546.78844,79.1639344 546.78844,88.1147541 C546.78844,96.8688525 551.104063,103.262295 558.754485,103.262295 C563.658602,103.262295 567.974225,99.9180328 569.151213,94.704918 C569.44546,93.6229508 569.543543,92.442623 569.543543,91.1639344 Z" fill="#1A1919"></path>
    </g>
</svg>