<?xml version="1.0" encoding="UTF-8"?>
<svg width="730px" height="135px" viewBox="0 0 730 135" version="1.1" xmlns="http://www.w3.org/2000/svg" xmlns:xlink="http://www.w3.org/1999/xlink">
    <!-- Generator: Sketch 52.1 (67048) - http://www.bohemiancoding.com/sketch -->
    <title>TUG</title>
    <desc>Created with Sketch.</desc>
    <g id="TUG" stroke="none" stroke-width="1" fill="none" fill-rule="evenodd">
        <polygon id="Fill-1092" fill="#0A0B09" points="0.217714789 2.64342254 88.2701092 2.64342254 88.2701092 6.12505986 45.8902676 6.12505986 45.8902676 127.225377 42.443331 127.225377 42.443331 6.12505986 0.217714789 6.12505986"></polygon>
        <path d="M253.008361,66.7465475 L302.377181,66.7465475 L302.377181,122.736776 L298.918678,122.736776 L299.026636,93.3144349 L298.918678,93.3144349 C295.685086,103.443185 289.879787,111.343379 281.519488,117.003449 C273.156618,122.653238 263.098555,125.498695 251.3016,125.498695 C242.158607,125.498695 234.092621,123.85234 227.080509,120.571195 C220.067111,117.300333 214.203977,112.858643 209.514241,107.229417 C204.82322,101.631037 201.281178,95.0571813 198.912533,87.4731496 C196.509188,79.9161074 195.322938,71.8514067 195.322938,63.2764771 C195.322938,54.6180088 196.614576,46.4929032 199.209417,38.8638891 C201.802974,31.2580088 205.474822,24.6520229 210.213396,19.0240827 C214.962252,13.3974278 220.766266,8.98015669 227.612586,5.75813204 C234.471759,2.54638908 242.263995,0.914170775 251.007287,0.914170775 C257.615843,0.914170775 263.715456,1.86008627 269.294558,3.7570581 C274.885227,5.6501743 279.789593,8.34012148 284.053924,11.8243292 C288.31697,15.3406673 291.801178,19.5330264 294.501407,24.4361074 C297.188783,29.3404736 299.061336,34.8373222 300.05609,40.949787 L296.763379,40.949787 C295.742921,35.4053856 293.956477,30.3699278 291.373202,25.8472694 C288.778361,21.3567412 285.510069,17.4843996 281.577322,14.262375 C277.635579,11.0416356 273.10778,8.57788556 267.979787,6.8479912 C262.851794,5.11938204 257.189153,4.24286796 251.007287,4.24286796 C242.702252,4.24286796 235.335421,5.81596655 228.857956,8.89661796 C222.388202,11.9875511 216.940192,16.1811954 212.452234,21.4865475 C207.973273,26.7931849 204.573889,33.0136074 202.252798,40.1311074 C199.941988,47.2871637 198.781442,54.8904736 198.781442,62.9564595 C198.781442,71.0224454 199.884153,78.6514595 202.099857,85.7920933 C204.314276,92.9327271 207.65454,99.1904208 212.083379,104.495773 C216.501935,109.824259 222.034769,114.053889 228.643326,117.130685 C235.230033,120.251178 242.915597,121.789576 251.682023,121.789576 C258.20704,121.789576 264.367058,120.652164 270.135086,118.37991 C275.903114,116.105086 280.92829,112.9666 285.190051,108.914329 C289.454382,104.850491 292.829347,100.030949 295.259681,94.428713 C297.674593,88.8496109 298.918678,82.7615651 298.918678,76.2108433 L298.918678,70.0765299 L253.008361,70.0765299 L253.008361,66.7465475 Z" id="Fill-1094" fill="#0A0B09"></path>
        <path d="M207.406623,2.64342254 L157.964546,2.64342254 L140.850673,81.9319613 C138.777627,91.5838979 133.246077,95.3161514 128.05768,95.3161514 C122.870567,95.3161514 119.045778,91.5838979 121.140673,81.9319613 L138.255831,2.64342254 L88.3883486,2.64342254 L70.5264824,83.956169 C64.1068521,112.920975 82.7873979,127.225377 120.962028,127.225377 C158.653419,127.225377 183.386025,112.920975 189.779951,83.956169 L207.406623,2.64342254 Z" id="Fill-1096" fill="#0A0B09"></path>
        <polygon id="Fill-1098" fill="#0A0B09" points="317.510544 4.36303521 339.861653 4.36303521 339.861653 6.83578169 330.13646 6.83578169 330.13646 35.0731585 327.235738 35.0731585 327.235738 6.83578169 317.510544 6.83578169"></polygon>
        <path d="M343.608301,35.0738011 L343.608301,4.36367782 L346.167157,4.36367782 L346.167157,16.0501039 C348.214498,13.8755264 350.219428,12.3821109 353.291083,12.3821109 C355.977174,12.3821109 358.451206,13.2354912 360.029445,15.5385898 C361.096171,17.1168292 361.139868,18.7798926 361.139868,20.6138891 L361.139868,35.0738011 L358.579727,35.0738011 L358.579727,20.6575863 C358.579727,16.6901391 356.959076,14.6852095 352.864393,14.6852095 C349.707914,14.6852095 347.532051,16.7325511 346.721083,18.9932377 C346.209569,20.400544 346.167157,21.6369173 346.167157,23.1727447 L346.167157,35.0738011 L343.608301,35.0738011 Z" id="Fill-1100" fill="#0A0B09"></path>
        <path d="M383.310533,22.4906831 C383.310533,18.1826549 380.922611,14.6843099 376.316414,14.6843099 C371.79504,14.6843099 369.407118,18.3111761 368.894319,22.4906831 L383.310533,22.4906831 Z M368.894319,24.6241338 C368.851907,29.4012641 371.412048,33.3674261 376.316414,33.3674261 C379.643826,33.3674261 382.243808,31.5334296 383.01365,28.2921268 L385.870674,28.2921268 C384.590604,32.4716338 381.945639,35.6718099 376.316414,35.6718099 C369.2349,35.6718099 366.16453,30.6376373 366.16453,24.1126197 C366.16453,17.6711408 370.002171,12.3824965 376.316414,12.3824965 C382.373614,12.3824965 386.082734,16.6892394 386.040322,24.6241338 L368.894319,24.6241338 Z" id="Fill-1102" fill="#0A0B09"></path>
        <path d="M355.086651,71.9914947 C352.804116,82.7345757 345.34475,87.3382025 335.057919,87.3382025 C331.305102,87.3382025 325.927778,86.4282729 323.147866,82.3927095 C321.462954,79.8929736 321.310014,76.5964067 322.067004,72.5030088 L327.815754,45.445456 L336.512778,45.445456 L330.883553,71.9349454 C329.676739,77.6181496 332.442514,80.120456 336.420243,80.120456 C342.27438,80.120456 345.266352,77.2762835 346.317655,72.3320757 L352.031704,45.445456 L360.727444,45.445456 L355.086651,71.9914947 Z" id="Fill-1104" fill="#0A0B09"></path>
        <path d="M385.998296,86.258368 L378.040268,86.258368 L381.942169,67.8978398 C382.412556,65.6808504 383.096289,61.9293187 378.037697,61.9293187 C374.513648,61.9293187 371.276201,64.3172412 370.29944,68.9221532 L366.614739,86.258368 L358.657996,86.258368 L365.084053,56.018632 L372.700215,56.018632 L371.75687,60.4526109 L371.869968,60.4526109 C373.33768,58.6327518 376.336077,55.2230863 382.077116,55.2230863 C387.989088,55.2230863 391.857574,58.6905863 390.443842,65.3415546 L385.998296,86.258368 Z" id="Fill-1106" fill="#0A0B09"></path>
        <path d="M406.437396,80.5173292 C411.495988,80.5173292 414.378717,76.3108327 415.332343,71.8203046 C416.360512,66.9891954 416.034069,62.1002518 410.578347,62.1002518 C405.519755,62.1002518 402.859368,66.5907799 401.845336,71.3653398 C401.083206,74.9472236 401.32097,80.5173292 406.437396,80.5173292 Z M419.881991,86.258368 L412.094896,86.258368 L412.903294,82.4515722 L412.78891,82.4515722 C410.132379,85.8612377 406.355143,87.0551989 403.05729,87.0551989 C394.077519,87.0551989 392.017326,79.0958856 393.780636,70.7972764 C396.002766,60.3382271 403.002026,55.2230863 409.652995,55.2230863 C414.76685,55.2230863 416.56229,58.0081391 417.402819,59.9398116 L417.517202,59.9398116 L420.597854,45.4451989 L428.555882,45.4451989 L419.881991,86.258368 Z" id="Fill-1108" fill="#0A0B09"></path>
        <path d="M448.981102,68.1260933 C449.565873,63.2384349 446.752546,61.7591567 444.19369,61.7591567 C440.442158,61.7591567 437.946278,64.1470792 436.64693,68.1260933 L448.981102,68.1260933 Z M454.855803,77.3898961 C451.205803,84.6667623 444.674359,87.0546849 439.502669,87.0546849 C430.975292,87.0546849 425.308796,82.961287 427.953761,70.5140158 C428.727458,66.8755827 432.453285,55.2225722 445.697387,55.2225722 C451.665908,55.2225722 459.302634,58.0654595 456.368496,71.877625 L456.066472,73.2990687 L435.320592,73.2990687 C435.063549,75.5726074 434.431225,80.6890335 440.854711,80.6890335 C443.070415,80.6890335 445.585574,79.5516215 446.671577,77.3898961 L454.855803,77.3898961 Z" id="Fill-1110" fill="#0A0B09"></path>
        <path d="M464.974785,56.0191461 L472.592232,56.0191461 L471.480525,61.2486708 L471.594908,61.2486708 C473.895437,58.1783011 476.341194,55.2223151 481.174873,55.2223151 C481.685102,55.2223151 482.185049,55.2801496 482.683711,55.3366989 L480.967954,63.4091109 C480.311211,63.2947271 479.459116,63.2947271 478.72012,63.2947271 C472.524116,63.2947271 470.565454,67.1593574 469.852162,70.5137588 L466.506757,86.258882 L458.548729,86.258882 L464.974785,56.0191461 Z" id="Fill-1112" fill="#0A0B09"></path>
        <path d="M501.455764,65.2274278 C501.525165,63.2944701 501.275835,61.2484137 496.957525,61.2484137 C492.63793,61.2484137 491.717718,62.8960546 491.440113,64.2043996 C490.426081,68.9789595 510.091099,65.5114595 507.722454,76.6516708 C505.851187,85.461794 496.987085,87.055456 492.269074,87.055456 C485.390623,87.055456 478.453053,84.6662482 479.941327,76.5964067 L488.124268,76.5964067 C487.580623,79.1526919 488.774585,81.0278151 493.776627,81.0278151 C497.870025,81.0278151 499.258053,79.0383081 499.500958,77.9034665 C500.574109,72.8435898 481.008053,76.6516708 483.410113,65.3418116 C484.353458,60.9065475 488.347894,55.2233433 497.783915,55.2233433 C503.693317,55.2233433 510.427824,56.7000511 509.242859,65.2274278 L501.455764,65.2274278 Z" id="Fill-1114" fill="#0A0B09"></path>
        <path d="M526.838044,56.0191461 L531.782252,56.0191461 L530.574153,61.7036356 L525.629945,61.7036356 L522.139312,78.1299208 C521.76403,79.8932306 521.676636,80.5756778 524.915368,80.5756778 C525.428167,80.5756778 526.009083,80.5178433 526.588713,80.461294 L525.308643,86.4863644 C524.046565,86.5416285 522.783202,86.599463 521.532692,86.599463 L520.508379,86.599463 C513.632498,86.599463 512.935914,83.9853433 513.771301,80.0628785 L517.670632,61.7036356 L513.579805,61.7036356 L514.786618,56.0191461 L518.880016,56.0191461 L520.618907,47.8336356 L528.576935,47.8336356 L526.838044,56.0191461 Z" id="Fill-1116" fill="#0A0B09"></path>
        <path d="M550.259349,71.5364014 C549.330141,72.1622993 547.913838,72.6725282 544.508028,73.1853275 C541.444085,73.6968415 538.842817,74.4345528 538.142377,77.7311197 C537.55118,80.5174577 539.52912,81.3695528 541.063662,81.3695528 C544.587711,81.3695528 548.651549,79.0960141 549.438099,75.4010317 L550.259349,71.5364014 Z M556.173891,80.3478099 C555.413046,83.9284085 556.040229,84.7239542 556.933451,85.0645352 L556.678979,86.2584965 L548.096338,86.2584965 C547.944683,84.8370528 547.92669,84.382088 548.119472,82.6766127 C545.899912,84.5530211 542.812835,87.0553275 537.412377,87.0553275 C532.864014,87.0553275 528.746197,84.4964718 530.075106,78.243919 C531.332042,72.3332324 535.723609,69.319412 540.940282,68.5804155 L548.331532,67.500838 C549.616743,67.3299049 551.261813,66.8183908 551.624243,65.1142007 C552.33625,61.7597993 549.188768,61.5901514 547.143996,61.5901514 C543.164982,61.5901514 541.962025,64.033338 541.360546,65.7953627 L533.687835,65.7953627 C536.565423,56.5302746 543.267799,55.2232148 549.463803,55.2232148 C553.725563,55.2232148 561.235053,56.5302746 559.651673,63.9767887 L556.173891,80.3478099 Z" id="Fill-1118" fill="#0A0B09"></path>
        <path d="M589.371669,86.258368 L581.416211,86.258368 L585.315542,67.8978398 C585.7885,65.6808504 586.470947,61.9293187 581.412356,61.9293187 C577.887021,61.9293187 574.652144,64.3172412 573.674099,68.9221532 L569.989398,86.258368 L562.03137,86.258368 L568.458711,56.018632 L576.076158,56.018632 L575.132813,60.4526109 L575.245912,60.4526109 C576.713623,58.6327518 579.710736,55.2230863 585.45306,55.2230863 C591.363746,55.2230863 595.230947,58.6905863 593.817215,65.3415546 L589.371669,86.258368 Z" id="Fill-1120" fill="#0A0B09"></path>
        <path d="M609.81334,80.5173292 C614.871931,80.5173292 617.75466,76.3108327 618.708287,71.8203046 C619.736456,66.9891954 619.410012,62.1002518 613.95429,62.1002518 C608.895699,62.1002518 606.235312,66.5907799 605.22128,71.3653398 C604.45915,74.9472236 604.696914,80.5173292 609.81334,80.5173292 Z M623.257935,86.258368 L615.47084,86.258368 L616.279238,82.4515722 L616.164854,82.4515722 C613.508322,85.8612377 609.729801,87.0551989 606.433234,87.0551989 C597.453463,87.0551989 595.391984,79.0958856 597.156579,70.7972764 C599.379995,60.3382271 606.37797,55.2230863 613.028938,55.2230863 C618.142794,55.2230863 619.938234,58.0081391 620.778762,59.9398116 L620.893146,59.9398116 L623.973798,45.4451989 L631.93054,45.4451989 L623.257935,86.258368 Z" id="Fill-1122" fill="#0A0B09"></path>
        <path d="M645.742706,52.4380335 L637.784678,52.4380335 L639.355206,45.0480687 L647.314519,45.0480687 L645.742706,52.4380335 Z M644.983146,56.018632 L638.555805,86.258368 L630.597776,86.258368 L637.025118,56.018632 L644.983146,56.018632 Z" id="Fill-1124" fill="#0A0B09"></path>
        <path d="M673.51535,86.258368 L665.559893,86.258368 L669.459224,67.8978398 C669.930896,65.6808504 670.613343,61.9293187 665.554752,61.9293187 C662.030702,61.9293187 658.795826,64.3172412 657.816495,68.9221532 L654.131794,86.258368 L646.175051,86.258368 L652.602393,56.018632 L660.218555,56.018632 L659.276495,60.4526109 L659.389593,60.4526109 C660.857305,58.6327518 663.854417,55.2230863 669.596741,55.2230863 C675.507428,55.2230863 679.374629,58.6905863 677.960896,65.3415546 L673.51535,86.258368 Z" id="Fill-1126" fill="#0A0B09"></path>
        <path d="M695.375252,79.7211408 C700.77571,79.7211408 703.119935,75.1175141 704.000305,70.9675669 C705.04004,66.0799085 703.497787,62.1008944 699.063808,62.1008944 C696.107822,62.1008944 692.352435,64.2613345 690.853879,71.3094331 C690.033914,75.1753486 690.658526,79.7211408 695.375252,79.7211408 Z M715.078826,56.0192746 L708.989495,84.6666338 C707.879072,89.8961585 705.633808,98.5931831 690.74078,98.5931831 C684.488227,98.5931831 678.461871,95.9212289 679.486185,89.4990282 L688.12666,89.4990282 C688.140798,91.0335704 688.440252,92.5681127 693.045164,92.5681127 C697.306924,92.5681127 699.788667,90.5207711 700.827118,85.6343979 L701.600815,81.9959648 L701.512136,81.8828662 C699.707699,84.2129542 697.247805,86.4286585 692.47453,86.4286585 C685.198949,86.4286585 680.531062,81.3700669 682.778896,70.7966338 C685.001026,60.3388697 692.000287,55.2224437 698.648685,55.2224437 C704.276625,55.2224437 705.849724,58.5190106 706.393368,60.5085176 L706.507752,60.5085176 L707.461379,56.0192746 L715.078826,56.0192746 Z" id="Fill-1128" fill="#0A0B09"></path>
        <path d="M334.519544,112.294306 L334.519544,109.82156 L347.656974,109.82156 L347.656974,125.687493 L345.181657,125.687493 L345.181657,120.441261 C343.049491,124.107968 339.765776,126.497176 333.708576,126.497176 C325.9459,126.497176 320.272977,121.080011 320.272977,110.160856 C320.272977,101.160521 324.79435,94.1664014 334.475847,94.1664014 C340.917326,94.1664014 345.992625,97.3228803 347.316393,103.89031 L344.329562,103.89031 C343.305248,99.2853979 339.252977,96.6404331 334.690477,96.6404331 C326.585935,96.6404331 323.172414,102.610239 323.172414,111.312405 C323.172414,118.09575 327.267097,124.023144 334.306199,124.023144 C337.632326,124.023144 341.557361,122.615838 343.56229,118.648391 C344.542907,116.730856 344.841076,114.59869 344.884773,112.294306 L334.519544,112.294306 Z" id="Fill-1130" fill="#0A0B09"></path>
        <path d="M356.945452,125.687107 L354.385312,125.687107 L354.385312,103.591755 L356.945452,103.591755 L356.945452,107.72885 L357.030276,107.72885 C358.437583,104.189379 360.528621,102.996702 364.237741,102.996702 L364.237741,105.768903 C358.479995,105.639097 356.945452,109.905998 356.945452,114.852776 L356.945452,125.687107 Z" id="Fill-1132" fill="#0A0B09"></path>
        <path d="M376.484005,105.29813 C371.109252,105.29813 368.977086,109.863201 368.977086,114.640331 C368.977086,120.14232 371.578354,123.981246 376.484005,123.981246 C381.857474,123.981246 383.990924,119.375049 383.990924,114.640331 C383.948512,109.435225 381.901171,105.29813 376.484005,105.29813 M366.247298,114.640331 C366.247298,108.200137 369.659533,102.996317 376.484005,102.996317 C383.393301,102.996317 386.720713,108.15644 386.720713,114.640331 C386.720713,121.634451 382.668442,126.284345 376.484005,126.284345 C370.85221,126.199521 366.247298,122.35931 366.247298,114.640331" id="Fill-1134" fill="#0A0B09"></path>
        <path d="M406.37712,103.591884 L408.935975,103.591884 L408.935975,125.687236 L406.37712,125.687236 L406.37712,122.615581 C405.012225,124.152694 403.134532,126.284859 399.254479,126.284859 C393.368211,126.284859 391.405694,122.742817 391.405694,118.137905 L391.405694,103.591884 L393.963264,103.591884 L393.963264,118.095493 C393.963264,121.890722 395.627613,123.980475 399.637472,123.980475 C403.860676,123.980475 406.37712,120.483415 406.37712,115.620176 L406.37712,103.591884 Z" id="Fill-1136" fill="#0A0B09"></path>
        <path d="M425.436289,123.980861 C430.726218,123.980861 433.20025,119.503185 432.98562,113.957498 C432.943208,108.411812 429.745602,105.297745 425.436289,105.297745 C420.616746,105.297745 417.971782,109.392428 417.971782,114.724769 C417.971782,119.71396 420.78768,123.980861 425.436289,123.980861 Z M417.971782,134.389787 L415.412926,134.389787 L415.412926,103.592269 L417.971782,103.592269 L417.971782,107.474893 L418.057891,107.474893 C419.550021,104.572886 422.919845,102.995931 425.734458,102.995931 C432.858384,102.995931 435.715408,108.069945 435.715408,114.597533 C435.715408,120.78197 432.602627,126.285245 425.862979,126.285245 C422.748912,126.285245 419.593718,124.834241 417.971782,122.146864 L417.971782,134.389787 Z" id="Fill-1138" fill="#0A0B09"></path>
        <path d="M722.741255,59.4689102 L723.308033,59.4689102 C723.975058,59.4689102 724.510991,59.2452835 724.510991,58.7093504 C724.510991,58.2351074 724.163984,57.9189454 723.404424,57.9189454 C723.088262,57.9189454 722.868491,57.9497905 722.741255,57.983206 L722.741255,59.4689102 Z M722.71041,62.4069032 L721.507452,62.4069032 L721.507452,57.2249313 C721.981695,57.1285405 722.644864,57.0668504 723.500815,57.0668504 C724.480146,57.0668504 724.919688,57.2249313 725.301396,57.4447025 C725.582857,57.6657588 725.806484,58.0770264 725.806484,58.5821144 C725.806484,59.1527482 725.363086,59.5948609 724.730762,59.783787 L724.730762,59.8467623 C725.23585,60.0356884 725.521167,60.4161109 725.679248,61.1114102 C725.837329,61.9018151 725.93372,62.2166919 726.0571,62.4069032 L724.761607,62.4069032 C724.603526,62.2166919 724.510991,61.7437342 724.35291,61.1422553 C724.256519,60.5741919 723.940357,60.3210053 723.277188,60.3210053 L722.71041,60.3210053 L722.71041,62.4069032 Z M719.517945,59.6886813 C719.517945,61.9943504 721.225991,63.8283468 723.562505,63.8283468 C725.837329,63.8283468 727.510674,61.9943504 727.510674,59.7195264 C727.510674,57.4138574 725.837329,55.5503011 723.53166,55.5503011 C721.225991,55.5503011 719.517945,57.4138574 719.517945,59.6886813 Z M728.840868,59.6886813 C728.840868,62.6266743 726.531343,64.9349137 723.53166,64.9349137 C720.558967,64.9349137 718.191607,62.6266743 718.191607,59.6886813 C718.191607,56.8123785 720.558967,54.5067095 723.53166,54.5067095 C726.531343,54.5067095 728.840868,56.8123785 728.840868,59.6886813 Z" id="Fill-1140" fill="#0A0B09"></path>
    </g>
</svg>