<svg viewBox="0 0 860 310" xmlns="http://www.w3.org/2000/svg">
  <g fill="none" fill-rule="evenodd">
    <path fill="#FFF" d="M0 0h860v310H0z"/>
    <path fill="#595A59" d="M185.3 178.8h2V191h6.8v2h-8.8zM202.3 186c0 1.3 0 2.3.2 2.8 0 .5.2.9.5 1.2.2.3.5.5.9.7.3.2.8.3 1.3.3s.9 0 1.3-.3l.8-.7c.3-.3.4-.7.5-1.2l.2-2.9c0-1.4 0-2.3-.2-2.8 0-.5-.2-.9-.5-1.2l-.8-.7a2.9 2.9 0 0 0-2.6 0c-.4.2-.7.4-.9.7-.3.3-.4.7-.5 1.2l-.2 2.8m-2 0v-3.3l.5-1.3a4.8 4.8 0 0 1 4.4-2.6 4.7 4.7 0 0 1 4.3 2.6l.5 1.3a29.2 29.2 0 0 1-.5 8 4.8 4.8 0 0 1-4.3 2.6c-1.1 0-2-.3-2.7-.8a4.7 4.7 0 0 1-2.1-3.2c-.1-.5-.2-1.6-.2-3.3M227.2 189a5.4 5.4 0 0 1-1.7 3.1c-.9.7-2 1-3.1 1s-2-.2-2.7-.7a4.7 4.7 0 0 1-2.1-3.2l-.1-3.3.1-3.3.5-1.3a4.8 4.8 0 0 1 4.3-2.6c1.3 0 2.4.4 3.2 1.2.9.8 1.4 1.8 1.6 3H225c-.2-.5-.5-1-1-1.4-.4-.4-1-.6-1.6-.6-.5 0-1 0-1.3.3a2.8 2.8 0 0 0-1.4 1.9l-.2 2.8c0 1.5.1 2.4.2 2.9 0 .5.3.9.5 1.2l1 .7c.3.2.7.3 1.2.3 1.2 0 2-.6 2.6-2h2.2zM240.3 188l-2-6.3-2 6.3h4zm.6 1.9h-5.2l-1 3.2h-2.3l5-14.3h1.8l5 14.3H242l-1-3.2zM251 178.8h2.2V191h6.7v2H251zM286.3 189a5.4 5.4 0 0 1-1.7 3.1c-.9.7-1.9 1-3.1 1-1 0-2-.2-2.7-.7a4.7 4.7 0 0 1-2-3.2c-.2-.5-.2-1.6-.2-3.3l.1-3.3.5-1.3a4.8 4.8 0 0 1 4.3-2.6c1.3 0 2.4.4 3.3 1.2.8.8 1.3 1.8 1.5 3h-2.2c-.1-.5-.5-1-.9-1.4-.5-.4-1-.6-1.7-.6-.5 0-1 0-1.3.3l-.8.7c-.3.3-.5.7-.6 1.2l-.1 2.8.1 2.9c.1.5.3.9.6 1.2l.8.7c.4.2.8.3 1.3.3 1.2 0 2-.6 2.6-2h2.2zM294.8 186c0 1.3 0 2.3.2 2.8 0 .5.2.9.5 1.2.2.3.5.5.9.7.3.2.7.3 1.2.3s1 0 1.3-.3c.4-.2.7-.4.9-.7l.5-1.2.2-2.9c0-1.4 0-2.3-.2-2.8 0-.5-.3-.9-.5-1.2-.2-.3-.5-.5-.9-.7a2.9 2.9 0 0 0-2.6 0l-.8.7c-.3.3-.4.7-.5 1.2l-.2 2.8m-2 0v-3.3l.5-1.3a4.8 4.8 0 0 1 4.3-2.6 4.7 4.7 0 0 1 4.4 2.6c.2.3.3.8.4 1.3l.2 3.3c0 1.7 0 2.8-.2 3.3 0 .6-.2 1-.4 1.4a4.8 4.8 0 0 1-4.3 2.6c-1.1 0-2-.3-2.8-.8a4.7 4.7 0 0 1-2-3.2c-.1-.5-.2-1.6-.2-3.3M310.4 178.8h2l6.2 10.1v-10h2.1V193h-2l-6.2-10.2v10.2h-2zM329.1 178.8h2l6.2 10.1v-10h2.1V193h-2l-6.2-10.2v10.2h-2zM347.8 178.8h8.8v2h-6.7v4.1h5.7v2H350v4.1h6.7v2h-8.8zM373.2 189a5.4 5.4 0 0 1-1.7 3.1c-.9.7-2 1-3.1 1-1 0-2-.2-2.7-.7-.8-.5-1.3-1.1-1.6-1.8l-.3-.6-.2-.8a24 24 0 0 1-.1-3.3l.1-3.3.5-1.3a4.8 4.8 0 0 1 4.3-2.6c1.3 0 2.4.4 3.2 1.2.9.8 1.4 1.8 1.6 3H371c-.2-.5-.5-1-1-1.4-.4-.4-1-.6-1.6-.6-.5 0-1 0-1.3.3l-.8.7c-.3.3-.5.7-.6 1.2l-.1 2.8.1 2.9c.1.5.3.9.6 1.2l.8.7c.4.2.8.3 1.3.3 1.2 0 2-.6 2.6-2h2.2zM382 180.7h-3.7v-1.9h9.6v2h-3.8V193h-2zM394.7 193h2.1v-14.2h-2zM406.5 186c0 1.3 0 2.3.2 2.8 0 .5.2.9.5 1.2.2.3.5.5.9.7.3.2.8.3 1.2.3.5 0 1 0 1.3-.3.4-.2.7-.4.9-.7l.5-1.2.2-2.9c0-1.4 0-2.3-.2-2.8 0-.5-.3-.9-.5-1.2-.2-.3-.5-.5-.9-.7a2.9 2.9 0 0 0-2.6 0l-.8.7c-.3.3-.4.7-.5 1.2l-.2 2.8m-2 0v-3.3l.5-1.3a4.8 4.8 0 0 1 4.3-2.6 4.7 4.7 0 0 1 4.4 2.6c.2.3.4.8.4 1.3l.2 3.3c0 1.7 0 2.8-.2 3.3 0 .6-.2 1-.4 1.4a4.8 4.8 0 0 1-4.3 2.6c-1.1 0-2-.3-2.8-.8-.7-.5-1.2-1.1-1.6-1.8l-.2-.6-.2-.8c-.1-.5-.2-1.6-.2-3.3M422.1 178.8h2l6.2 10.1v-10h2.1V193h-2l-6.2-10.2v10.2h-2zM441 189.6a6 6 0 0 0 3.9 1.4c1.8 0 2.7-.7 2.7-2 0-1-.6-1.7-1.8-1.9l-1.8-.2c-1.2-.2-2.1-.7-2.7-1.4-.7-.7-1-1.6-1-2.6a4 4 0 0 1 1.2-3c.8-.8 1.9-1.2 3.3-1.2 1.7 0 3.2.5 4.5 1.5L448 182c-1-.7-2.1-1.1-3.4-1.1-.6 0-1.2.1-1.6.5-.4.3-.7.8-.7 1.5 0 .4.2.8.5 1.1.3.4.8.6 1.5.7l1.5.2c1.3.2 2.3.7 2.9 1.5.6.7.9 1.6.9 2.6 0 2.8-1.7 4.1-4.8 4.2-2 0-3.8-.7-5.3-2l1.4-1.6zM457.2 193h2v-2h-2zM481.4 185.2h5v3c-.1 1.4-.6 2.5-1.5 3.5-1 1-2.1 1.4-3.5 1.5-1 0-2-.3-2.7-.8a4.7 4.7 0 0 1-2-3.2c-.2-.5-.2-1.6-.2-3.3l.1-3.3.5-1.3a4.8 4.8 0 0 1 4.3-2.6c1.3 0 2.4.4 3.3 1.2.8.8 1.3 1.8 1.5 3H484c-.1-.5-.5-1-.9-1.4-.5-.4-1-.6-1.7-.6-.5 0-1 0-1.3.3l-.8.7c-.3.3-.5.7-.6 1.2l-.1 2.8.1 2.9c.1.5.3.9.6 1.2l.8.7c.4.2.8.3 1.3.3.8 0 1.5-.3 2-.8a3 3 0 0 0 .8-2.2v-.7h-2.8v-2zM494.2 178.8h2V191h6.8v2h-8.8zM511.2 186l.1 2.8c.1.5.3.9.6 1.2.2.3.5.5.9.7.3.2.7.3 1.2.3s1 0 1.3-.3l.9-.7.5-1.2.2-2.9c0-1.4 0-2.3-.2-2.8 0-.5-.3-.9-.5-1.2l-.9-.7a2.9 2.9 0 0 0-2.6 0l-.8.7c-.3.3-.5.7-.6 1.2l-.1 2.8m-2 0v-3.3l.5-1.3a4.9 4.9 0 0 1 4.3-2.6 4.7 4.7 0 0 1 4.3 2.6c.3.3.4.8.5 1.3a28.5 28.5 0 0 1-.5 8c-.3.7-.8 1.3-1.5 1.8-.8.5-1.7.7-2.8.8-1 0-2-.3-2.7-.8a4.7 4.7 0 0 1-1.9-2.4l-.2-.8V186M528.9 186.7v4.3h3.2c.8 0 1.3-.2 1.7-.6.4-.4.5-1 .5-1.5 0-.6-.1-1.1-.5-1.5-.4-.4-1-.6-1.7-.7h-3.2zm0-6v4.1h3c.8 0 1.3-.2 1.7-.6.3-.4.5-.8.5-1.4 0-.6-.2-1-.5-1.5-.4-.4-1-.5-1.7-.6h-3zm-2.1-1.9h5.3c1.4 0 2.4.4 3 1 .8.8 1.1 1.7 1.1 2.8 0 .6-.1 1.2-.4 1.7-.1.3-.3.5-.6.7l-1 .7c.7.2 1.3.7 1.7 1.3.3.6.5 1.3.5 2a4 4 0 0 1-1 3c-.8.7-1.7 1-2.8 1h-5.8v-14.2zM550.5 188l-2-6.3-2 6.3h4zm.6 1.9h-5.3l-1 3.2h-2.2l5-14.3h1.7l5 14.3h-2.2l-1-3.2zM561.2 178.8h2.1V191h6.7v2h-8.8zM587.2 193h2v-14.2h-2zM597.4 178.8h2l3.9 9.3 3.9-9.3h2v14.3H607v-9l-3 7h-1.7l-2.9-7v9h-2.1zM619.6 185.5h3.1c.8 0 1.4-.3 1.8-.8.4-.4.6-1 .6-1.5s-.1-1-.3-1.2c-.1-.3-.3-.6-.6-.7-.5-.3-1-.5-1.5-.4h-3v4.6zm-2-6.7h5c.5 0 1 0 1.5.2.5.1 1 .4 1.6.8.4.3.7.8 1 1.4.3.6.4 1.2.4 2 0 1-.3 2-1 2.9-.8 1-1.9 1.4-3.3 1.4h-3.2v5.6h-2v-14.3zM639.9 188l-2-6.3-2 6.3h4zm.6 1.9h-5.2l-1.1 3.2H632l5-14.3h1.7l5 14.3h-2.2l-1-3.2zM659.7 189a5.4 5.4 0 0 1-1.7 3.1c-.9.7-2 1-3.1 1-1 0-2-.2-2.7-.7a4.7 4.7 0 0 1-2-3.2c-.2-.5-.2-1.6-.2-3.3l.1-3.3.5-1.3a4.8 4.8 0 0 1 4.3-2.6c1.3 0 2.4.4 3.2 1.2.9.8 1.4 1.8 1.6 3h-2.2c-.2-.5-.5-1-1-1.4-.4-.4-1-.6-1.6-.6a3 3 0 0 0-1.3.3l-.9.7-.5 1.2-.1 2.8.1 2.9.5 1.2 1 .7c.3.2.7.3 1.2.3 1.2 0 2-.6 2.6-2h2.2zM668.5 180.7h-3.8v-1.9h9.7v2h-3.8V193h-2zM679.5 193h2v-2h-2zM178 116.9h7.6l7.5 35h.1l9.2-35h5.3l9.2 35h.1l7.5-35h7.6L220.2 166h-6l-9-35.4h-.2l-9.1 35.4h-6zM241 141.4c0 4.9.2 8.2.5 9.9.3 1.7 1 3 1.9 4.1.7 1 1.8 1.9 3 2.5 1.2.7 2.7 1.1 4.4 1.1 1.7 0 3.2-.4 4.5-1.1a8 8 0 0 0 2.8-2.5c1-1 1.6-2.4 2-4.1.3-1.7.4-5 .4-9.9 0-4.8-.1-8-.4-9.8-.4-1.7-1-3-2-4.1-.7-1-1.6-1.9-2.8-2.6-1.3-.6-2.8-1-4.5-1-1.7 0-3.2.4-4.4 1a9.2 9.2 0 0 0-3 2.6c-1 1-1.6 2.4-1.9 4-.3 1.8-.5 5.1-.5 10m-7.2 0c0-5.8.2-9.6.5-11.5.3-2 .9-3.5 1.6-4.7a16.7 16.7 0 0 1 14.9-8.8 16.2 16.2 0 0 1 14.9 8.8c.8 1.2 1.3 2.8 1.6 4.7.3 2 .5 5.7.5 11.4a98 98 0 0 1-.5 11.4c-.3 2-.8 3.6-1.6 4.8-1.1 2.3-3 4.3-5.5 6a16.6 16.6 0 0 1-9.4 2.8c-3.8 0-6.9-1-9.4-2.8a16.2 16.2 0 0 1-7.1-10.8c-.3-2-.5-5.7-.5-11.4M280.4 138.4h11c2.7 0 4.7-.8 6-2.4 1.4-1.5 2-3.3 2-5.4 0-2.6-.8-4.4-2.4-5.6-1.2-1-3-1.5-5.3-1.5h-11.3v15zm-7.2-21.5h18.6c4 0 7.2 1 9.7 3.2 3 2.5 4.6 6 4.7 10.5 0 6.7-3.1 11.2-9.2 13.6l11 21.8h-8.5l-9.9-21h-9.2v21h-7.2V117zM311 116.9h7.2V159h23.2v7H311zM352.3 159h8.6c4.1 0 7-1.4 8.9-4.3.8-1 1.3-2.4 1.5-4a98.9 98.9 0 0 0 0-18.2 8.6 8.6 0 0 0-1.9-4.5 9.5 9.5 0 0 0-8.5-4.1h-8.6V159zm-7.2-42.1h16.7c6.4 0 11.2 2.8 14.5 8.3a15 15 0 0 1 2.1 5.8c.3 2 .4 5.5.4 10.4 0 5.3-.2 9-.6 11.1a12.6 12.6 0 0 1-2 5.4 16.8 16.8 0 0 1-5.9 5.7 16.1 16.1 0 0 1-9 2.4H345V117z"/>
    <path fill="#00A3DA" d="M396.6 166h7.2V117h-7.2zM432.4 148.4l-6.9-21.5h-.1l-6.9 21.5h14zm2 6.6h-18l-3.6 11H405l17.3-49.1h6l17.4 49.1h-7.6l-3.7-11z"/>
    <path d="M467.4 159h8.6c4 0 7-1.4 8.8-4.3.8-1 1.3-2.4 1.5-4a98.9 98.9 0 0 0 0-18.2 8.6 8.6 0 0 0-1.8-4.5 9.5 9.5 0 0 0-8.5-4.1h-8.6V159zm-7.3-42.1h16.7c6.4 0 11.3 2.8 14.5 8.3a15 15 0 0 1 2.2 5.8 103.6 103.6 0 0 1-1 24.3l-1.3 2.6a16.8 16.8 0 0 1-5.9 5.7 16.1 16.1 0 0 1-9 2.4h-16.2V117zM520.4 148.4l-6.9-21.5h-.1l-6.9 21.5h14zm2 6.6h-18l-3.6 11H493l17.3-49.1h6l17.4 49.1h-7.6l-3.7-11zM539 145.8l-14.3-29h7.7l10 21.9 10.2-21.8h7.6l-14.3 28.9V166H539z" fill="#595A59"/>
    <path d="M570.1 159.2l18.6-24c.7-.9 1.2-1.8 1.4-2.6l.3-2.2c0-1.9-.6-3.5-1.7-4.8a6.2 6.2 0 0 0-4.9-2.1c-1.8 0-3.4.6-4.6 1.8-1.3 1.2-2 3-2.3 5.2h-6.8c.2-4 1.5-7.4 4-10 2.5-2.6 5.6-4 9.2-4 4 0 7.4 1.4 10 4 2.5 2.6 3.8 6 3.8 10 0 3.2-1 6-2.8 8.6L579 158.8h18.1v7h-27v-6.6zM621.9 131c-.2-5-2.4-7.4-6.7-7.5-4.4 0-6.6 2.6-6.7 7.5v20.7c.1 5 2.3 7.4 6.7 7.5 4.3 0 6.5-2.5 6.7-7.5V131zm-20.1-.5a13.3 13.3 0 0 1 13.4-14c3.7 0 6.8 1.2 9.4 3.6 2.6 2.5 4 6 4 10.4v21.6c0 4.5-1.4 8-4 10.4a13.5 13.5 0 0 1-18.6 0 13.3 13.3 0 0 1-4.2-10.4v-21.6zM638.4 124.4l-6.7 5V122l6.7-5h6.8v48.9h-6.8zM652.7 134.5V130c0-4.5 1.6-8 4.5-10.4 2.8-2.4 6.1-3.6 10-3.6 4 0 7.3 1.2 10 3.6 3 2.5 4.4 6 4.5 10.4v21.6c-.1 4.5-1.6 8-4.4 10.4a15.2 15.2 0 0 1-10.1 3.7c-3.4 0-6.4-1-9-3a12.9 12.9 0 0 1-5.2-8.1h7.5c1.2 2.7 3.4 4 6.7 4 4.6 0 7-2.5 7.1-7.4v-4.6c-3.4 1-6.7 1.5-9.7 1.5-3.3 0-6.1-1-8.5-3.3-2.3-2.1-3.4-5.6-3.4-10.3zm7.3-4v4c.1 4.9 2.5 7.4 7.2 7.4 4.6 0 7-2.5 7.1-7.4v-4c-.1-5-2.5-7.4-7.1-7.5-4.7 0-7 2.6-7.2 7.5z" fill="#00A3DA"/>
  </g>
</svg>
