<svg viewBox="0 0 2010 1454" xmlns="http://www.w3.org/2000/svg">
  <g fill="none" fill-rule="evenodd">
    <path d="M974.4 128.3l200.3 54.7 100.3 78.4 84.8 141.5 4 150.2-21 115.2-73.7 117.3-91.5 62.3-103.1 44.2 64.2-74.8-64.2 74.8-94.8 5.6-120.5-20.9-103.1-57.7-92.2-105.7-33.5-65.3L604 520.3 614.3 400l51.3-97.4 80-83.8 80.5-52.9 148.3-37.6zM734 596.7L754.5 698l-20.5-101.2z" fill="#FFF"/>
    <path fill="#FFF" d="M895.1 289.8l-29.8 241.8 202.8-67.4z"/>
    <path fill="#D2D2D2" d="M1031 730.8L865.2 531.6l202.8-67.4z"/>
    <path fill="#F5F5F5" d="M1067 276.9v-.2L1213 424l-145 40.3z"/>
    <path fill="#EFEFEF" d="M1189.5 654L1068 464.1 1213 424z"/>
    <path fill="#E1E1E1" d="M744.4 403.6l-10.3 193.1 131.2-65z"/>
    <path fill="#C5C5C5" d="M872.6 746.4L734.1 596.7l131.2-65z"/>
    <path fill="#F3F3F3" d="M865.3 531.6l-120.9-128 150.7-113.8z"/>
    <path fill="#F0F0F0" d="M1068 464.2L895.2 289.8l172-13z"/>
    <path fill="#B6B6B6" d="M872.6 746.4l-7.3-214.8L1031 730.8z"/>
    <path fill="#E6E6E6" d="M1068 464.2l-37 266.6 158.5-76.9z"/>
    <path fill="#FFF" d="M895.1 289.8l43-120.1 129 107z"/>
    <path fill="#D9D9D9" d="M895.1 289.8l-103.3-43.3 146.3-76.8z"/>
    <path fill="#FAFAFA" d="M744.4 403.6l47.4-157.1 103.3 43.3z"/>
    <path fill="#F0F0F0" d="M791.8 246.5l34.3-80.6 112 3.8z"/>
    <path fill="#EFEFEF" d="M734 596.7l-70.3-128 80.7-65.1zM872.6 746.4L734.1 596.7l30.6 150.6z"/>
    <path fill="#D5D5D5" d="M663.7 468.7L676.2 344l68.2 59.6z"/>
    <path fill="#E5E5E5" d="M791.8 246.5L676.2 344l68.2 59.6zM791.8 246.5l-46.2-27.7 80.5-52.9z"/>
    <path fill="#C7C7C7" d="M676.2 344l69.4-125.2 46.2 27.7z"/>
    <path fill="#B3B3B3" d="M676.2 344l-10.6-41.4 80-83.8z"/>
    <path fill="#EFEFEF" d="M663.7 468.7L614.3 400l61.9-56z"/>
    <path fill="#CCC" d="M614.3 400l51.3-97.4 10.6 41.4z"/>
    <path fill="#DCDCDC" d="M663.7 468.7l-4 165.5 74.4-37.5z"/>
    <path fill="#C8C8C8" d="M663.7 468.7l-59.6 51.6 55.6 113.9z"/>
    <path fill="#A6A6A6" d="M614.3 400L604 520.3l59.6-51.6z"/>
    <path fill="#CCC" d="M872.6 746.4l118.9 111.8 39.4-127.4z"/>
    <path fill="#E5E5E5" d="M1031 730.8l107.7 86.5-147.2 40.9z"/>
    <path fill="#EFEFEF" d="M1189.5 654l-158.6 76.8 107.8 86.5z"/>
    <path fill="#E6E6E6" d="M991.5 858.2l83 33.8 64.2-74.7z"/>
    <path fill="#C7C7C7" d="M1138.7 817.3l50.8-163.4 73.1 92.8z"/>
    <path fill="#EFEFEF" d="M1189.5 654l117.1-57.8-44 150.5zM1306.6 596.2l57.1-43.1L1213 423.9z"/>
    <path fill="#CECECE" d="M1306.6 596.2l36.2 72.1-80.2 78.4z"/>
    <path fill="#C2C2C2" d="M1363.7 553l-20.9 115.3-36.2-72.1z"/>
    <path fill="#EFEFEF" d="M1262.6 746.7l-123.9 70.6 39 30.6z"/>
    <path fill="#C8C8C8" d="M1177.6 848l91.5-62.4-6.5-38.9z"/>
    <path fill="#AEAEAE" d="M1342.8 668.3l-80.2 78.4 6.5 38.9z"/>
    <path fill="#E4E4E4" d="M764.7 747.3l107.5 98.5.4-99.4z"/>
    <path fill="#BBB" d="M872.2 845.8l119.3 12.4-118.9-111.8z"/>
    <path fill="silver" d="M991.5 858.2l-11.8 39.5 94.8-5.7z"/>
    <path fill="#999" d="M872.2 845.8l107.5 52 11.8-39.6z"/>
    <path fill="#BBB" d="M872.2 845.8l-13 31 120.5 21z"/>
    <path fill="#C7C7C7" d="M872.2 845.8l-116.1-26.7 8.6-71.8z"/>
    <path fill="#DCDCDC" d="M756 819.1l103.2 57.7 13-31z"/>
    <path fill="#BDBDBD" d="M659.7 634.2l4.2 79.2 100.8 33.9z"/>
    <path fill="#AEAEAE" d="M664 713.4L756 819l8.7-71.8z"/>
    <path fill="#CCC" d="M659.7 634.2l-29.3 13.9 33.5 65.3z"/>
    <path fill="#E6E6E6" d="M630.4 648.1l29.3-13.9-55.6-114zM1067 276.7l133.7-14 12.3 161.2z"/>
    <path fill="#F3F3F3" d="M1213 424l93.3-13.7-105.6-147.6z"/>
    <path fill="#FFF" d="M1363.7 553L1213 424l93.3-13.7z"/>
    <path fill="#E1E1E1" d="M1306.3 410.3l57.4 142.8-4-150.2z"/>
    <path fill="#CACACA" d="M1200.7 262.7l105.6 147.6 53.5-7.4z"/>
    <path fill="#A9A9A9" d="M1200.7 262.7l74.3-1.3 84.8 141.5z"/>
    <path fill="#F8F8F8" d="M1067 276.7l-128.9-107 120.6-5z"/>
    <path fill="#D4D4D4" d="M1067 276.7l-8.3-112 142 98z"/>
    <path fill="#FFF" d="M1058.7 164.7l116 18.3 26 79.7z"/>
    <path fill="#C7C7C7" d="M1200.7 262.7l-26-79.7 100.3 78.4z"/>
    <path fill="#E9E9E9" d="M938.1 169.7l36.3-41.4 84.3 36.4z"/>
    <path fill="#C7C7C7" d="M826 165.9l148.4-37.6-36.3 41.4z"/>
    <path fill="#C2C2C2" d="M974.4 128.3l84.3 36.4 116 18.3z"/>
    <path fill="#FCFCFC" d="M1189.5 654l117.1-57.8-93.6-172.3z"/>
    <path fill="#FFF" d="M764.7 747.3l-105-113.1 74.3-37.5zM1074.5 892l64.2-74.7 39 30.6-103.2 44.1z"/>
    <path fill="#666" d="M236.3 1220.4h6.6v38.3H264v6.4h-27.7zM283.3 1242.7c0-5.2.2-8.6.5-10.4.3-1.8.8-3.2 1.4-4.3a15.3 15.3 0 0 1 13.6-8 14.9 14.9 0 0 1 13.6 8c.7 1.1 1.2 2.6 1.5 4.3.2 1.8.4 5.2.4 10.4s-.2 8.6-.4 10.4c-.3 1.8-.8 3.3-1.5 4.3-1 2.1-2.7 4-5 5.5a15 15 0 0 1-8.6 2.6c-3.4-.1-6.2-1-8.5-2.6a14.8 14.8 0 0 1-6.5-9.8c-.3-1.8-.5-5.2-.5-10.4zm6.6 0c0 4.5.2 7.4.5 9 .2 1.5.8 2.8 1.7 3.8.7.9 1.6 1.6 2.7 2.2 1.1.7 2.4 1 4 1s3-.3 4-1c1.2-.6 2-1.3 2.7-2.2a8 8 0 0 0 1.7-3.8c.3-1.6.5-4.5.5-9a58 58 0 0 0-.5-9 7.9 7.9 0 0 0-1.7-3.7c-.7-.9-1.5-1.7-2.6-2.3a8.9 8.9 0 0 0-8 0c-1.2.6-2.1 1.4-2.8 2.3-.9 1-1.5 2.2-1.7 3.7-.3 1.6-.5 4.6-.5 9zM368.2 1252.6a17 17 0 0 1-5.4 9.6c-2.8 2.2-6 3.3-9.8 3.3a15 15 0 0 1-8.6-2.6 14.8 14.8 0 0 1-6.5-9.8c-.3-1.8-.4-5.2-.4-10.4s.1-8.6.4-10.4a15.3 15.3 0 0 1 15-12.3c4.3 0 7.7 1.3 10.3 3.8a17 17 0 0 1 5 9.4h-7a10 10 0 0 0-2.9-4.6 8.4 8.4 0 0 0-5.3-1.9 9 9 0 0 0-4 1c-1.2.6-2 1.4-2.8 2.3-.8 1-1.4 2.2-1.7 3.7-.3 1.6-.4 4.6-.4 9 0 4.5.1 7.4.4 9 .3 1.5.9 2.8 1.7 3.8.7.9 1.6 1.6 2.8 2.2 1 .7 2.4 1 4 1 3.7 0 6.4-2 8.2-6h7zM411.3 1255.1h-16.5l-3.3 10h-7l15.8-44.7h5.5l15.8 44.7h-7l-3.3-10zm-1.9-6l-6.3-19.6-6.4 19.6h12.7zM443.2 1220.4h6.6v38.3h21.1v6.4h-27.7zM554.2 1252.6c-1 4.2-2.8 7.3-5.5 9.6-2.7 2.2-6 3.3-9.8 3.3-3.4-.1-6.2-1-8.5-2.6a14.8 14.8 0 0 1-6.5-9.8c-.3-1.8-.4-5.2-.4-10.4s.1-8.6.4-10.4a15.2 15.2 0 0 1 15-12.3c4.2 0 7.6 1.3 10.3 3.8a17 17 0 0 1 5 9.4h-7a9.8 9.8 0 0 0-3-4.6 8.4 8.4 0 0 0-5.3-1.9 8.4 8.4 0 0 0-6.7 3.3c-.9 1-1.4 2.2-1.7 3.7-.3 1.6-.5 4.6-.5 9 0 4.5.2 7.4.5 9 .3 1.5.8 2.8 1.7 3.8.7.9 1.6 1.6 2.7 2.2 1.1.7 2.5 1 4 1 3.7 0 6.5-2 8.3-6h7zM574.3 1242.7c0-5.2 0-8.6.4-10.4.3-1.8.8-3.2 1.4-4.3a15.2 15.2 0 0 1 13.6-8 14.9 14.9 0 0 1 13.6 8c.7 1.1 1.2 2.6 1.5 4.3.2 1.8.4 5.2.4 10.4s-.2 8.6-.4 10.4c-.3 1.8-.8 3.3-1.5 4.3-1 2.1-2.7 4-5 5.5a15.1 15.1 0 0 1-8.6 2.6c-3.4-.1-6.2-1-8.5-2.6a14.8 14.8 0 0 1-6.5-9.8c-.3-1.8-.4-5.2-.4-10.4zm6.5 0c0 4.5.2 7.4.5 9 .3 1.5.8 2.8 1.7 3.8.7.9 1.6 1.6 2.7 2.2 1.1.7 2.5 1 4 1 1.6 0 3-.3 4-1 1.2-.6 2-1.3 2.7-2.2a8 8 0 0 0 1.8-3.8c.3-1.6.4-4.5.4-9 0-4.4-.1-7.4-.4-9a8 8 0 0 0-1.8-3.7c-.6-.9-1.5-1.7-2.6-2.3-1.2-.6-2.5-1-4-1a9 9 0 0 0-4 1c-1.2.6-2.1 1.4-2.8 2.3-.9 1-1.4 2.2-1.7 3.7-.3 1.6-.5 4.6-.5 9zM629.9 1220.4h6.2l19.6 31.8h.1v-31.8h6.6v44.7h-6.2l-19.6-31.8h-.2v31.8H630zM688.7 1220.4h6.2l19.6 31.8h.1v-31.8h6.6v44.7H715l-19.6-31.8h-.1v31.8h-6.6zM747.5 1220.4h27.7v6.3H754v12.9h18v6h-18v13.1h21v6.4h-27.6zM827.5 1252.6a17 17 0 0 1-5.4 9.6c-2.8 2.2-6 3.3-9.8 3.3-3.4-.1-6.3-1-8.5-2.6a14.8 14.8 0 0 1-6-7.4 13 13 0 0 1-.5-2.4c-.3-1.8-.5-5.2-.5-10.4s.2-8.6.5-10.4a13 13 0 0 1 1.4-4.3 15.3 15.3 0 0 1 13.6-8c4.2 0 7.6 1.3 10.2 3.8a17 17 0 0 1 5 9.4h-7a9.9 9.9 0 0 0-2.9-4.6 8.4 8.4 0 0 0-5.3-1.9 9 9 0 0 0-4 1c-1.2.6-2 1.4-2.8 2.3-.8 1-1.4 2.2-1.7 3.7-.3 1.6-.4 4.6-.4 9 0 4.5.1 7.4.4 9 .3 1.5.9 2.8 1.7 3.8.7.9 1.6 1.6 2.8 2.2 1 .7 2.4 1 4 1 3.7 0 6.4-2 8.3-6h7zM855.2 1226.4h-12v-6h30.4v6h-11.9v38.7h-6.5zM895 1220.4h6.6v44.7h-6.5zM925.6 1242.7c0-5.2.2-8.6.5-10.4.3-1.8.8-3.2 1.4-4.3 1-2 2.8-3.9 5.1-5.5s5.1-2.5 8.5-2.5a14.9 14.9 0 0 1 13.6 8c.7 1.1 1.2 2.6 1.5 4.3.2 1.8.4 5.2.4 10.4s-.2 8.6-.4 10.4c-.3 1.8-.8 3.3-1.5 4.3-1 2.1-2.7 4-5 5.5a15 15 0 0 1-8.6 2.6c-3.4-.1-6.2-1-8.5-2.6a14.6 14.6 0 0 1-6.5-9.8 77 77 0 0 1-.5-10.4zm6.6 0c0 4.5.2 7.4.5 9 .3 1.5.8 2.8 1.7 3.8.7.9 1.6 1.6 2.7 2.2 1.1.7 2.5 1 4 1 1.6 0 3-.3 4-1 1.2-.6 2-1.3 2.7-2.2a8 8 0 0 0 1.8-3.8c.3-1.6.4-4.5.4-9 0-4.4-.1-7.4-.4-9a8 8 0 0 0-1.8-3.7c-.7-.9-1.5-1.7-2.6-2.3a8.9 8.9 0 0 0-8 0c-1.2.6-2.1 1.4-2.8 2.3-.9 1-1.4 2.2-1.7 3.7-.3 1.6-.5 4.6-.5 9zM981.3 1220.4h6.2l19.6 31.8h.1v-31.8h6.6v44.7h-6.2l-19.6-31.8h-.2v31.8h-6.5zM1040.6 1254.3c3.4 3 7.5 4.4 12.3 4.4 5.6 0 8.5-2.1 8.6-6.2 0-3.3-1.9-5.3-5.7-6l-5.7-.8a14 14 0 0 1-8.5-4.3c-2-2.3-3-5-3-8.3 0-4 1.2-7 3.7-9.5 2.5-2.3 6-3.6 10.4-3.6a24 24 0 0 1 14 4.6l-3.6 5.6a19.5 19.5 0 0 0-10.7-3.5 8 8 0 0 0-5.1 1.6c-1.4 1.1-2.1 2.7-2.2 4.9a5 5 0 0 0 1.5 3.5c1 1 2.5 1.8 4.7 2.2l4.8.7c4.1.6 7.1 2 9 4.5a13 13 0 0 1 3 8.4c-.3 8.5-5.4 12.9-15.3 13-6.4 0-12-2-16.5-6.1l4.3-5.1zM1091.6 1258.7h6.2v6.4h-6.2zM1167.8 1240.5h15.4v9.1c0 4.5-1.6 8.2-4.4 11.3a15 15 0 0 1-11 4.6c-3.4 0-6.3-1-8.6-2.6a14.7 14.7 0 0 1-6.5-9.8c-.3-1.8-.4-5.2-.4-10.4s.1-8.6.4-10.4a15.2 15.2 0 0 1 15-12.3c4.2 0 7.7 1.3 10.3 3.9a17 17 0 0 1 5 9.4h-7a10 10 0 0 0-2.9-4.7 8.4 8.4 0 0 0-5.4-1.9 8.5 8.5 0 0 0-6.7 3.3c-.8 1-1.4 2.2-1.7 3.7-.3 1.6-.5 4.6-.5 9 0 4.5.2 7.4.5 9 .3 1.5.9 2.8 1.7 3.8.7.9 1.6 1.6 2.8 2.2 1 .7 2.4 1 4 1 2.5 0 4.6-.9 6.3-2.7 1.7-1.7 2.5-4 2.6-6.8v-2.3h-8.9v-6.4zM1208 1220.4h6.5v38.3h21.1v6.4h-27.7zM1255 1242.7c0-5.2 0-8.6.4-10.4.3-1.8.8-3.2 1.4-4.3a15.2 15.2 0 0 1 13.6-8 15 15 0 0 1 13.5 8c.8 1.1 1.3 2.6 1.6 4.3.2 1.8.3 5.2.3 10.4s0 8.6-.3 10.4c-.3 1.8-.8 3.3-1.6 4.3a15.1 15.1 0 0 1-13.6 8c-3.3 0-6.2-.9-8.4-2.5a14.8 14.8 0 0 1-6.5-9.8c-.3-1.8-.5-5.2-.5-10.4zm6.5 0c0 4.5.1 7.4.4 9 .3 1.5.9 2.8 1.7 3.8.7.9 1.7 1.6 2.8 2.2 1 .7 2.4 1 4 1 1.5 0 2.9-.3 4-1 1.1-.6 2-1.3 2.7-2.2a8 8 0 0 0 1.7-3.8c.3-1.6.5-4.5.5-9 0-4.4-.2-7.4-.5-9a8 8 0 0 0-1.7-3.7c-.7-.9-1.6-1.7-2.6-2.3a9 9 0 0 0-8 0c-1.2.6-2.2 1.4-2.9 2.3-.8 1-1.4 2.2-1.7 3.7-.3 1.6-.4 4.6-.4 9zM1310.6 1220.4h16.7c4.3 0 7.5 1.1 9.7 3.3 2.1 2.2 3.2 5 3.2 8.7 0 1.8-.4 3.6-1.3 5.2-.4.8-1.1 1.6-2 2.3-.8.8-1.8 1.5-3.1 2 0 0 1.3-.5 0 .2 2.4.6 4.2 2 5.4 3.8 1.1 2 1.7 4.2 1.7 6.5 0 3.9-1.2 7-3.5 9.2a11.4 11.4 0 0 1-8.6 3.5h-18.2v-44.7zm6.5 24.9v13.4h10.1c2.5 0 4.3-.7 5.4-2a7 7 0 0 0 1.7-4.7 7 7 0 0 0-1.7-4.7c-1.1-1.3-3-2-5.4-2h-10zm0-19v13h9.5c2.4 0 4.2-.7 5.3-2a6.2 6.2 0 0 0 1.7-4.5c0-1.8-.6-3.3-1.7-4.6-1.1-1.2-2.9-1.8-5.3-1.8h-9.5zM1387 1255.1h-16.5l-3.3 10h-7l15.8-44.7h5.5l15.7 44.7h-7l-3.3-10zm-2-6l-6.2-19.6h-.1l-6.3 19.6h12.6zM1418.9 1220.4h6.5v38.3h21.2v6.4h-27.7zM1500.6 1220.4h6.5v44.7h-6.5zM1532.6 1220.4h6.2l12.4 29.1 12.2-29.1h6.2v44.7h-6.5v-27.9h-.2l-9 21.5h-5.5l-9.1-21.5h-.1v28h-6.6zM1668.2 1255.1h-16.5l-3.3 10h-7l15.8-44.7h5.5l15.8 44.7h-7l-3.3-10zm-1.9-6l-6.3-19.6-6.4 19.6h12.7zM1728.7 1252.6a17 17 0 0 1-5.4 9.6c-2.8 2.2-6 3.3-9.8 3.3-3.4-.1-6.2-1-8.5-2.6a14.6 14.6 0 0 1-6.5-9.8c-.3-1.8-.5-5.2-.5-10.4s.2-8.6.5-10.4c.3-1.7.8-3.2 1.4-4.3a15.1 15.1 0 0 1 13.6-8c4.2 0 7.6 1.3 10.2 3.8a17 17 0 0 1 5 9.4h-7a9.8 9.8 0 0 0-2.8-4.6 8.4 8.4 0 0 0-5.4-1.9 9 9 0 0 0-4 1c-1.1.6-2 1.4-2.7 2.3-.9 1-1.4 2.2-1.7 3.7-.3 1.6-.5 4.6-.5 9 0 4.5.2 7.4.5 9 .3 1.5.8 2.8 1.7 3.8.7.9 1.6 1.6 2.7 2.2 1.1.7 2.5 1 4 1 3.7 0 6.5-2 8.3-6h7zM1756.3 1226.4h-11.8v-6h30.3v6h-11.9v38.7h-6.6zM213.4 1025.5h23.9l23.5 109.8h.4l29-109.8h16.5l29 109.8h.3l23.6-109.8h24L346.2 1180h-19l-28.5-111.4h-.4L269.6 1180h-18.9zM388.9 1102.8c0-18 .5-30 1.5-36.2 1.1-6 2.8-11 5-14.7a52.6 52.6 0 0 1 47-27.7A51.1 51.1 0 0 1 489 1052c2.6 3.7 4.3 8.6 5.3 14.7.9 6.1 1.3 18.1 1.3 36 0 17.7-.4 29.7-1.3 35.9-1 6.2-2.7 11.2-5.3 15a52.2 52.2 0 0 1-46.8 27.8 51.4 51.4 0 0 1-29.4-9 51 51 0 0 1-22.5-33.8c-1-6.2-1.5-18.2-1.5-35.8zm22.6 0c0 15.2.6 25.5 1.7 30.9 1 5.3 2.9 9.7 5.9 13 2.4 3.2 5.5 5.8 9.4 7.8a26 26 0 0 0 13.8 3.5c5.4 0 10.1-1.2 14-3.5 3.8-2 6.9-4.6 9.1-7.8 3-3.3 5-7.7 6.1-13 1-5.4 1.5-15.7 1.5-31 0-15.2-.5-25.5-1.5-31a27.5 27.5 0 0 0-6-13 27.4 27.4 0 0 0-9.1-7.9 30.7 30.7 0 0 0-27.9 0 29 29 0 0 0-9.4 8 26 26 0 0 0-6 12.8c-1 5.6-1.6 16-1.6 31.2zM631.8 1025.5h22.7V1158h73v22h-95.7zM739 1025.5h52.4a50 50 0 0 1 45.6 26c3.7 5.9 6 12 7 18.3a327 327 0 0 1 1 33c0 16.6-.5 28.2-1.7 34.7a40 40 0 0 1-6.7 16.9 53 53 0 0 1-18.3 18c-7.7 5-17.2 7.6-28.4 7.6h-50.8v-154.5zm22.7 132.5H789c12.7 0 22-4.5 27.7-13.5 2.6-3.3 4.2-7.5 4.8-12.6.7-5 1-14.5 1-28.3 0-13.4-.3-23-1-28.9a27 27 0 0 0-5.8-14.1 29.8 29.8 0 0 0-26.7-13s11.5-.3-27.2 0V1158z"/>
    <path fill="#333" d="M901 1025.5h22.6V1180h-22.7zM1020.1 1145.5h-56.7l-11.5 34.5h-24l54.3-154.5h19l54.4 154.5h-23.9l-11.6-34.5zm-6.4-20.8l-21.7-67.6h-.4l-21.7 67.6h43.8z"/>
    <path d="M1101 1025.5h52.3a50 50 0 0 1 45.6 26c3.6 5.9 5.9 12 6.9 18.3a327 327 0 0 1 1 33c0 16.6-.5 28.2-1.7 34.7a39.8 39.8 0 0 1-6.6 16.9 53 53 0 0 1-18.3 18c-7.7 5-17.2 7.6-28.5 7.6H1101v-154.5zm22.6 132.5h27.1c12.8 0 22-4.5 27.8-13.5 2.5-3.3 4.1-7.5 4.8-12.6.6-5 1-14.5 1-28.3 0-13.4-.4-23-1-28.9a27 27 0 0 0-5.9-14.1 29.8 29.8 0 0 0-26.7-13s11.5-.3-27.1 0V1158zM1297 1145.5h-56.8l-11.5 34.5h-24l54.4-154.5h19l54.4 154.5h-24l-11.5-34.5zm-6.5-20.8l-21.7-67.6h-.4l-21.6 67.6h43.7zM1349.1 1116.5l-45-91h24l31.8 68.6 31.7-68.6h24l-45 91v63.5H1349z" fill="#666"/>
    <path d="M1451.6 1159.3l58.6-75.7c2.2-3 3.8-5.8 4.6-8.5.5-2.4.8-4.8.8-7 0-5.8-1.7-10.8-5.2-15.2a19.7 19.7 0 0 0-15.5-6.6 20 20 0 0 0-14.7 5.8c-4 3.9-6.4 9.4-7.2 16.5h-21.4a48.1 48.1 0 0 1 12.5-31.9 39.5 39.5 0 0 1 29.1-12.5c13 .2 23.4 4.4 31.4 12.8a43.7 43.7 0 0 1 12.4 31.5c0 10.1-3 19.2-9 27.1l-48.2 62.4h57.2v22h-85.4v-20.7zM1548.3 1068.6a42.2 42.2 0 0 1 42.4-44.4c11.7 0 21.6 3.8 29.7 11.5a44 44 0 0 1 12.9 33s-.3-14.3 0 68a43.9 43.9 0 0 1-12.9 33 42.7 42.7 0 0 1-58.9 0 42 42 0 0 1-13.2-32.8v-68.3zm63.6 1.3c-.4-15.5-7.5-23.4-21.2-23.6-13.7.2-20.7 8.1-21 23.6 0 0 .3-15.5 0 65.7.3 15.6 7.3 23.5 21 23.7 13.7-.2 20.8-8 21.2-23.7v-65.7zM1667.5 1048.9l-21.3 16v-23.5l21.3-15.9h21.4V1180h-21.4z" fill="#333"/>
    <path d="M1074.1 892l103.5-44.2" fill="#EEE"/>
    <path d="M1602.8 1226.6v14.9h10c2.5 0 4.4-.9 5.6-2.4a8 8 0 0 0 1.8-5c0-1.6-.2-3-.7-4-.5-1-1.2-1.7-2.1-2.2-1.4-1-3-1.3-4.9-1.3h-9.7zm-6.8 39.4v-46h16.2c1.7 0 3.4.2 5 .5 1.7.4 3.3 1.4 5 2.7a11 11 0 0 1 3.4 4.4c1 1.9 1.4 4 1.4 6.6 0 3.4-1.2 6.5-3.5 9.3-2.4 3-5.9 4.5-10.5 4.5h-10.2v18h-6.8zM536.3 1046v47.4h34.8c8.6-.2 15-2.7 19.3-7.7a24.5 24.5 0 0 0 6.4-17.2c-.2-8-2.7-14-7.6-17.6a25.8 25.8 0 0 0-16.9-4.8h-36zm-23 135v-156h59.2c12.6 0 23 3.4 31 10.3a42 42 0 0 1 15 33.2 43.4 43.4 0 0 1-29.3 43.3l35.1 69.2H597l-31.3-66.7h-29.4v66.7h-23z" fill="#666"/>
    <path d="M1701 1081.3V1067a42.2 42.2 0 0 1 13.8-33.4 43.8 43.8 0 0 1 30.5-11.6c12.2 0 22.5 3.9 31 11.6 8.7 7.8 13.1 19 13.4 33.4v69a43.7 43.7 0 0 1-13.4 33.2 45.6 45.6 0 0 1-58.7 2.4 41.4 41.4 0 0 1-15.7-26.1h23c3.5 8.7 10.3 13 20.4 13 14.2 0 21.6-8 22-23.8V1120a94.6 94.6 0 0 1-29.8 4.8 34.6 34.6 0 0 1-26-10.5c-7.1-7-10.6-18-10.5-33zm22.4-13v12.8c.3 15.8 7.6 23.8 22 24 14.1-.2 21.5-8.2 22-24v-12.8c-.5-15.6-7.9-23.6-22-23.9-14.4.3-21.7 8.3-22 24z" fill="#333"/>
    <path fill="#666" d="M1790.8 1258.7h6.2v6.4h-6.2z"/>
  </g>
</svg>
