<?xml version="1.0" encoding="UTF-8"?>
<svg width="2010px" height="1791px" viewBox="0 0 2010 1791" version="1.1" xmlns="http://www.w3.org/2000/svg" xmlns:xlink="http://www.w3.org/1999/xlink">
    <!-- Generator: Sketch 52.1 (67048) - http://www.bohemiancoding.com/sketch -->
    <title>wiad19_secondary_greyscale</title>
    <desc>Created with Sketch.</desc>
    <g id="wiad19_secondary_greyscale" stroke="none" stroke-width="1" fill="none" fill-rule="evenodd">
        <g id="Group" transform="translate(262.000000, 277.000000)">
            <path d="M723.676492,0.936684 L920.215414,54.614952 L1018.58596,131.568948 L1101.73213,270.36072 L1105.61506,417.652956 L1105.61506,417.6711 L1085.13214,530.72334 L1012.79476,645.785784 L923.086022,706.9356 L923.094228,706.943916 L821.877694,750.210552 L884.910964,676.902744 L884.902758,676.898208 L821.877694,750.210552 L728.869398,755.781516 L610.711204,735.273504 L509.536446,678.689928 L419.115278,574.9191 L386.215186,510.902532 L360.394634,385.498008 L370.40297,267.477336 L420.80273,171.915156 L499.256566,89.7939 L578.181874,37.8567 L723.670524,0.936684 L723.676492,0.936684 Z M487.915128,460.506816 L487.906922,460.506816 L508.123522,559.715184 L487.915128,460.506816 Z" id="Combined-shape-119" fill="#FFFFFF"></path>
            <polygon id="" fill="#FFFFFF" points="645.9066 159.363188 616.715 396.617296 815.6192 330.517318"></polygon>
            <polygon id="" fill="#D2D2D2" points="779.1588 592.057408 616.7172 396.619741 815.617 330.515743"></polygon>
            <polygon id="" fill="#F5F5F5" points="814.612 146.578125 815.616112 330.51567 957.74512 290.99486"></polygon>
            <polygon id="" fill="#EFEFEF" points="934.708732 516.595713 815.617045 330.516549 957.746032 290.995622"></polygon>
            <polygon id="" fill="#E1E1E1" points="498.09576 271.03287 487.9165 460.5079 616.71647 396.62021"></polygon>
            <polygon id="" fill="#C5C5C5" points="623.860808 607.312484 487.915023 460.508208 616.715025 396.620736"></polygon>
            <polygon id="" fill="#F3F3F3" points="616.715684 396.618962 498.094868 271.03136 645.9075 159.364854"></polygon>
            <polygon id="" fill="#F0F0F0" points="815.61696 330.51567 645.904419 159.361625 814.613019 146.578125"></polygon>
            <polygon id="" fill="#B6B6B6" points="623.860684 607.312484 616.71504 396.620736 779.156548 592.058236"></polygon>
            <polygon id="" fill="#E6E6E6" points="815.616944 330.515743 779.158652 592.057408 934.708748 516.594818"></polygon>
            <polygon id="" fill="#FFFFFF" points="645.90661 159.363231 688.09823 41.550732 814.61087 146.580013"></polygon>
            <polygon id="" fill="#D9D9D9" points="645.90658 159.363231 544.57333 116.917359 688.098245 41.550732"></polygon>
            <polygon id="" fill="#FAFAFA" points="498.095756 271.0328 544.570864 116.916188 645.908388 159.362072"></polygon>
            <polygon id="" fill="#F0F0F0" points="544.572025 116.91696 578.18027 37.85856 688.097085 41.55032"></polygon>
            <polygon id="" fill="#EFEFEF" points="487.915312 460.50657 418.907038 334.94811 498.094501 271.03154"></polygon>
            <polygon id="" fill="#EFEFEF" points="623.860808 607.312426 487.915023 460.508239 517.985701 608.166494"></polygon>
            <polygon id="" fill="#D5D5D5" points="418.908577 334.946987 431.158774 212.601101 498.09604 271.034342"></polygon>
            <polygon id="" fill="#E5E5E5" points="544.572044 116.916968 431.155496 212.600348 498.09698 271.03358"></polygon>
            <polygon id="" fill="#E5E5E5" points="544.57208 116.91696 499.25544 89.79616 578.18024 37.85856"></polygon>
            <polygon id="" fill="#C7C7C7" points="431.156636 212.599976 499.256588 89.795832 544.573298 116.916492"></polygon>
            <polygon id="" fill="#B3B3B3" points="431.15664 212.599976 420.80664 171.916444 499.25664 89.795832"></polygon>
            <polygon id="" fill="#EFEFEF" points="418.908576 334.946987 370.400396 267.480257 431.158784 212.601101"></polygon>
            <polygon id="" fill="#CCCCCC" points="370.401884 267.478528 420.806024 171.916068 431.156056 212.599323"></polygon>
            <polygon id="" fill="#DCDCDC" points="418.908566 334.946936 415.000219 497.259376 487.917145 460.505336"></polygon>
            <polygon id="" fill="#C8C8C8" points="418.90855 334.946936 360.391996 385.496984 415.000272 497.259376"></polygon>
            <polygon id="" fill="#A6A6A6" points="370.401877 267.478499 360.39353 385.499486 418.910379 334.945192"></polygon>
            <polygon id="" fill="#CCCCCC" points="623.860674 607.312375 740.460649 716.9665 779.156596 592.05825"></polygon>
            <polygon id="" fill="#E5E5E5" points="779.1587 592.05725 884.912855 676.899125 740.46284 716.96575"></polygon>
            <polygon id="" fill="#EFEFEF" points="934.708748 516.5957 779.158652 592.058332 884.912768 676.899858"></polygon>
            <polygon id="" fill="#E6E6E6" points="740.46255 716.966125 821.879035 750.20785 884.912565 676.899475"></polygon>
            <polygon id="" fill="#C7C7C7" points="884.912537 676.898731 934.708103 516.594573 1006.43727 607.615279"></polygon>
            <polygon id="" fill="#EFEFEF" points="934.708644 516.595801 1049.60873 459.966563 1006.43794 607.616474"></polygon>
            <polygon id="" fill="#EFEFEF" points="1049.60931 459.96736 1105.61379 417.66745 957.747086 290.99654"></polygon>
            <polygon id="" fill="#CECECE" points="1049.60936 459.967308 1085.13048 530.721597 1006.43848 607.617219"></polygon>
            <polygon id="" fill="#C2C2C2" points="1105.61502 417.665646 1085.13167 530.724006 1049.61087 459.965802"></polygon>
            <polygon id="" fill="#EFEFEF" points="1006.43727 607.6173 884.912537 676.9007 923.079191 706.9423"></polygon>
            <polygon id="" fill="#C8C8C8" points="923.07947 706.9419 1012.7921 645.7878 1006.43792 607.6169"></polygon>
            <polygon id="" fill="#AEAEAE" points="1085.132 530.723144 1006.43608 607.61908 1012.79448 645.785632"></polygon>
            <polygon id="" fill="#E4E4E4" points="517.985363 608.16865 623.439427 704.839476 623.860472 607.314384"></polygon>
            <polygon id="" fill="#BBBBBB" points="623.437898 704.83829 740.462864 716.96733 623.862934 607.31317"></polygon>
            <polygon id="" fill="#C0C0C0" points="740.46252 716.96612 728.870722 755.77864 821.879116 750.20784"></polygon>
            <polygon id="" fill="#999999" points="623.437898 704.838292 728.871016 755.779832 740.462864 716.967292"></polygon>
            <polygon id="" fill="#BBBBBB" points="623.437956 704.838292 610.708645 735.271552 728.871004 755.779832"></polygon>
            <polygon id="" fill="#C7C7C7" points="623.43788 704.838301 509.53797 678.688265 517.98357 608.167422"></polygon>
            <polygon id="" fill="#DCDCDC" points="509.53797 678.688634 610.708645 735.271984 623.43788 704.838688"></polygon>
            <polygon id="" fill="#BDBDBD" points="414.998712 497.25984 419.11524 574.918288 517.986272 608.168176"></polygon>
            <polygon id="" fill="#AEAEAE" points="419.116226 574.919065 509.537084 678.68983 517.986833 608.168995"></polygon>
            <polygon id="" fill="#CCCCCC" points="414.998736 497.259818 386.215424 510.901628 419.115286 574.918256"></polygon>
            <polygon id="" fill="#E6E6E6" points="386.214485 510.903232 414.9978 497.26159 360.393525 385.499086"></polygon>
            <polygon id="" fill="#E6E6E6" points="814.612 146.578233 945.70384 132.774171 957.74512 290.994912"></polygon>
            <polygon id="" fill="#F3F3F3" points="957.747315 290.995707 1049.27655 277.654017 945.70161 132.774966"></polygon>
            <polygon id="" fill="#FFFFFF" points="1105.61498 417.665689 957.748278 290.994814 1049.27734 277.653253"></polygon>
            <polygon id="" fill="#E1E1E1" points="1049.2756 277.653228 1105.6132 417.665668 1101.74227 270.361564"></polygon>
            <polygon id="" fill="#CACACA" points="945.703203 132.774092 1049.27406 277.65325 1101.74079 270.361572"></polygon>
            <polygon id="" fill="#A9A9A9" points="945.703203 132.77408 1018.59485 131.56994 1101.74079 270.36146"></polygon>
            <polygon id="" fill="#F8F8F8" points="814.612015 146.5782 688.099441 41.549001 806.420261 36.632367"></polygon>
            <polygon id="" fill="#D4D4D4" points="814.6121 146.5782 806.42028 36.632367 945.70376 132.774129"></polygon>
            <polygon id="" fill="#FFFFFF" points="806.42126 36.631567 920.2169 54.614882 945.70446 132.773117"></polygon>
            <polygon id="" fill="#C7C7C7" points="945.703172 132.774139 920.215622 54.615647 1018.59479 131.569942"></polygon>
            <polygon id="" fill="#E9E9E9" points="688.098294 41.548962 723.673225 0.936516 806.419042 36.6324"></polygon>
            <polygon id="" fill="#C7C7C7" points="578.182062 37.85817 723.673836 0.937314 688.0986 41.54997"></polygon>
            <polygon id="" fill="#C2C2C2" points="723.673794 0.9361 806.41938 36.63198 920.215326 54.615275"></polygon>
            <polygon id="" fill="#FCFCFC" points="934.708644 516.595713 1049.60873 459.966477 957.746128 290.995622"></polygon>
            <polygon id="" fill="#FFFFFF" points="517.99324 608.176924 414.98904 497.251937 487.905832 460.501981"></polygon>
            <polygon id="" fill="#FFFFFF" points="884.911912 676.8991 884.912839 676.8991 923.094115 706.939 923.094115 706.94095 821.879105 750.21115"></polygon>
            <polygon id="" fill="#666666" points="45.31291 1194.45188 51.367062 1194.45188 51.367062 1229.86019 70.858794 1229.86019 70.858794 1235.74355 45.31291 1235.74355"></polygon>
            <path d="M88.68076,1215.10036 C88.68076,1210.2961 88.81816,1207.08365 89.08504,1205.45443 C89.38081,1203.82954 89.81827,1202.52114 90.43504,1201.51287 C91.40566,1199.61279 92.95993,1197.91274 95.09329,1196.43358 C97.18894,1194.93362 99.81415,1194.15863 102.96829,1194.11279 C106.1431,1194.15863 108.78898,1194.93362 110.91412,1196.44618 C113.00977,1197.92947 114.53488,1199.62952 115.45564,1201.53786 C116.13898,1202.54612 116.60164,1203.85865 116.86825,1205.47115 C117.09319,1207.10038 117.21814,1210.30022 117.21814,1215.10036 C117.21814,1219.8252 117.09319,1223.0087 116.86825,1224.6753 C116.60164,1226.34189 116.13898,1227.67532 115.45564,1228.67116 C114.53488,1230.5795 113.00977,1232.25439 110.91412,1233.70852 C108.78898,1235.22113 106.1431,1236.01698 102.95977,1236.08776 C99.81415,1236.01698 97.18894,1235.22113 95.09329,1233.70852 C92.95993,1232.25439 91.39744,1230.5795 90.43504,1228.67116 C90.13501,1228.0502 89.87236,1227.44617 89.6392,1226.88773 C89.42248,1226.30452 89.23492,1225.56282 89.08504,1224.6753 C88.81816,1223.0087 88.68076,1219.8252 88.68076,1215.10036 Z M94.73488,1215.10036 C94.73488,1219.1753 94.8808,1221.92119 95.17657,1223.35864 C95.42644,1224.79196 95.95144,1225.97114 96.73906,1226.85037 C97.37257,1227.70856 98.22646,1228.39187 99.26821,1228.92116 C100.29322,1229.54195 101.51404,1229.85865 102.94732,1229.85865 C104.39731,1229.85865 105.64333,1229.54195 106.71001,1228.92116 C107.71408,1228.39187 108.52663,1227.70856 109.13065,1226.85037 C109.91401,1225.96289 110.45572,1224.79196 110.74753,1223.35864 C111.02659,1221.92119 111.16003,1219.1753 111.16003,1215.10036 C111.16003,1211.04198 111.02659,1208.25854 110.74753,1206.78373 C110.45572,1205.38778 109.91401,1204.24613 109.13065,1203.35452 C108.52663,1202.50854 107.71408,1201.79612 106.71001,1201.22116 C105.64333,1200.67532 104.39731,1200.38778 102.94732,1200.34194 C101.51404,1200.38778 100.29322,1200.67532 99.26821,1201.22116 C98.22646,1201.79612 97.37257,1202.50854 96.73906,1203.35452 C95.95144,1204.24613 95.42644,1205.38778 95.17657,1206.78373 C94.8808,1208.25854 94.73488,1211.04198 94.73488,1215.10036 Z" id="Combined-shape-191" fill="#666666"></path>
            <path d="M166.996665,1224.21485 C166.121503,1228.03979 164.44655,1230.97329 161.980042,1233.03566 C159.442368,1235.06909 156.421699,1236.08582 152.946542,1236.08582 C149.809119,1236.01478 147.183923,1235.22328 145.071534,1233.71071 C142.946704,1232.25241 141.388186,1230.57735 140.417266,1228.66901 C140.125729,1228.04826 139.854869,1227.44811 139.625682,1226.88576 C139.400729,1226.30237 139.21742,1225.56497 139.067258,1224.67728 C138.800661,1223.00655 138.663259,1219.82322 138.663259,1215.09821 C138.663259,1210.30237 138.800661,1207.10236 139.067258,1205.469 C139.363348,1203.86063 139.821432,1202.54414 140.417266,1201.53566 C141.388186,1199.62732 142.946704,1197.92732 145.084004,1196.44403 C147.183923,1194.93164 149.809119,1194.15648 152.946542,1194.11494 C156.813228,1194.15648 159.954885,1195.33567 162.396482,1197.65646 C164.825638,1199.98986 166.359216,1202.88578 166.996665,1206.33562 L160.571686,1206.33562 C160.075873,1204.67316 159.175771,1203.25657 157.879906,1202.08563 C156.525664,1200.96075 154.871678,1200.3858 152.929838,1200.33996 C151.496542,1200.3858 150.279992,1200.67317 149.254958,1201.22314 C148.208957,1201.79826 147.371495,1202.50656 146.721576,1203.3565 C145.929992,1204.24832 145.405005,1205.38993 145.159085,1206.78154 C144.863314,1208.26069 144.713152,1211.03978 144.713152,1215.09821 C144.713152,1219.17315 144.863314,1221.91904 145.159085,1223.36079 C145.405005,1224.79411 145.929992,1225.9607 146.721576,1226.85234 C147.371495,1227.70658 148.208957,1228.39402 149.254958,1228.91901 C150.279992,1229.5398 151.504749,1229.85645 152.938335,1229.85645 C156.338092,1229.85645 158.896414,1227.97744 160.571686,1224.21485 L166.996665,1224.21485 Z" id="" fill="#666666"></path>
            <path d="M206.74619,1226.50951 L191.583805,1226.50951 L188.508705,1235.74275 L182.09191,1235.74275 L196.629615,1194.45112 L201.70038,1194.45112 L216.23777,1235.74275 L209.841975,1235.74275 L206.74619,1226.50951 Z M205.021075,1220.96778 L199.233545,1202.90526 L199.121055,1202.90526 L193.333525,1220.96778 L205.021075,1220.96778 Z" id="Combined-shape-193" fill="#666666"></path>
            <polygon id="" fill="#666666" points="236.23868 1194.45188 242.288568 1194.45188 242.288568 1229.86019 261.784564 1229.86019 261.784564 1235.74355 236.23868 1235.74355"></polygon>
            <path d="M338.607021,1224.21485 C337.727886,1228.03979 336.044436,1230.97329 333.577899,1233.03566 C331.040254,1235.06909 328.027792,1236.08582 324.552954,1236.08582 C321.407005,1236.01478 318.782128,1235.22328 316.686153,1233.71071 C314.540327,1232.25241 312.990306,1230.57735 312.019386,1228.66901 C311.736085,1228.04826 311.465225,1227.44811 311.223568,1226.88576 C311.011085,1226.30237 310.827776,1225.56497 310.677904,1224.67728 C310.398547,1223.00655 310.261145,1219.82322 310.261145,1215.09821 C310.261145,1210.30237 310.398547,1207.10236 310.677904,1205.469 C310.977938,1203.86063 311.419637,1202.54414 312.019386,1201.53566 C312.990306,1199.62732 314.540327,1197.92732 316.686153,1196.44403 C318.782128,1194.93164 321.407005,1194.15648 324.561161,1194.11494 C328.415348,1194.15648 331.561297,1195.33567 333.994368,1197.65646 C336.423495,1199.98986 337.957102,1202.88578 338.607021,1206.33562 L332.173516,1206.33562 C331.673759,1204.67316 330.77792,1203.25657 329.482026,1202.08563 C328.123521,1200.96075 326.482034,1200.3858 324.536221,1200.33996 C323.106898,1200.3858 321.877878,1200.67317 320.848581,1201.22314 C319.806843,1201.79826 318.969381,1202.50656 318.327959,1203.3565 C317.536085,1204.24832 317.019624,1205.38993 316.756971,1206.78154 C316.4612,1208.26069 316.323798,1211.03978 316.323798,1215.09821 C316.323798,1219.17315 316.4612,1221.91904 316.756971,1223.36079 C317.019624,1224.79411 317.536085,1225.9607 318.327959,1226.85234 C318.969381,1227.70658 319.806843,1228.39402 320.848581,1228.91901 C321.877878,1229.5398 323.106898,1229.85645 324.536221,1229.85645 C327.948738,1229.85645 330.494619,1227.97744 332.182013,1224.21485 L338.607021,1224.21485 Z" id="" fill="#666666"></path>
            <path d="M357.145754,1215.10036 C357.145754,1210.2961 357.274949,1207.08365 357.549753,1205.45443 C357.845843,1203.82954 358.283279,1202.52114 358.887291,1201.51287 C359.853948,1199.61279 361.412495,1197.91274 363.558292,1196.43358 C365.650004,1194.93362 368.27491,1194.15863 371.42083,1194.11279 C374.608104,1194.15863 377.253977,1194.93362 379.379126,1196.44618 C381.474811,1197.92947 382.991685,1199.62952 383.920642,1201.53786 C384.595791,1202.54612 385.066664,1203.85865 385.316557,1205.47115 C385.558214,1207.10038 385.679202,1210.30022 385.679202,1215.10036 C385.679202,1219.8252 385.558214,1223.0087 385.316557,1224.6753 C385.066664,1226.34189 384.595791,1227.67532 383.920642,1228.67116 C382.991685,1230.5795 381.474811,1232.25439 379.379126,1233.70852 C377.253977,1235.22113 374.595634,1236.01698 371.42083,1236.08776 C368.27491,1236.01698 365.650004,1235.22113 363.558292,1233.70852 C361.412495,1232.25439 359.853948,1230.5795 358.887291,1228.67116 C358.60399,1228.0502 358.33313,1227.44617 358.0875,1226.88773 C357.87899,1226.30452 357.699944,1225.56282 357.549753,1224.6753 C357.274949,1223.0087 357.145754,1219.8252 357.145754,1215.10036 Z M363.195647,1215.10036 C363.195647,1219.1753 363.345809,1221.92119 363.629139,1223.35864 C363.887529,1224.79196 364.412487,1225.97114 365.204071,1226.85037 C365.837257,1227.70856 366.675038,1228.39187 367.720749,1228.92116 C368.750046,1229.54195 369.979037,1229.85865 371.412333,1229.85865 C372.849863,1229.85865 374.104113,1229.54195 375.170791,1228.92116 C376.174829,1228.39187 376.983146,1227.70856 377.595655,1226.85037 C378.379032,1225.96289 378.91646,1224.79196 379.208287,1223.35864 C379.483091,1221.92119 379.620812,1219.1753 379.620812,1215.10036 C379.620812,1211.04198 379.483091,1208.25854 379.208287,1206.78373 C378.91646,1205.38778 378.379032,1204.24613 377.595655,1203.35452 C376.983146,1202.50854 376.174829,1201.79612 375.170791,1201.22116 C374.104113,1200.67532 372.849863,1200.38778 371.412333,1200.34194 C369.979037,1200.38778 368.750046,1200.67532 367.720749,1201.22116 C366.675038,1201.79612 365.837257,1202.50854 365.204071,1203.35452 C364.412487,1204.24613 363.887529,1205.38778 363.629139,1206.78373 C363.345809,1208.25854 363.195647,1211.04198 363.195647,1215.10036 Z" id="Combined-shape-196" fill="#666666"></path>
            <polygon id="" fill="#666666" points="408.484065 1194.45188 414.184066 1194.45188 432.309084 1223.8187 432.40909 1223.8187 432.40909 1194.45188 438.467482 1194.45188 438.467482 1235.74355 432.729785 1235.74355 414.64671 1206.39777 414.533932 1206.39777 414.533932 1235.74355 408.484065 1235.74355"></polygon>
            <polygon id="" fill="#666666" points="462.772799 1194.45188 468.4728 1194.45188 486.597818 1223.8187 486.697855 1223.8187 486.697855 1194.45188 492.756247 1194.45188 492.756247 1235.74355 487.01855 1235.74355 468.935475 1206.39777 468.822697 1206.39777 468.822697 1235.74355 462.772799 1235.74355"></polygon>
            <polygon id="" fill="#666666" points="517.000442 1194.45188 542.54604 1194.45188 542.54604 1200.34372 523.058546 1200.34372 523.058546 1212.1645 539.691916 1212.1645 539.691916 1217.71034 523.058546 1217.71034 523.058546 1229.86019 542.54604 1229.86019 542.54604 1235.74355 517.000442 1235.74355"></polygon>
            <path d="M590.85268,1224.21485 C589.973574,1228.03979 588.290414,1230.97329 585.823587,1233.03566 C583.286232,1235.06909 580.265244,1236.08582 576.79435,1236.08582 C573.652664,1236.01478 571.027787,1235.22328 568.927868,1233.71071 C566.790249,1232.25241 565.236284,1230.57735 564.261101,1228.66901 C563.982034,1228.04826 563.70694,1227.44811 563.469517,1226.88576 C563.257034,1226.30237 563.069491,1225.56497 562.923563,1224.67728 C562.648759,1223.00655 562.507123,1219.82322 562.507123,1215.09821 C562.507123,1210.30237 562.648759,1207.10236 562.923563,1205.469 C563.21539,1203.86063 563.665296,1202.54414 564.261101,1201.53566 C565.236284,1199.62732 566.790249,1197.92732 568.927868,1196.44403 C571.027787,1194.93164 573.652664,1194.15648 576.802847,1194.11494 C580.657063,1194.15648 583.811219,1195.33567 586.240346,1197.65646 C588.673736,1199.98986 590.202761,1202.88578 590.85268,1206.33562 L584.415231,1206.33562 C583.919418,1204.67316 583.019635,1203.25657 581.731948,1202.08563 C580.369499,1200.96075 578.727693,1200.3858 576.786143,1200.33996 C575.352847,1200.3858 574.123537,1200.67317 573.098503,1201.22314 C572.052821,1201.79826 571.21533,1202.50656 570.573618,1203.3565 C569.7778,1204.24832 569.26102,1205.38993 569.006893,1206.78154 C568.711122,1208.26069 568.569457,1211.03978 568.569457,1215.09821 C568.569457,1219.17315 568.711122,1221.91904 569.006893,1223.36079 C569.26102,1224.79411 569.7778,1225.9607 570.573618,1226.85234 C571.21533,1227.70658 572.052821,1228.39402 573.098503,1228.91901 C574.123537,1229.5398 575.352847,1229.85645 576.786143,1229.85645 C580.194397,1229.85645 582.740278,1227.97744 584.423728,1224.21485 L590.85268,1224.21485 Z" id="" fill="#666666"></path>
            <polygon id="" fill="#666666" points="616.381833 1199.9981 605.411075 1199.9981 605.411075 1194.4523 633.407066 1194.4523 633.407066 1199.9981 622.436279 1199.9981 622.436279 1235.74393 616.381833 1235.74393"></polygon>
            <polygon id="" fill="#666666" points="653.198219 1194.45326 659.252358 1194.45326 659.252358 1235.74493 653.198219 1235.74493"></polygon>
            <path d="M681.405478,1215.10036 C681.405478,1210.2961 681.534354,1207.08365 681.817684,1205.45443 C682.105248,1203.82954 682.551181,1202.52114 683.159456,1201.51287 C684.121879,1199.61279 685.676134,1197.91274 687.826223,1196.43358 C689.917935,1194.93362 692.547075,1194.15863 695.688761,1194.11279 C698.863565,1194.15863 701.513701,1194.93362 703.638531,1196.44618 C705.738769,1197.92947 707.259587,1199.62952 708.188573,1201.53786 C708.863722,1202.54612 709.334595,1203.85865 709.584459,1205.47115 C709.826116,1207.10038 709.942841,1210.30022 709.942841,1215.10036 C709.942841,1219.8252 709.826116,1223.0087 709.584459,1224.6753 C709.326069,1226.34189 708.863722,1227.67532 708.188573,1228.67116 C707.259587,1230.5795 705.738769,1232.25439 703.638531,1233.70852 C701.513701,1235.22113 698.863565,1236.01698 695.688761,1236.08776 C692.547075,1236.01698 689.917935,1235.22113 687.826223,1233.70852 C685.676134,1232.25439 684.121879,1230.5795 683.159456,1228.67116 C682.859422,1228.0502 682.605295,1227.44617 682.359375,1226.88773 C682.142948,1226.30452 681.967846,1225.56282 681.817684,1224.6753 C681.534354,1223.0087 681.405478,1219.8252 681.405478,1215.10036 Z M687.451108,1215.10036 C687.451108,1219.1753 687.605214,1221.92119 687.897041,1223.35864 C688.159375,1224.79196 688.671892,1225.97114 689.463766,1226.85037 C690.105188,1227.70856 690.946913,1228.39187 691.992914,1228.92116 C693.017948,1229.54195 694.246968,1229.85865 695.667765,1229.85865 C697.117794,1229.85865 698.372015,1229.54195 699.438693,1228.92116 C700.44276,1228.39187 701.251048,1227.70856 701.855379,1226.85037 C702.642671,1225.96289 703.180418,1224.79196 703.480452,1223.35864 C703.751022,1221.92119 703.880188,1219.1753 703.880188,1215.10036 C703.880188,1211.04198 703.751022,1208.25854 703.480452,1206.78373 C703.180418,1205.38778 702.642671,1204.24613 701.855379,1203.35452 C701.251048,1202.50854 700.44276,1201.79612 699.438693,1201.22116 C698.372015,1200.67532 697.117794,1200.38778 695.667765,1200.34194 C694.246968,1200.38778 693.017948,1200.67532 691.992914,1201.22116 C690.946913,1201.79612 690.105188,1202.50854 689.463766,1203.35452 C688.671892,1204.24613 688.159375,1205.38778 687.897041,1206.78373 C687.605214,1208.25854 687.451108,1211.04198 687.451108,1215.10036 Z" id="Combined-shape-203" fill="#666666"></path>
            <polygon id="" fill="#666666" points="732.755625 1194.45188 738.451658 1194.45188 756.568182 1223.8187 756.676682 1223.8187 756.676682 1194.45188 762.734795 1194.45188 762.734795 1235.74355 757.001655 1235.74355 738.91827 1206.39777 738.805802 1206.39777 738.805802 1235.74355 732.755625 1235.74355"></polygon>
            <path d="M787.47573,1225.74492 C790.66755,1228.45736 794.45061,1229.82399 798.84228,1229.85744 C804.03828,1229.78662 806.67564,1227.8616 806.74647,1224.10744 C806.78811,1221.03234 805.0548,1219.17413 801.5298,1218.54492 C799.92171,1218.32815 798.15891,1218.0699 796.23408,1217.79078 C792.79665,1217.1948 790.17996,1215.8907 788.39253,1213.84902 C786.53823,1211.7532 785.62173,1209.19478 785.62173,1206.19067 C785.62173,1202.59075 786.78414,1199.68654 789.10476,1197.46154 C791.35059,1195.27409 794.52996,1194.15742 798.66324,1194.11576 C803.63823,1194.24063 807.95085,1195.66156 811.62996,1198.3866 L808.24662,1203.5282 C805.25907,1201.48239 801.95082,1200.42828 798.34254,1200.34074 C796.47576,1200.34074 794.92149,1200.83661 793.67577,1201.79491 C792.38415,1202.79905 791.709,1204.2908 791.68407,1206.27405 C791.68407,1207.46154 792.1215,1208.54079 793.02159,1209.50322 C793.91742,1210.48237 795.34647,1211.16569 797.32569,1211.5449 C798.42582,1211.73238 799.92171,1211.9491 801.82587,1212.20323 C805.58403,1212.72409 808.35087,1214.10745 810.14226,1216.36159 C811.91328,1218.57403 812.80911,1221.14895 812.80911,1224.0699 C812.59662,1231.96565 807.92562,1235.97819 798.76749,1236.08659 C792.855,1236.08659 787.75902,1234.21562 783.50082,1230.44912 L787.47573,1225.74492 Z" id="" fill="#666666"></path>
            <polygon id="" fill="#666666" points="834.531482 1229.85744 840.252449 1229.85744 840.252449 1235.74493 834.531482 1235.74493"></polygon>
            <path d="M904.86662,1213.03743 L919.09154,1213.03743 L919.09154,1221.44578 C919.02071,1225.57481 917.63729,1229.02896 914.98319,1231.82065 C912.28748,1234.59153 908.91233,1236.01655 904.83317,1236.08737 C901.69151,1236.01655 899.0666,1235.22075 896.96669,1233.70814 C894.82481,1232.25396 893.2748,1230.57911 892.29992,1228.67077 C892.01663,1228.04981 891.75002,1227.44574 891.5123,1226.88735 C891.2831,1226.30397 891.10832,1225.56239 890.95814,1224.67491 C890.6873,1223.0081 890.5499,1219.82481 890.5499,1215.0998 C890.5499,1210.29984 890.6873,1207.09978 890.95814,1205.47077 C891.24998,1203.85827 891.70412,1202.54569 892.29992,1201.53747 C893.2748,1199.62913 894.82481,1197.92908 896.96669,1196.4458 C899.0666,1194.93319 901.69151,1194.15824 904.83317,1194.1124 C908.69561,1194.15824 911.84153,1195.33743 914.27066,1197.67061 C916.69979,1199.99988 918.23339,1202.89563 918.8666,1206.35412 L912.44585,1206.35412 C911.94578,1204.67905 911.04995,1203.25816 909.76226,1202.0874 C908.40407,1200.9623 906.75404,1200.38739 904.8125,1200.34155 C903.37892,1200.38739 902.16239,1200.67493 901.14161,1201.2249 C900.09164,1201.79573 899.25416,1202.50815 898.61672,1203.35413 C897.82088,1204.24987 897.29987,1205.39152 897.04571,1206.78313 C896.74568,1208.26246 896.60828,1211.04159 896.60828,1215.0998 C896.60828,1219.17491 896.74568,1221.9208 897.04571,1223.36238 C897.29987,1224.79157 897.82088,1225.96229 898.61672,1226.84976 C899.25416,1227.70817 900.09164,1228.39149 901.14161,1228.92077 C902.16239,1229.54156 903.39563,1229.85822 904.82498,1229.85822 C907.18328,1229.85822 909.12908,1229.02896 910.67909,1227.36649 C912.20813,1225.76247 913.00001,1223.6749 913.04165,1221.08325 L913.04165,1218.92491 L904.86662,1218.92491 L904.86662,1213.03743 Z" id="" fill="#666666"></path>
            <polygon id="" fill="#666666" points="941.894564 1194.45188 947.948693 1194.45188 947.948693 1229.86019 967.436186 1229.86019 967.436186 1235.74355 941.894564 1235.74355"></polygon>
            <path d="M985.254504,1215.10036 C985.254504,1210.2961 985.391906,1207.08365 985.671263,1205.45443 C985.958508,1203.82954 986.408733,1202.52114 987.012745,1201.51287 C987.979402,1199.61279 989.533686,1197.91274 991.675249,1196.43358 C993.775458,1194.93362 996.404627,1194.15863 999.546284,1194.11279 C1002.71682,1194.15863 1005.37517,1194.93362 1007.50032,1196.44618 C1009.59629,1197.92947 1011.10861,1199.62952 1012.0461,1201.53786 C1012.71698,1202.54612 1013.19212,1203.85865 1013.44624,1205.47115 C1013.6794,1207.10038 1013.80434,1210.30022 1013.80434,1215.10036 C1013.80434,1219.8252 1013.6794,1223.0087 1013.44624,1224.6753 C1013.19212,1226.34189 1012.71698,1227.67532 1012.0461,1228.67116 C1011.10861,1230.5795 1009.59629,1232.25439 1007.50032,1233.70852 C1005.37517,1235.22113 1002.71682,1236.01698 999.546284,1236.08776 C996.404627,1236.01698 993.775458,1235.22113 991.675249,1233.70852 C989.533686,1232.25439 987.979402,1230.5795 987.012745,1228.67116 C986.721208,1228.0502 986.458584,1227.44617 986.216898,1226.88773 C986.004415,1226.30452 985.816872,1225.56282 985.671263,1224.6753 C985.391906,1223.0087 985.254504,1219.8252 985.254504,1215.10036 Z M991.316838,1215.10036 C991.316838,1219.1753 991.454559,1221.92119 991.754593,1223.35864 C992.00872,1224.79196 992.529444,1225.97114 993.320999,1226.85037 C993.958767,1227.70856 994.800202,1228.39187 995.84194,1228.92116 C996.871237,1229.54195 998.096284,1229.85865 999.537787,1229.85865 C1000.97532,1229.85865 1002.22957,1229.54195 1003.29624,1228.92116 C1004.29602,1228.39187 1005.10463,1227.70856 1005.71685,1226.85037 C1006.50022,1225.96289 1007.03371,1224.79196 1007.33374,1223.35864 C1007.60855,1221.92119 1007.75021,1219.1753 1007.75021,1215.10036 C1007.75021,1211.04198 1007.60855,1208.25854 1007.33374,1206.78373 C1007.03371,1205.38778 1006.50022,1204.24613 1005.71685,1203.35452 C1005.10463,1202.50854 1004.29602,1201.79612 1003.29624,1201.22116 C1002.22957,1200.67532 1000.97532,1200.38778 999.537787,1200.34194 C998.096284,1200.38778 996.871237,1200.67532 995.84194,1201.22116 C994.800202,1201.79612 993.958767,1202.50854 993.320999,1203.35452 C992.529444,1204.24613 992.00872,1205.38778 991.754593,1206.78373 C991.454559,1208.25854 991.316838,1211.04198 991.316838,1215.10036 Z" id="Combined-shape-209" fill="#666666"></path>
            <path d="M1036.60523,1194.45289 L1052.10538,1194.45289 C1056.03042,1194.49438 1058.98879,1195.51956 1060.97196,1197.51523 C1062.96368,1199.54022 1063.94707,1202.21524 1063.94707,1205.53606 C1063.98871,1207.2237 1063.59686,1208.85275 1062.77611,1210.40272 C1062.3554,1211.14033 1061.75107,1211.8445 1060.97196,1212.49869 C1060.1804,1213.19854 1059.20948,1213.8319 1058.05525,1214.39856 C1058.05525,1214.39856 1059.20948,1213.8319 1058.05525,1214.51519 C1060.23452,1215.09034 1061.88879,1216.27781 1063.00532,1218.04865 C1064.05527,1219.87771 1064.58452,1221.87771 1064.58452,1224.01954 C1064.54287,1227.59861 1063.45946,1230.41526 1061.33463,1232.49867 C1059.23045,1234.66528 1056.60128,1235.74456 1053.4511,1235.74456 C1053.4511,1235.74456 1056.60128,1235.74456 1036.60523,1235.74456 L1036.60523,1194.45289 Z M1042.65939,1217.41941 L1042.65939,1229.85704 L1052.0011,1229.85704 C1054.25544,1229.82361 1055.90943,1229.18201 1056.95543,1227.95696 C1058.00114,1226.74454 1058.52613,1225.30277 1058.52613,1223.64028 C1058.52613,1221.94025 1058.00114,1220.48197 1056.95543,1219.26523 C1055.90943,1218.07776 1054.25544,1217.457 1052.0011,1217.41941 L1042.65939,1217.41941 Z M1042.65939,1199.99869 L1042.65939,1211.87772 L1051.42203,1211.87772 C1053.63046,1211.87772 1055.24704,1211.28607 1056.29701,1210.08621 C1057.36369,1208.99022 1057.89686,1207.60687 1057.89686,1205.92787 C1057.89686,1204.26522 1057.36369,1202.84037 1056.29701,1201.68201 C1055.24704,1200.60274 1053.63046,1200.05279 1051.42203,1199.99869 L1042.65939,1199.99869 Z" id="Combined-shape-210" fill="#666666"></path>
            <path d="M1107.07627,1226.50951 L1091.90962,1226.50951 L1088.84271,1235.74275 L1082.42196,1235.74275 L1096.95939,1194.45112 L1102.03043,1194.45112 L1116.56359,1235.74275 L1110.18025,1235.74275 L1107.07627,1226.50951 Z M1105.34689,1220.96778 L1099.56786,1202.90526 L1099.45538,1202.90526 L1093.66784,1220.96778 L1105.34689,1220.96778 Z" id="Combined-shape-211" fill="#666666"></path>
            <polygon id="" fill="#666666" points="1136.5724 1194.45188 1142.62656 1194.45188 1142.62656 1229.86019 1162.1265 1229.86019 1162.1265 1235.74355 1136.5724 1235.74355"></polygon>
            <polygon id="" fill="#666666" points="1211.96066 1194.45326 1218.02332 1194.45326 1218.02332 1235.74493 1211.96066 1235.74493"></polygon>
            <polygon id="" fill="#666666" points="1241.52825 1194.45188 1247.23248 1194.45188 1258.69908 1221.37694 1269.94493 1194.45188 1275.67412 1194.45188 1275.67412 1235.74355 1269.61999 1235.74355 1269.61999 1210.00616 1269.4823 1210.00616 1261.11149 1229.83108 1256.06173 1229.83108 1247.69487 1210.00616 1247.58238 1210.00616 1247.58238 1235.74355 1241.52825 1235.74355"></polygon>
            <path d="M1366.61785,1226.50951 L1351.45544,1226.50951 L1348.38032,1235.74275 L1341.96779,1235.74275 L1356.5052,1194.45112 L1361.57627,1194.45112 L1376.11368,1235.74275 L1369.71785,1235.74275 L1366.61785,1226.50951 Z M1364.89273,1220.96778 L1359.10944,1202.90526 L1359.00122,1202.90526 L1353.20944,1220.96778 L1364.89273,1220.96778 Z" id="Combined-shape-216" fill="#666666"></path>
            <path d="M1422.50981,1224.21485 C1421.63068,1228.03979 1419.96393,1230.97329 1417.49316,1233.03566 C1414.94334,1235.06909 1411.93908,1236.08582 1408.46392,1236.08582 C1405.31406,1236.01478 1402.68915,1235.22328 1400.59318,1233.71071 C1398.44735,1232.25241 1396.8931,1230.57735 1395.93494,1228.66901 C1395.63917,1228.04826 1395.36831,1227.44811 1395.13486,1226.88576 C1394.92237,1226.30237 1394.7348,1225.56497 1394.58919,1224.67728 C1394.30163,1223.00655 1394.17243,1219.82322 1394.17243,1215.09821 C1394.17243,1210.30237 1394.3141,1207.10236 1394.58919,1205.469 C1394.88073,1203.86063 1395.3224,1202.54414 1395.93494,1201.53566 C1396.8931,1199.62732 1398.45588,1197.92732 1400.59318,1196.44403 C1402.70162,1194.93164 1405.32227,1194.15648 1408.46392,1194.11494 C1412.33061,1194.15648 1415.47227,1195.33567 1417.90171,1197.65646 C1420.33905,1199.98986 1421.8766,1202.88578 1422.50981,1206.33562 L1416.08086,1206.33562 C1415.59325,1204.67316 1414.69742,1203.25657 1413.38908,1202.08563 C1412.02663,1200.96075 1410.3848,1200.3858 1408.44751,1200.33996 C1407.01392,1200.3858 1405.79314,1200.67317 1404.7599,1201.22314 C1403.72666,1201.79826 1402.87246,1202.50656 1402.23896,1203.3565 C1401.45164,1204.24832 1400.92665,1205.38993 1400.66826,1206.78154 C1400.37643,1208.26069 1400.23082,1211.03978 1400.23082,1215.09821 C1400.23082,1219.17315 1400.37643,1221.91904 1400.66826,1223.36079 C1400.92665,1224.79411 1401.45164,1225.9607 1402.23896,1226.85234 C1402.87246,1227.70658 1403.72666,1228.39402 1404.76811,1228.91901 C1405.79314,1229.5398 1407.01392,1229.85645 1408.44751,1229.85645 C1411.85579,1229.85645 1414.40559,1227.97744 1416.08907,1224.21485 L1422.50981,1224.21485 Z" id="" fill="#666666"></path>
            <polygon id="" fill="#666666" points="1447.99001 1199.9981 1437.01894 1199.9981 1437.01894 1194.4523 1465.01067 1194.4523 1465.01067 1199.9981 1454.03991 1199.9981 1454.03991 1235.74393 1447.99001 1235.74393"></polygon>
            <polygon id="" fill="#666666" points="1479.76483 1229.85744 1485.47333 1229.85744 1485.47333 1235.74493 1479.76483 1235.74493"></polygon>
            <polygon id="" fill="#666666" points="0.748587 858.532896 42.886179 858.532896 84.302876 1052.0828 85.027684 1052.0828 136.207015 858.532896 165.144553 858.532896 216.144488 1052.0828 216.869597 1052.0828 258.469603 858.532896 300.611108 858.532896 234.773679 1130.79525 201.319335 1130.79525 151.040295 934.436997 150.315186 934.436997 99.852837 1130.79525 66.577889 1130.79525"></polygon>
            <polygon id="" fill="#333333" points="318.948084 858.53235 358.877246 858.53235 358.877246 1130.7947 318.948084 1130.7947"></polygon>
            <path d="M528.974024,1069.90233 L428.961566,1069.90233 L408.707446,1130.79389 L366.382392,1130.79389 L462.240744,858.531531 L495.69914,858.531531 L591.553424,1130.79389 L549.415724,1130.79389 L528.974024,1069.90233 Z M517.582268,1033.33589 L479.419908,914.227353 L478.6949,914.227353 L440.536608,1033.33589 L517.582268,1033.33589 Z" id="Combined-shape-222" fill="#333333"></path>
            <path d="M603.357012,858.53235 L695.631924,858.53235 C731.331996,858.786513 758.115416,874.094715 775.969588,904.469787 C782.348804,914.678076 786.386292,925.386501 788.069456,936.586599 C789.39448,947.790519 790.061128,967.153044 790.061128,994.661616 C790.061128,1023.91985 789.032204,1044.3367 786.982064,1055.91162 C786.019692,1061.76583 784.569648,1066.99488 782.640204,1071.59902 C780.590252,1076.0825 778.11542,1080.74889 775.227928,1085.60338 C767.50282,1098.4281 756.769336,1109.01149 743.023528,1117.34918 C729.394468,1126.3115 712.686344,1130.7947 692.911188,1130.7947 C692.911188,1130.7947 712.686344,1130.7947 603.357012,1130.7947 L603.357012,858.53235 Z M643.286144,1091.97001 L691.09868,1091.97001 C713.5487,1091.97001 729.848676,1084.04891 739.990336,1068.20318 C744.45684,1062.34487 747.294512,1054.92009 748.502788,1045.93648 C749.586232,1037.07817 750.131996,1020.49069 750.131996,996.161478 C750.131996,972.457434 749.586232,955.494852 748.502788,945.261447 C747.052932,935.03241 743.611216,926.736486 738.181964,920.373948 C727.06966,904.532304 711.378052,896.86155 691.09868,897.357318 C691.09868,897.357318 711.378052,896.86155 643.286144,897.357318 L643.286144,1091.97001 Z" id="Combined-shape-223" fill="#666666"></path>
            <path d="M878.452849,1094.19978 L981.631904,960.97905 C985.619512,955.61655 988.34023,950.628875 989.790283,946.01245 C990.756834,941.645725 991.240185,937.528975 991.240185,933.65835 C991.240185,923.4333 988.156916,914.5123 981.990378,906.903875 C975.582089,899.295725 966.506838,895.366525 954.777762,895.11655 C944.377788,895.11655 935.727904,898.549925 928.835962,905.408425 C921.698796,912.2705 917.465209,921.9373 916.140486,934.4124 L878.452849,934.4124 C879.415323,911.79145 886.777781,893.0832 900.544602,878.2915 C914.423616,863.8749 931.502924,856.541475 951.790378,856.2915 C974.481903,856.541475 992.894541,864.016525 1007.01938,878.720775 C1021.38205,893.2999 1028.68622,911.8041 1028.92359,934.228975 C1028.92359,952.17465 1023.61972,968.1208 1012.99883,982.07485 L928.111011,1091.97062 L1028.92359,1091.97062 L1028.92359,1130.79567 L878.452849,1130.79567 L878.452849,1094.19978 Z" id="" fill="#333333"></path>
            <path d="M1049.83578,934.41407 C1050.08146,909.305666 1057.86914,889.976604 1073.1982,876.426606 C1087.55649,863.0056 1104.69393,856.29329 1124.61491,856.29329 C1145.13173,856.29329 1162.57329,863.01394 1176.93566,876.459966 C1191.53992,890.030536 1199.08147,909.389066 1199.56905,934.535 C1199.56905,934.535 1199.08147,909.389066 1199.56905,1054.6057 C1199.08147,1079.62654 1191.53992,1098.92669 1176.93566,1112.49336 C1162.57329,1125.93911 1145.13173,1132.78486 1124.61491,1133.03506 C1104.69393,1132.78486 1087.55649,1125.95162 1073.1982,1112.52645 C1057.86914,1098.98062 1050.08146,1079.71411 1049.83578,1054.7308 L1049.83578,934.41407 Z M1161.88141,936.843234 C1161.15253,909.526398 1148.73142,895.618058 1124.61491,895.114044 C1100.37307,895.618058 1088.0107,909.526398 1087.52312,936.843234 C1087.52312,936.843234 1088.0107,909.526398 1087.52312,1052.48484 C1088.0107,1080.05577 1100.37307,1093.96411 1124.61491,1094.20986 C1148.73142,1093.96411 1161.15253,1080.05577 1161.88141,1052.48484 L1161.88141,936.843234 Z" id="Combined-shape-225" fill="#333333"></path>
            <polygon id="" fill="#333333" points="1259.92871 899.696928 1222.41618 928.080192 1222.41618 886.559349 1259.92871 858.534534 1297.61628 858.534534 1297.61628 1130.79279 1259.92871 1130.79279"></polygon>
            <path d="M822.39525,750.040825 L923.065782,706.726345" id="" fill="#EEEEEE"></path>
            <path d="M1306.25879,1199.91895 L1306.25879,1213.25781 L1315.51953,1213.25781 C1317.84181,1213.22005 1319.58821,1212.50261 1320.75879,1211.10547 C1321.87273,1209.74609 1322.42969,1208.23569 1322.42969,1206.57422 C1322.42969,1205.19596 1322.20313,1204.03484 1321.75,1203.09082 C1321.27799,1202.24121 1320.61719,1201.57097 1319.76758,1201.08008 C1318.48372,1200.26823 1316.9922,1199.88118 1315.29297,1199.91895 L1306.25879,1199.91895 Z M1300,1235.29102 L1300,1194 L1314.95312,1194 C1316.57683,1194 1318.14387,1194.15104 1319.6543,1194.45312 C1321.16472,1194.84961 1322.694,1195.66145 1324.24219,1196.88867 C1325.54493,1197.81381 1326.60221,1199.13541 1327.41406,1200.85352 C1328.26368,1202.51498 1328.68848,1204.4785 1328.68848,1206.74414 C1328.68848,1209.80275 1327.61232,1212.58755 1325.45996,1215.09863 C1323.25097,1217.74188 1320.02248,1219.10124 1315.77441,1219.17676 L1306.25879,1219.17676 L1306.25879,1235.29102 L1300,1235.29102 Z" id="P" fill="#666666"></path>
            <path d="M1318.00744,959.868421 L1318.00744,935.184211 C1318.26056,910.377069 1326.42333,891.280769 1342.49601,877.894737 C1357.55623,864.631513 1375.52698,858 1396.40881,858 C1417.92341,858 1436.21055,864.631513 1451.27077,877.894737 C1466.58411,891.280769 1474.49377,910.377069 1475,935.184211 L1475,1053.63158 C1474.49377,1078.31591 1466.58411,1097.35081 1451.27077,1110.73684 C1436.21055,1124.00007 1417.92341,1130.75438 1396.40881,1131 C1378.05811,1130.75438 1361.73257,1125.35093 1347.43168,1114.78947 C1333.00424,1104.47363 1323.70248,1089.55273 1319.52612,1070.02632 L1360.34038,1070.02632 C1366.54165,1085.00885 1378.56434,1092.5 1396.40881,1092.5 C1421.59355,1092.25438 1434.5654,1078.56154 1435.32474,1051.42105 L1435.32474,1026.18421 C1416.46782,1031.95617 1398.87673,1034.7193 1382.55094,1034.47368 C1364.57991,1034.7193 1349.26681,1028.70182 1336.61116,1016.42105 C1323.95551,1004.50871 1317.75433,985.658024 1318.00744,959.868421 Z M1357.68271,937.578947 L1357.68271,959.5 C1358.18894,986.640487 1371.09751,1000.33333 1396.40881,1000.57895 C1421.59355,1000.33333 1434.5654,986.640487 1435.32474,959.5 L1435.32474,937.578947 C1434.5654,910.684076 1421.59355,896.991231 1396.40881,896.5 C1371.09751,896.991231 1358.18894,910.684076 1357.68271,937.578947 Z" id="9" fill="#333333"></path>
        </g>
    </g>
</svg>