<?xml version="1.0" encoding="UTF-8"?>
<svg width="2010px" height="1791px" viewBox="0 0 2010 1791" version="1.1" xmlns="http://www.w3.org/2000/svg" xmlns:xlink="http://www.w3.org/1999/xlink">
    <!-- Generator: Sketch 52.1 (67048) - http://www.bohemiancoding.com/sketch -->
    <title>wiad19_secondary_greyscale_dark</title>
    <desc>Created with Sketch.</desc>
    <g id="wiad19_secondary_greyscale_dark" stroke="none" stroke-width="1" fill="none" fill-rule="evenodd">
        <polygon id="" fill="#ACAFB2" points="307.31291 1471.45188 313.367062 1471.45188 313.367062 1506.86019 332.858794 1506.86019 332.858794 1512.74355 307.31291 1512.74355"></polygon>
        <path d="M350.68076,1492.10036 C350.68076,1487.2961 350.81816,1484.08365 351.08504,1482.45443 C351.38081,1480.82954 351.81827,1479.52114 352.43504,1478.51287 C353.40566,1476.61279 354.95993,1474.91274 357.09329,1473.43358 C359.18894,1471.93362 361.81415,1471.15863 364.96829,1471.11279 C368.1431,1471.15863 370.78898,1471.93362 372.91412,1473.44618 C375.00977,1474.92947 376.53488,1476.62952 377.45564,1478.53786 C378.13898,1479.54612 378.60164,1480.85865 378.86825,1482.47115 C379.09319,1484.10038 379.21814,1487.30022 379.21814,1492.10036 C379.21814,1496.8252 379.09319,1500.0087 378.86825,1501.6753 C378.60164,1503.34189 378.13898,1504.67532 377.45564,1505.67116 C376.53488,1507.5795 375.00977,1509.25439 372.91412,1510.70852 C370.78898,1512.22113 368.1431,1513.01698 364.95977,1513.08776 C361.81415,1513.01698 359.18894,1512.22113 357.09329,1510.70852 C354.95993,1509.25439 353.39744,1507.5795 352.43504,1505.67116 C352.13501,1505.0502 351.87236,1504.44617 351.6392,1503.88773 C351.42248,1503.30452 351.23492,1502.56282 351.08504,1501.6753 C350.81816,1500.0087 350.68076,1496.8252 350.68076,1492.10036 Z M356.73488,1492.10036 C356.73488,1496.1753 356.8808,1498.92119 357.17657,1500.35864 C357.42644,1501.79196 357.95144,1502.97114 358.73906,1503.85037 C359.37257,1504.70856 360.22646,1505.39187 361.26821,1505.92116 C362.29322,1506.54195 363.51404,1506.85865 364.94732,1506.85865 C366.39731,1506.85865 367.64333,1506.54195 368.71001,1505.92116 C369.71408,1505.39187 370.52663,1504.70856 371.13065,1503.85037 C371.91401,1502.96289 372.45572,1501.79196 372.74753,1500.35864 C373.02659,1498.92119 373.16003,1496.1753 373.16003,1492.10036 C373.16003,1488.04198 373.02659,1485.25854 372.74753,1483.78373 C372.45572,1482.38778 371.91401,1481.24613 371.13065,1480.35452 C370.52663,1479.50854 369.71408,1478.79612 368.71001,1478.22116 C367.64333,1477.67532 366.39731,1477.38778 364.94732,1477.34194 C363.51404,1477.38778 362.29322,1477.67532 361.26821,1478.22116 C360.22646,1478.79612 359.37257,1479.50854 358.73906,1480.35452 C357.95144,1481.24613 357.42644,1482.38778 357.17657,1483.78373 C356.8808,1485.25854 356.73488,1488.04198 356.73488,1492.10036 Z" id="Combined-shape-191" fill="#ACAFB2"></path>
        <path d="M428.996665,1501.21485 C428.121503,1505.03979 426.44655,1507.97329 423.980042,1510.03566 C421.442368,1512.06909 418.421699,1513.08582 414.946542,1513.08582 C411.809119,1513.01478 409.183923,1512.22328 407.071534,1510.71071 C404.946704,1509.25241 403.388186,1507.57735 402.417266,1505.66901 C402.125729,1505.04826 401.854869,1504.44811 401.625682,1503.88576 C401.400729,1503.30237 401.21742,1502.56497 401.067258,1501.67728 C400.800661,1500.00655 400.663259,1496.82322 400.663259,1492.09821 C400.663259,1487.30237 400.800661,1484.10236 401.067258,1482.469 C401.363348,1480.86063 401.821432,1479.54414 402.417266,1478.53566 C403.388186,1476.62732 404.946704,1474.92732 407.084004,1473.44403 C409.183923,1471.93164 411.809119,1471.15648 414.946542,1471.11494 C418.813228,1471.15648 421.954885,1472.33567 424.396482,1474.65646 C426.825638,1476.98986 428.359216,1479.88578 428.996665,1483.33562 L422.571686,1483.33562 C422.075873,1481.67316 421.175771,1480.25657 419.879906,1479.08563 C418.525664,1477.96075 416.871678,1477.3858 414.929838,1477.33996 C413.496542,1477.3858 412.279992,1477.67317 411.254958,1478.22314 C410.208957,1478.79826 409.371495,1479.50656 408.721576,1480.3565 C407.929992,1481.24832 407.405005,1482.38993 407.159085,1483.78154 C406.863314,1485.26069 406.713152,1488.03978 406.713152,1492.09821 C406.713152,1496.17315 406.863314,1498.91904 407.159085,1500.36079 C407.405005,1501.79411 407.929992,1502.9607 408.721576,1503.85234 C409.371495,1504.70658 410.208957,1505.39402 411.254958,1505.91901 C412.279992,1506.5398 413.504749,1506.85645 414.938335,1506.85645 C418.338092,1506.85645 420.896414,1504.97744 422.571686,1501.21485 L428.996665,1501.21485 Z" id="" fill="#ACAFB2"></path>
        <path d="M468.74619,1503.50951 L453.583805,1503.50951 L450.508705,1512.74275 L444.09191,1512.74275 L458.629615,1471.45112 L463.70038,1471.45112 L478.23777,1512.74275 L471.841975,1512.74275 L468.74619,1503.50951 Z M467.021075,1497.96778 L461.233545,1479.90526 L461.121055,1479.90526 L455.333525,1497.96778 L467.021075,1497.96778 Z" id="Combined-shape-193" fill="#ACAFB2"></path>
        <polygon id="" fill="#ACAFB2" points="498.23868 1471.45188 504.288568 1471.45188 504.288568 1506.86019 523.784564 1506.86019 523.784564 1512.74355 498.23868 1512.74355"></polygon>
        <path d="M600.607021,1501.21485 C599.727886,1505.03979 598.044436,1507.97329 595.577899,1510.03566 C593.040254,1512.06909 590.027792,1513.08582 586.552954,1513.08582 C583.407005,1513.01478 580.782128,1512.22328 578.686153,1510.71071 C576.540327,1509.25241 574.990306,1507.57735 574.019386,1505.66901 C573.736085,1505.04826 573.465225,1504.44811 573.223568,1503.88576 C573.011085,1503.30237 572.827776,1502.56497 572.677904,1501.67728 C572.398547,1500.00655 572.261145,1496.82322 572.261145,1492.09821 C572.261145,1487.30237 572.398547,1484.10236 572.677904,1482.469 C572.977938,1480.86063 573.419637,1479.54414 574.019386,1478.53566 C574.990306,1476.62732 576.540327,1474.92732 578.686153,1473.44403 C580.782128,1471.93164 583.407005,1471.15648 586.561161,1471.11494 C590.415348,1471.15648 593.561297,1472.33567 595.994368,1474.65646 C598.423495,1476.98986 599.957102,1479.88578 600.607021,1483.33562 L594.173516,1483.33562 C593.673759,1481.67316 592.77792,1480.25657 591.482026,1479.08563 C590.123521,1477.96075 588.482034,1477.3858 586.536221,1477.33996 C585.106898,1477.3858 583.877878,1477.67317 582.848581,1478.22314 C581.806843,1478.79826 580.969381,1479.50656 580.327959,1480.3565 C579.536085,1481.24832 579.019624,1482.38993 578.756971,1483.78154 C578.4612,1485.26069 578.323798,1488.03978 578.323798,1492.09821 C578.323798,1496.17315 578.4612,1498.91904 578.756971,1500.36079 C579.019624,1501.79411 579.536085,1502.9607 580.327959,1503.85234 C580.969381,1504.70658 581.806843,1505.39402 582.848581,1505.91901 C583.877878,1506.5398 585.106898,1506.85645 586.536221,1506.85645 C589.948738,1506.85645 592.494619,1504.97744 594.182013,1501.21485 L600.607021,1501.21485 Z" id="" fill="#ACAFB2"></path>
        <path d="M619.145754,1492.10036 C619.145754,1487.2961 619.274949,1484.08365 619.549753,1482.45443 C619.845843,1480.82954 620.283279,1479.52114 620.887291,1478.51287 C621.853948,1476.61279 623.412495,1474.91274 625.558292,1473.43358 C627.650004,1471.93362 630.27491,1471.15863 633.42083,1471.11279 C636.608104,1471.15863 639.253977,1471.93362 641.379126,1473.44618 C643.474811,1474.92947 644.991685,1476.62952 645.920642,1478.53786 C646.595791,1479.54612 647.066664,1480.85865 647.316557,1482.47115 C647.558214,1484.10038 647.679202,1487.30022 647.679202,1492.10036 C647.679202,1496.8252 647.558214,1500.0087 647.316557,1501.6753 C647.066664,1503.34189 646.595791,1504.67532 645.920642,1505.67116 C644.991685,1507.5795 643.474811,1509.25439 641.379126,1510.70852 C639.253977,1512.22113 636.595634,1513.01698 633.42083,1513.08776 C630.27491,1513.01698 627.650004,1512.22113 625.558292,1510.70852 C623.412495,1509.25439 621.853948,1507.5795 620.887291,1505.67116 C620.60399,1505.0502 620.33313,1504.44617 620.0875,1503.88773 C619.87899,1503.30452 619.699944,1502.56282 619.549753,1501.6753 C619.274949,1500.0087 619.145754,1496.8252 619.145754,1492.10036 Z M625.195647,1492.10036 C625.195647,1496.1753 625.345809,1498.92119 625.629139,1500.35864 C625.887529,1501.79196 626.412487,1502.97114 627.204071,1503.85037 C627.837257,1504.70856 628.675038,1505.39187 629.720749,1505.92116 C630.750046,1506.54195 631.979037,1506.85865 633.412333,1506.85865 C634.849863,1506.85865 636.104113,1506.54195 637.170791,1505.92116 C638.174829,1505.39187 638.983146,1504.70856 639.595655,1503.85037 C640.379032,1502.96289 640.91646,1501.79196 641.208287,1500.35864 C641.483091,1498.92119 641.620812,1496.1753 641.620812,1492.10036 C641.620812,1488.04198 641.483091,1485.25854 641.208287,1483.78373 C640.91646,1482.38778 640.379032,1481.24613 639.595655,1480.35452 C638.983146,1479.50854 638.174829,1478.79612 637.170791,1478.22116 C636.104113,1477.67532 634.849863,1477.38778 633.412333,1477.34194 C631.979037,1477.38778 630.750046,1477.67532 629.720749,1478.22116 C628.675038,1478.79612 627.837257,1479.50854 627.204071,1480.35452 C626.412487,1481.24613 625.887529,1482.38778 625.629139,1483.78373 C625.345809,1485.25854 625.195647,1488.04198 625.195647,1492.10036 Z" id="Combined-shape-196" fill="#ACAFB2"></path>
        <polygon id="" fill="#ACAFB2" points="670.484065 1471.45188 676.184066 1471.45188 694.309084 1500.8187 694.40909 1500.8187 694.40909 1471.45188 700.467482 1471.45188 700.467482 1512.74355 694.729785 1512.74355 676.64671 1483.39777 676.533932 1483.39777 676.533932 1512.74355 670.484065 1512.74355"></polygon>
        <polygon id="" fill="#ACAFB2" points="724.772799 1471.45188 730.4728 1471.45188 748.597818 1500.8187 748.697855 1500.8187 748.697855 1471.45188 754.756247 1471.45188 754.756247 1512.74355 749.01855 1512.74355 730.935475 1483.39777 730.822697 1483.39777 730.822697 1512.74355 724.772799 1512.74355"></polygon>
        <polygon id="" fill="#ACAFB2" points="779.000442 1471.45188 804.54604 1471.45188 804.54604 1477.34372 785.058546 1477.34372 785.058546 1489.1645 801.691916 1489.1645 801.691916 1494.71034 785.058546 1494.71034 785.058546 1506.86019 804.54604 1506.86019 804.54604 1512.74355 779.000442 1512.74355"></polygon>
        <path d="M852.85268,1501.21485 C851.973574,1505.03979 850.290414,1507.97329 847.823587,1510.03566 C845.286232,1512.06909 842.265244,1513.08582 838.79435,1513.08582 C835.652664,1513.01478 833.027787,1512.22328 830.927868,1510.71071 C828.790249,1509.25241 827.236284,1507.57735 826.261101,1505.66901 C825.982034,1505.04826 825.70694,1504.44811 825.469517,1503.88576 C825.257034,1503.30237 825.069491,1502.56497 824.923563,1501.67728 C824.648759,1500.00655 824.507123,1496.82322 824.507123,1492.09821 C824.507123,1487.30237 824.648759,1484.10236 824.923563,1482.469 C825.21539,1480.86063 825.665296,1479.54414 826.261101,1478.53566 C827.236284,1476.62732 828.790249,1474.92732 830.927868,1473.44403 C833.027787,1471.93164 835.652664,1471.15648 838.802847,1471.11494 C842.657063,1471.15648 845.811219,1472.33567 848.240346,1474.65646 C850.673736,1476.98986 852.202761,1479.88578 852.85268,1483.33562 L846.415231,1483.33562 C845.919418,1481.67316 845.019635,1480.25657 843.731948,1479.08563 C842.369499,1477.96075 840.727693,1477.3858 838.786143,1477.33996 C837.352847,1477.3858 836.123537,1477.67317 835.098503,1478.22314 C834.052821,1478.79826 833.21533,1479.50656 832.573618,1480.3565 C831.7778,1481.24832 831.26102,1482.38993 831.006893,1483.78154 C830.711122,1485.26069 830.569457,1488.03978 830.569457,1492.09821 C830.569457,1496.17315 830.711122,1498.91904 831.006893,1500.36079 C831.26102,1501.79411 831.7778,1502.9607 832.573618,1503.85234 C833.21533,1504.70658 834.052821,1505.39402 835.098503,1505.91901 C836.123537,1506.5398 837.352847,1506.85645 838.786143,1506.85645 C842.194397,1506.85645 844.740278,1504.97744 846.423728,1501.21485 L852.85268,1501.21485 Z" id="" fill="#ACAFB2"></path>
        <polygon id="" fill="#ACAFB2" points="878.381833 1476.9981 867.411075 1476.9981 867.411075 1471.4523 895.407066 1471.4523 895.407066 1476.9981 884.436279 1476.9981 884.436279 1512.74393 878.381833 1512.74393"></polygon>
        <polygon id="" fill="#ACAFB2" points="915.198219 1471.45326 921.252358 1471.45326 921.252358 1512.74493 915.198219 1512.74493"></polygon>
        <path d="M943.405478,1492.10036 C943.405478,1487.2961 943.534354,1484.08365 943.817684,1482.45443 C944.105248,1480.82954 944.551181,1479.52114 945.159456,1478.51287 C946.121879,1476.61279 947.676134,1474.91274 949.826223,1473.43358 C951.917935,1471.93362 954.547075,1471.15863 957.688761,1471.11279 C960.863565,1471.15863 963.513701,1471.93362 965.638531,1473.44618 C967.738769,1474.92947 969.259587,1476.62952 970.188573,1478.53786 C970.863722,1479.54612 971.334595,1480.85865 971.584459,1482.47115 C971.826116,1484.10038 971.942841,1487.30022 971.942841,1492.10036 C971.942841,1496.8252 971.826116,1500.0087 971.584459,1501.6753 C971.326069,1503.34189 970.863722,1504.67532 970.188573,1505.67116 C969.259587,1507.5795 967.738769,1509.25439 965.638531,1510.70852 C963.513701,1512.22113 960.863565,1513.01698 957.688761,1513.08776 C954.547075,1513.01698 951.917935,1512.22113 949.826223,1510.70852 C947.676134,1509.25439 946.121879,1507.5795 945.159456,1505.67116 C944.859422,1505.0502 944.605295,1504.44617 944.359375,1503.88773 C944.142948,1503.30452 943.967846,1502.56282 943.817684,1501.6753 C943.534354,1500.0087 943.405478,1496.8252 943.405478,1492.10036 Z M949.451108,1492.10036 C949.451108,1496.1753 949.605214,1498.92119 949.897041,1500.35864 C950.159375,1501.79196 950.671892,1502.97114 951.463766,1503.85037 C952.105188,1504.70856 952.946913,1505.39187 953.992914,1505.92116 C955.017948,1506.54195 956.246968,1506.85865 957.667765,1506.85865 C959.117794,1506.85865 960.372015,1506.54195 961.438693,1505.92116 C962.44276,1505.39187 963.251048,1504.70856 963.855379,1503.85037 C964.642671,1502.96289 965.180418,1501.79196 965.480452,1500.35864 C965.751022,1498.92119 965.880188,1496.1753 965.880188,1492.10036 C965.880188,1488.04198 965.751022,1485.25854 965.480452,1483.78373 C965.180418,1482.38778 964.642671,1481.24613 963.855379,1480.35452 C963.251048,1479.50854 962.44276,1478.79612 961.438693,1478.22116 C960.372015,1477.67532 959.117794,1477.38778 957.667765,1477.34194 C956.246968,1477.38778 955.017948,1477.67532 953.992914,1478.22116 C952.946913,1478.79612 952.105188,1479.50854 951.463766,1480.35452 C950.671892,1481.24613 950.159375,1482.38778 949.897041,1483.78373 C949.605214,1485.25854 949.451108,1488.04198 949.451108,1492.10036 Z" id="Combined-shape-203" fill="#ACAFB2"></path>
        <polygon id="" fill="#ACAFB2" points="994.755625 1471.45188 1000.45166 1471.45188 1018.56818 1500.8187 1018.67668 1500.8187 1018.67668 1471.45188 1024.7348 1471.45188 1024.7348 1512.74355 1019.00166 1512.74355 1000.91827 1483.39777 1000.8058 1483.39777 1000.8058 1512.74355 994.755625 1512.74355"></polygon>
        <path d="M1049.47573,1502.74492 C1052.66755,1505.45736 1056.45061,1506.82399 1060.84228,1506.85744 C1066.03828,1506.78662 1068.67564,1504.8616 1068.74647,1501.10744 C1068.78811,1498.03234 1067.0548,1496.17413 1063.5298,1495.54492 C1061.92171,1495.32815 1060.15891,1495.0699 1058.23408,1494.79078 C1054.79665,1494.1948 1052.17996,1492.8907 1050.39253,1490.84902 C1048.53823,1488.7532 1047.62173,1486.19478 1047.62173,1483.19067 C1047.62173,1479.59075 1048.78414,1476.68654 1051.10476,1474.46154 C1053.35059,1472.27409 1056.52996,1471.15742 1060.66324,1471.11576 C1065.63823,1471.24063 1069.95085,1472.66156 1073.62996,1475.3866 L1070.24662,1480.5282 C1067.25907,1478.48239 1063.95082,1477.42828 1060.34254,1477.34074 C1058.47576,1477.34074 1056.92149,1477.83661 1055.67577,1478.79491 C1054.38415,1479.79905 1053.709,1481.2908 1053.68407,1483.27405 C1053.68407,1484.46154 1054.1215,1485.54079 1055.02159,1486.50322 C1055.91742,1487.48237 1057.34647,1488.16569 1059.32569,1488.5449 C1060.42582,1488.73238 1061.92171,1488.9491 1063.82587,1489.20323 C1067.58403,1489.72409 1070.35087,1491.10745 1072.14226,1493.36159 C1073.91328,1495.57403 1074.80911,1498.14895 1074.80911,1501.0699 C1074.59662,1508.96565 1069.92562,1512.97819 1060.76749,1513.08659 C1054.855,1513.08659 1049.75902,1511.21562 1045.50082,1507.44912 L1049.47573,1502.74492 Z" id="" fill="#ACAFB2"></path>
        <polygon id="" fill="#ACAFB2" points="1096.53148 1506.85744 1102.25245 1506.85744 1102.25245 1512.74493 1096.53148 1512.74493"></polygon>
        <path d="M1166.86662,1490.03743 L1181.09154,1490.03743 L1181.09154,1498.44578 C1181.02071,1502.57481 1179.63729,1506.02896 1176.98319,1508.82065 C1174.28748,1511.59153 1170.91233,1513.01655 1166.83317,1513.08737 C1163.69151,1513.01655 1161.0666,1512.22075 1158.96669,1510.70814 C1156.82481,1509.25396 1155.2748,1507.57911 1154.29992,1505.67077 C1154.01663,1505.04981 1153.75002,1504.44574 1153.5123,1503.88735 C1153.2831,1503.30397 1153.10832,1502.56239 1152.95814,1501.67491 C1152.6873,1500.0081 1152.5499,1496.82481 1152.5499,1492.0998 C1152.5499,1487.29984 1152.6873,1484.09978 1152.95814,1482.47077 C1153.24998,1480.85827 1153.70412,1479.54569 1154.29992,1478.53747 C1155.2748,1476.62913 1156.82481,1474.92908 1158.96669,1473.4458 C1161.0666,1471.93319 1163.69151,1471.15824 1166.83317,1471.1124 C1170.69561,1471.15824 1173.84153,1472.33743 1176.27066,1474.67061 C1178.69979,1476.99988 1180.23339,1479.89563 1180.8666,1483.35412 L1174.44585,1483.35412 C1173.94578,1481.67905 1173.04995,1480.25816 1171.76226,1479.0874 C1170.40407,1477.9623 1168.75404,1477.38739 1166.8125,1477.34155 C1165.37892,1477.38739 1164.16239,1477.67493 1163.14161,1478.2249 C1162.09164,1478.79573 1161.25416,1479.50815 1160.61672,1480.35413 C1159.82088,1481.24987 1159.29987,1482.39152 1159.04571,1483.78313 C1158.74568,1485.26246 1158.60828,1488.04159 1158.60828,1492.0998 C1158.60828,1496.17491 1158.74568,1498.9208 1159.04571,1500.36238 C1159.29987,1501.79157 1159.82088,1502.96229 1160.61672,1503.84976 C1161.25416,1504.70817 1162.09164,1505.39149 1163.14161,1505.92077 C1164.16239,1506.54156 1165.39563,1506.85822 1166.82498,1506.85822 C1169.18328,1506.85822 1171.12908,1506.02896 1172.67909,1504.36649 C1174.20813,1502.76247 1175.00001,1500.6749 1175.04165,1498.08325 L1175.04165,1495.92491 L1166.86662,1495.92491 L1166.86662,1490.03743 Z" id="" fill="#ACAFB2"></path>
        <polygon id="" fill="#ACAFB2" points="1203.89456 1471.45188 1209.94869 1471.45188 1209.94869 1506.86019 1229.43619 1506.86019 1229.43619 1512.74355 1203.89456 1512.74355"></polygon>
        <path d="M1247.2545,1492.10036 C1247.2545,1487.2961 1247.39191,1484.08365 1247.67126,1482.45443 C1247.95851,1480.82954 1248.40873,1479.52114 1249.01274,1478.51287 C1249.9794,1476.61279 1251.53369,1474.91274 1253.67525,1473.43358 C1255.77546,1471.93362 1258.40463,1471.15863 1261.54628,1471.11279 C1264.71682,1471.15863 1267.37517,1471.93362 1269.50032,1473.44618 C1271.59629,1474.92947 1273.10861,1476.62952 1274.0461,1478.53786 C1274.71698,1479.54612 1275.19212,1480.85865 1275.44625,1482.47115 C1275.67941,1484.10038 1275.80434,1487.30022 1275.80434,1492.10036 C1275.80434,1496.8252 1275.67941,1500.0087 1275.44625,1501.6753 C1275.19212,1503.34189 1274.71698,1504.67532 1274.0461,1505.67116 C1273.10861,1507.5795 1271.59629,1509.25439 1269.50032,1510.70852 C1267.37517,1512.22113 1264.71682,1513.01698 1261.54628,1513.08776 C1258.40463,1513.01698 1255.77546,1512.22113 1253.67525,1510.70852 C1251.53369,1509.25439 1249.9794,1507.5795 1249.01274,1505.67116 C1248.72121,1505.0502 1248.45858,1504.44617 1248.2169,1503.88773 C1248.00442,1503.30452 1247.81687,1502.56282 1247.67126,1501.6753 C1247.39191,1500.0087 1247.2545,1496.8252 1247.2545,1492.10036 Z M1253.31684,1492.10036 C1253.31684,1496.1753 1253.45456,1498.92119 1253.75459,1500.35864 C1254.00872,1501.79196 1254.52944,1502.97114 1255.321,1503.85037 C1255.95877,1504.70856 1256.8002,1505.39187 1257.84194,1505.92116 C1258.87124,1506.54195 1260.09628,1506.85865 1261.53779,1506.85865 C1262.97532,1506.85865 1264.22957,1506.54195 1265.29624,1505.92116 C1266.29602,1505.39187 1267.10463,1504.70856 1267.71685,1503.85037 C1268.50022,1502.96289 1269.03371,1501.79196 1269.33374,1500.35864 C1269.60855,1498.92119 1269.75021,1496.1753 1269.75021,1492.10036 C1269.75021,1488.04198 1269.60855,1485.25854 1269.33374,1483.78373 C1269.03371,1482.38778 1268.50022,1481.24613 1267.71685,1480.35452 C1267.10463,1479.50854 1266.29602,1478.79612 1265.29624,1478.22116 C1264.22957,1477.67532 1262.97532,1477.38778 1261.53779,1477.34194 C1260.09628,1477.38778 1258.87124,1477.67532 1257.84194,1478.22116 C1256.8002,1478.79612 1255.95877,1479.50854 1255.321,1480.35452 C1254.52944,1481.24613 1254.00872,1482.38778 1253.75459,1483.78373 C1253.45456,1485.25854 1253.31684,1488.04198 1253.31684,1492.10036 Z" id="Combined-shape-209" fill="#ACAFB2"></path>
        <path d="M1298.60523,1471.45289 L1314.10538,1471.45289 C1318.03042,1471.49438 1320.98879,1472.51956 1322.97196,1474.51523 C1324.96368,1476.54022 1325.94707,1479.21524 1325.94707,1482.53606 C1325.98871,1484.2237 1325.59686,1485.85275 1324.77611,1487.40272 C1324.3554,1488.14033 1323.75107,1488.8445 1322.97196,1489.49869 C1322.1804,1490.19854 1321.20948,1490.8319 1320.05525,1491.39856 C1320.05525,1491.39856 1321.20948,1490.8319 1320.05525,1491.51519 C1322.23452,1492.09034 1323.88879,1493.27781 1325.00532,1495.04865 C1326.05527,1496.87771 1326.58452,1498.87771 1326.58452,1501.01954 C1326.54287,1504.59861 1325.45946,1507.41526 1323.33463,1509.49867 C1321.23045,1511.66528 1318.60128,1512.74456 1315.4511,1512.74456 C1315.4511,1512.74456 1318.60128,1512.74456 1298.60523,1512.74456 L1298.60523,1471.45289 Z M1304.65939,1494.41941 L1304.65939,1506.85704 L1314.0011,1506.85704 C1316.25544,1506.82361 1317.90943,1506.18201 1318.95543,1504.95696 C1320.00114,1503.74454 1320.52613,1502.30277 1320.52613,1500.64028 C1320.52613,1498.94025 1320.00114,1497.48197 1318.95543,1496.26523 C1317.90943,1495.07776 1316.25544,1494.457 1314.0011,1494.41941 L1304.65939,1494.41941 Z M1304.65939,1476.99869 L1304.65939,1488.87772 L1313.42203,1488.87772 C1315.63046,1488.87772 1317.24704,1488.28607 1318.29701,1487.08621 C1319.36369,1485.99022 1319.89686,1484.60687 1319.89686,1482.92787 C1319.89686,1481.26522 1319.36369,1479.84037 1318.29701,1478.68201 C1317.24704,1477.60274 1315.63046,1477.05279 1313.42203,1476.99869 L1304.65939,1476.99869 Z" id="Combined-shape-210" fill="#ACAFB2"></path>
        <path d="M1369.07627,1503.50951 L1353.90962,1503.50951 L1350.84271,1512.74275 L1344.42196,1512.74275 L1358.95939,1471.45112 L1364.03043,1471.45112 L1378.56359,1512.74275 L1372.18025,1512.74275 L1369.07627,1503.50951 Z M1367.34689,1497.96778 L1361.56786,1479.90526 L1361.45538,1479.90526 L1355.66784,1497.96778 L1367.34689,1497.96778 Z" id="Combined-shape-211" fill="#ACAFB2"></path>
        <polygon id="" fill="#ACAFB2" points="1398.5724 1471.45188 1404.62656 1471.45188 1404.62656 1506.86019 1424.1265 1506.86019 1424.1265 1512.74355 1398.5724 1512.74355"></polygon>
        <polygon id="" fill="#ACAFB2" points="1473.96066 1471.45326 1480.02332 1471.45326 1480.02332 1512.74493 1473.96066 1512.74493"></polygon>
        <polygon id="" fill="#ACAFB2" points="1503.52825 1471.45188 1509.23248 1471.45188 1520.69908 1498.37694 1531.94493 1471.45188 1537.67412 1471.45188 1537.67412 1512.74355 1531.61999 1512.74355 1531.61999 1487.00616 1531.4823 1487.00616 1523.11149 1506.83108 1518.06173 1506.83108 1509.69487 1487.00616 1509.58238 1487.00616 1509.58238 1512.74355 1503.52825 1512.74355"></polygon>
        <path d="M1628.61785,1503.50951 L1613.45544,1503.50951 L1610.38032,1512.74275 L1603.96779,1512.74275 L1618.5052,1471.45112 L1623.57627,1471.45112 L1638.11368,1512.74275 L1631.71785,1512.74275 L1628.61785,1503.50951 Z M1626.89273,1497.96778 L1621.10944,1479.90526 L1621.00122,1479.90526 L1615.20944,1497.96778 L1626.89273,1497.96778 Z" id="Combined-shape-216" fill="#ACAFB2"></path>
        <path d="M1684.50981,1501.21485 C1683.63068,1505.03979 1681.96393,1507.97329 1679.49316,1510.03566 C1676.94334,1512.06909 1673.93908,1513.08582 1670.46392,1513.08582 C1667.31406,1513.01478 1664.68915,1512.22328 1662.59318,1510.71071 C1660.44735,1509.25241 1658.8931,1507.57735 1657.93494,1505.66901 C1657.63917,1505.04826 1657.36831,1504.44811 1657.13486,1503.88576 C1656.92237,1503.30237 1656.7348,1502.56497 1656.58919,1501.67728 C1656.30163,1500.00655 1656.17243,1496.82322 1656.17243,1492.09821 C1656.17243,1487.30237 1656.3141,1484.10236 1656.58919,1482.469 C1656.88073,1480.86063 1657.3224,1479.54414 1657.93494,1478.53566 C1658.8931,1476.62732 1660.45588,1474.92732 1662.59318,1473.44403 C1664.70162,1471.93164 1667.32227,1471.15648 1670.46392,1471.11494 C1674.33061,1471.15648 1677.47227,1472.33567 1679.90171,1474.65646 C1682.33905,1476.98986 1683.8766,1479.88578 1684.50981,1483.33562 L1678.08086,1483.33562 C1677.59325,1481.67316 1676.69742,1480.25657 1675.38908,1479.08563 C1674.02663,1477.96075 1672.3848,1477.3858 1670.44751,1477.33996 C1669.01392,1477.3858 1667.79314,1477.67317 1666.7599,1478.22314 C1665.72666,1478.79826 1664.87246,1479.50656 1664.23896,1480.3565 C1663.45164,1481.24832 1662.92665,1482.38993 1662.66826,1483.78154 C1662.37643,1485.26069 1662.23082,1488.03978 1662.23082,1492.09821 C1662.23082,1496.17315 1662.37643,1498.91904 1662.66826,1500.36079 C1662.92665,1501.79411 1663.45164,1502.9607 1664.23896,1503.85234 C1664.87246,1504.70658 1665.72666,1505.39402 1666.76811,1505.91901 C1667.79314,1506.5398 1669.01392,1506.85645 1670.44751,1506.85645 C1673.85579,1506.85645 1676.40559,1504.97744 1678.08907,1501.21485 L1684.50981,1501.21485 Z" id="" fill="#ACAFB2"></path>
        <polygon id="" fill="#ACAFB2" points="1709.99001 1476.9981 1699.01894 1476.9981 1699.01894 1471.4523 1727.01067 1471.4523 1727.01067 1476.9981 1716.03991 1476.9981 1716.03991 1512.74393 1709.99001 1512.74393"></polygon>
        <polygon id="" fill="#ACAFB2" points="1741.76483 1506.85744 1747.47333 1506.85744 1747.47333 1512.74493 1741.76483 1512.74493"></polygon>
        <g id="Group" transform="translate(262.000000, 1135.000000)">
            <polygon id="" fill="#ACAFB2" points="0.748587 0.532896 42.886179 0.532896 84.302876 194.082798 85.027684 194.082798 136.207015 0.532896 165.144553 0.532896 216.144488 194.082798 216.869597 194.082798 258.469603 0.532896 300.611108 0.532896 234.773679 272.79525 201.319335 272.79525 151.040295 76.436997 150.315186 76.436997 99.852837 272.79525 66.577889 272.79525"></polygon>
            <polygon id="" fill="#FFFFFF" points="318.948084 0.53235 358.877246 0.53235 358.877246 272.794704 318.948084 272.794704"></polygon>
            <path d="M528.974024,211.902327 L428.961566,211.902327 L408.707446,272.793885 L366.382392,272.793885 L462.240744,0.531531 L495.69914,0.531531 L591.553424,272.793885 L549.415724,272.793885 L528.974024,211.902327 Z M517.582268,175.335888 L479.419908,56.227353 L478.6949,56.227353 L440.536608,175.335888 L517.582268,175.335888 Z" id="Combined-shape-222" fill="#FFFFFF"></path>
            <path d="M603.357012,0.53235 L695.631924,0.53235 C731.331996,0.786513 758.115416,16.094715 775.969588,46.469787 C782.348804,56.678076 786.386292,67.386501 788.069456,78.586599 C789.39448,89.790519 790.061128,109.153044 790.061128,136.661616 C790.061128,165.919845 789.032204,186.336696 786.982064,197.911623 C786.019692,203.765835 784.569648,208.994877 782.640204,213.599022 C780.590252,218.082501 778.11542,222.74889 775.227928,227.603376 C767.50282,240.428097 756.769336,251.011488 743.023528,259.349181 C729.394468,268.311498 712.686344,272.794704 692.911188,272.794704 C692.911188,272.794704 712.686344,272.794704 603.357012,272.794704 L603.357012,0.53235 Z M643.286144,233.970009 L691.09868,233.970009 C713.5487,233.970009 729.848676,226.048914 739.990336,210.203175 C744.45684,204.344868 747.294512,196.920087 748.502788,187.936476 C749.586232,179.078172 750.131996,162.490692 750.131996,138.161478 C750.131996,114.457434 749.586232,97.494852 748.502788,87.261447 C747.052932,77.03241 743.611216,68.736486 738.181964,62.373948 C727.06966,46.532304 711.378052,38.86155 691.09868,39.357318 C691.09868,39.357318 711.378052,38.86155 643.286144,39.357318 L643.286144,233.970009 Z" id="Combined-shape-223" fill="#ACAFB2"></path>
        </g>
        <g id="Group-3" transform="translate(622.000000, 277.000000)">
            <path d="M363.676492,0.936684 L560.215414,54.614952 L658.585958,131.568948 L741.732134,270.36072 L745.615064,417.652956 L745.615064,417.6711 L725.132142,530.72334 L652.79476,645.785784 L563.086022,706.9356 L563.094228,706.943916 L461.877694,750.210552 L524.910964,676.902744 L524.902758,676.898208 L461.877694,750.210552 L368.869398,755.781516 L250.711204,735.273504 L149.536446,678.689928 L59.115278,574.9191 L26.215186,510.902532 L0.394634,385.498008 L10.40297,267.477336 L60.80273,171.915156 L139.256566,89.7939 L218.181874,37.8567 L363.670524,0.936684 L363.676492,0.936684 Z M127.915128,460.506816 L127.906922,460.506816 L148.123522,559.715184 L127.915128,460.506816 Z" id="Combined-shape-119" fill="#FFFFFF"></path>
            <polygon id="" fill="#FFFFFF" points="285.9066 159.363188 256.715 396.617296 455.6192 330.517318"></polygon>
            <polygon id="" fill="#D2D2D2" points="419.1588 592.057408 256.7172 396.619741 455.617 330.515743"></polygon>
            <polygon id="" fill="#F5F5F5" points="454.612 146.578125 455.616112 330.51567 597.74512 290.99486"></polygon>
            <polygon id="" fill="#EFEFEF" points="574.708732 516.595713 455.617045 330.516549 597.746032 290.995622"></polygon>
            <polygon id="" fill="#E1E1E1" points="138.09576 271.03287 127.9165 460.5079 256.71647 396.62021"></polygon>
            <polygon id="" fill="#C5C5C5" points="263.860808 607.312484 127.915023 460.508208 256.715025 396.620736"></polygon>
            <polygon id="" fill="#F3F3F3" points="256.715684 396.618962 138.094868 271.03136 285.9075 159.364854"></polygon>
            <polygon id="" fill="#F0F0F0" points="455.61696 330.51567 285.904419 159.361625 454.613019 146.578125"></polygon>
            <polygon id="" fill="#B6B6B6" points="263.860684 607.312484 256.71504 396.620736 419.156548 592.058236"></polygon>
            <polygon id="" fill="#E6E6E6" points="455.616944 330.515743 419.158652 592.057408 574.708748 516.594818"></polygon>
            <polygon id="" fill="#FFFFFF" points="285.90661 159.363231 328.09823 41.550732 454.61087 146.580013"></polygon>
            <polygon id="" fill="#D9D9D9" points="285.90658 159.363231 184.57333 116.917359 328.098245 41.550732"></polygon>
            <polygon id="" fill="#FAFAFA" points="138.095756 271.0328 184.570864 116.916188 285.908388 159.362072"></polygon>
            <polygon id="" fill="#F0F0F0" points="184.572025 116.91696 218.18027 37.85856 328.097085 41.55032"></polygon>
            <polygon id="" fill="#EFEFEF" points="127.915312 460.50657 58.907038 334.94811 138.094501 271.03154"></polygon>
            <polygon id="" fill="#EFEFEF" points="263.860808 607.312426 127.915023 460.508239 157.985701 608.166494"></polygon>
            <polygon id="" fill="#D5D5D5" points="58.908577 334.946987 71.158774 212.601101 138.09604 271.034342"></polygon>
            <polygon id="" fill="#E5E5E5" points="184.572044 116.916968 71.155496 212.600348 138.09698 271.03358"></polygon>
            <polygon id="" fill="#E5E5E5" points="184.57208 116.91696 139.25544 89.79616 218.18024 37.85856"></polygon>
            <polygon id="" fill="#C7C7C7" points="71.156636 212.599976 139.256588 89.795832 184.573298 116.916492"></polygon>
            <polygon id="" fill="#B3B3B3" points="71.15664 212.599976 60.80664 171.916444 139.25664 89.795832"></polygon>
            <polygon id="" fill="#EFEFEF" points="58.908576 334.946987 10.400396 267.480257 71.158784 212.601101"></polygon>
            <polygon id="" fill="#CCCCCC" points="10.401884 267.478528 60.806024 171.916068 71.156056 212.599323"></polygon>
            <polygon id="" fill="#DCDCDC" points="58.908566 334.946936 55.000219 497.259376 127.917145 460.505336"></polygon>
            <polygon id="" fill="#C8C8C8" points="58.90855 334.946936 0.391996 385.496984 55.000272 497.259376"></polygon>
            <polygon id="" fill="#A6A6A6" points="10.401877 267.478499 0.39353 385.499486 58.910379 334.945192"></polygon>
            <polygon id="" fill="#CCCCCC" points="263.860674 607.312375 380.460649 716.9665 419.156596 592.05825"></polygon>
            <polygon id="" fill="#E5E5E5" points="419.1587 592.05725 524.912855 676.899125 380.46284 716.96575"></polygon>
            <polygon id="" fill="#EFEFEF" points="574.708748 516.5957 419.158652 592.058332 524.912768 676.899858"></polygon>
            <polygon id="" fill="#E6E6E6" points="380.46255 716.966125 461.879035 750.20785 524.912565 676.899475"></polygon>
            <polygon id="" fill="#C7C7C7" points="524.912537 676.898731 574.708103 516.594573 646.437275 607.615279"></polygon>
            <polygon id="" fill="#EFEFEF" points="574.708644 516.595801 689.608732 459.966563 646.43794 607.616474"></polygon>
            <polygon id="" fill="#EFEFEF" points="689.609311 459.96736 745.613792 417.66745 597.747086 290.99654"></polygon>
            <polygon id="" fill="#CECECE" points="689.60936 459.967308 725.13048 530.721597 646.43848 607.617219"></polygon>
            <polygon id="" fill="#C2C2C2" points="745.615022 417.665646 725.131673 530.724006 689.610869 459.965802"></polygon>
            <polygon id="" fill="#EFEFEF" points="646.437275 607.6173 524.912537 676.9007 563.079191 706.9423"></polygon>
            <polygon id="" fill="#C8C8C8" points="563.07947 706.9419 652.7921 645.7878 646.43792 607.6169"></polygon>
            <polygon id="" fill="#AEAEAE" points="725.132 530.723144 646.43608 607.61908 652.79448 645.785632"></polygon>
            <polygon id="" fill="#E4E4E4" points="157.985363 608.16865 263.439427 704.839476 263.860472 607.314384"></polygon>
            <polygon id="" fill="#BBBBBB" points="263.437898 704.83829 380.462864 716.96733 263.862934 607.31317"></polygon>
            <polygon id="" fill="#C0C0C0" points="380.46252 716.96612 368.870722 755.77864 461.879116 750.20784"></polygon>
            <polygon id="" fill="#999999" points="263.437898 704.838292 368.871016 755.779832 380.462864 716.967292"></polygon>
            <polygon id="" fill="#BBBBBB" points="263.437956 704.838292 250.708645 735.271552 368.871004 755.779832"></polygon>
            <polygon id="" fill="#C7C7C7" points="263.43788 704.838301 149.53797 678.688265 157.98357 608.167422"></polygon>
            <polygon id="" fill="#DCDCDC" points="149.53797 678.688634 250.708645 735.271984 263.43788 704.838688"></polygon>
            <polygon id="" fill="#BDBDBD" points="54.998712 497.25984 59.11524 574.918288 157.986272 608.168176"></polygon>
            <polygon id="" fill="#AEAEAE" points="59.116226 574.919065 149.537084 678.68983 157.986833 608.168995"></polygon>
            <polygon id="" fill="#CCCCCC" points="54.998736 497.259818 26.215424 510.901628 59.115286 574.918256"></polygon>
            <polygon id="" fill="#E6E6E6" points="26.214485 510.903232 54.9978 497.26159 0.393525 385.499086"></polygon>
            <polygon id="" fill="#E6E6E6" points="454.612 146.578233 585.70384 132.774171 597.74512 290.994912"></polygon>
            <polygon id="" fill="#F3F3F3" points="597.747315 290.995707 689.27655 277.654017 585.70161 132.774966"></polygon>
            <polygon id="" fill="#FFFFFF" points="745.614984 417.665689 597.748278 290.994814 689.277339 277.653253"></polygon>
            <polygon id="" fill="#E1E1E1" points="689.275595 277.653228 745.613198 417.665668 741.742271 270.361564"></polygon>
            <polygon id="" fill="#CACACA" points="585.703203 132.774092 689.274062 277.65325 741.740793 270.361572"></polygon>
            <polygon id="" fill="#A9A9A9" points="585.703203 132.77408 658.594849 131.56994 741.740793 270.36146"></polygon>
            <polygon id="" fill="#F8F8F8" points="454.612015 146.5782 328.099441 41.549001 446.420261 36.632367"></polygon>
            <polygon id="" fill="#D4D4D4" points="454.6121 146.5782 446.42028 36.632367 585.70376 132.774129"></polygon>
            <polygon id="" fill="#FFFFFF" points="446.42126 36.631567 560.2169 54.614882 585.70446 132.773117"></polygon>
            <polygon id="" fill="#C7C7C7" points="585.703172 132.774139 560.215622 54.615647 658.594793 131.569942"></polygon>
            <polygon id="" fill="#E9E9E9" points="328.098294 41.548962 363.673225 0.936516 446.419042 36.6324"></polygon>
            <polygon id="" fill="#C7C7C7" points="218.182062 37.85817 363.673836 0.937314 328.0986 41.54997"></polygon>
            <polygon id="" fill="#C2C2C2" points="363.673794 0.9361 446.41938 36.63198 560.215326 54.615275"></polygon>
            <polygon id="" fill="#FCFCFC" points="574.708644 516.595713 689.608732 459.966477 597.746128 290.995622"></polygon>
            <polygon id="" fill="#FFFFFF" points="157.99324 608.176924 54.98904 497.251937 127.905832 460.501981"></polygon>
            <polygon id="" fill="#FFFFFF" points="524.911912 676.8991 524.912839 676.8991 563.094115 706.939 563.094115 706.94095 461.879105 750.21115"></polygon>
            <path d="M462.39525,750.040825 L563.065782,706.726345" id="" fill="#EEEEEE"></path>
        </g>
        <path d="M1568.25879,1476.91895 L1568.25879,1490.25781 L1577.51953,1490.25781 C1579.84181,1490.22005 1581.58821,1489.50261 1582.75879,1488.10547 C1583.87273,1486.74609 1584.42969,1485.23569 1584.42969,1483.57422 C1584.42969,1482.19596 1584.20313,1481.03484 1583.75,1480.09082 C1583.27799,1479.24121 1582.61719,1478.57097 1581.76758,1478.08008 C1580.48372,1477.26823 1578.9922,1476.88118 1577.29297,1476.91895 L1568.25879,1476.91895 Z M1562,1512.29102 L1562,1471 L1576.95312,1471 C1578.57683,1471 1580.14387,1471.15104 1581.6543,1471.45312 C1583.16472,1471.84961 1584.694,1472.66145 1586.24219,1473.88867 C1587.54493,1474.81381 1588.60221,1476.13541 1589.41406,1477.85352 C1590.26368,1479.51498 1590.68848,1481.4785 1590.68848,1483.74414 C1590.68848,1486.80275 1589.61232,1489.58755 1587.45996,1492.09863 C1585.25097,1494.74188 1582.02248,1496.10124 1577.77441,1496.17676 L1568.25879,1496.17676 L1568.25879,1512.29102 L1562,1512.29102 Z" id="P" fill="#ACAFB2"></path>
        <g id="Group-2" transform="translate(1140.000000, 1133.000000)" fill="#FFFFFF">
            <path d="M0.452849,238.199775 L103.631904,104.97905 C107.619512,99.61655 110.34023,94.628875 111.790283,90.01245 C112.756834,85.645725 113.240185,81.528975 113.240185,77.65835 C113.240185,67.4333 110.156916,58.5123 103.990378,50.903875 C97.582089,43.295725 88.506838,39.366525 76.777762,39.11655 C66.377788,39.11655 57.727904,42.549925 50.835962,49.408425 C43.698796,56.2705 39.465209,65.9373 38.140486,78.4124 L0.452849,78.4124 C1.415323,55.79145 8.777781,37.0832 22.544602,22.2915 C36.423616,7.8749 53.502924,0.541475 73.790378,0.2915 C96.481903,0.541475 114.894541,8.016525 129.019383,22.720775 C143.38205,37.2999 150.686222,55.8041 150.923594,78.228975 C150.923594,96.17465 145.619719,112.1208 134.998832,126.07485 L50.111011,235.970625 L150.923594,235.970625 L150.923594,274.795675 L0.452849,274.795675 L0.452849,238.199775 Z" id=""></path>
            <path d="M171.835785,78.41407 C172.081462,53.305666 179.869136,33.976604 195.198203,20.426606 C209.556491,7.0056 226.693934,0.29329 246.614911,0.29329 C267.131734,0.29329 284.573291,7.01394 298.935656,20.459966 C313.539923,34.030536 321.081467,53.389066 321.569046,78.535 C321.569046,78.535 321.081467,53.389066 321.569046,198.605702 C321.081467,223.626536 313.539923,242.926686 298.935656,256.493364 C284.573291,269.939112 267.131734,276.784862 246.614911,277.035062 C226.693934,276.784862 209.556491,269.951622 195.198203,256.526446 C179.869136,242.980618 172.081462,223.714106 171.835785,198.730802 L171.835785,78.41407 Z M283.881409,80.843234 C283.152532,53.526398 270.731423,39.618058 246.614911,39.114044 C222.373069,39.618058 210.010699,53.526398 209.52312,80.843234 C209.52312,80.843234 210.010699,53.526398 209.52312,196.48484 C210.010699,224.055768 222.373069,237.964108 246.614911,238.20986 C270.731423,237.964108 283.152532,224.055768 283.881409,196.48484 L283.881409,80.843234 Z" id="Combined-shape-225"></path>
            <polygon id="" points="381.928712 43.696928 344.416176 72.080192 344.416176 30.559349 381.928712 2.534534 419.616276 2.534534 419.616276 274.792793 381.928712 274.792793"></polygon>
            <path d="M440.007445,103.868421 L440.007445,79.1842105 C440.260558,54.3770689 448.42333,35.2807687 464.496005,21.8947368 C479.556229,8.63151263 497.526983,2 518.408805,2 C539.923411,2 558.210551,8.63151263 573.270775,21.8947368 C588.584111,35.2807687 596.493774,54.3770689 597,79.1842105 L597,197.631579 C596.493774,222.315913 588.584111,241.35081 573.270775,254.736842 C558.210551,268.000066 539.923411,274.754385 518.408805,275 C500.058113,274.754385 483.732569,269.35093 469.431684,258.789474 C455.004243,248.473633 445.70248,233.552729 441.526115,214.026316 L482.340383,214.026316 C488.541651,229.008847 500.564339,236.5 518.408805,236.5 C543.593549,236.254385 556.565396,222.561539 557.324735,195.421053 L557.324735,170.184211 C538.467816,175.956169 520.876726,178.719299 504.550938,178.473684 C486.579915,178.719299 471.266808,172.701816 458.611157,160.421053 C445.955507,148.508712 439.754332,129.658024 440.007445,103.868421 Z M479.68271,81.5789474 L479.68271,103.5 C480.188936,130.640487 493.097505,144.333332 518.408805,144.578947 C543.593549,144.333332 556.565396,130.640487 557.324735,103.5 L557.324735,81.5789474 C556.565396,54.6840761 543.593549,40.9912305 518.408805,40.5 C493.097505,40.9912305 480.188936,54.6840761 479.68271,81.5789474 Z" id="9"></path>
        </g>
    </g>
</svg>