<svg viewBox="0 0 506 383" xmlns="http://www.w3.org/2000/svg">
  <g fill="none" fill-rule="evenodd">
    <path fill="#FFF" d="M0 0h506v383H0z"/>
    <path fill="#595A59" d="M85.7 329.3h1.4v8.5h4.7v1.4h-6.1zM97.6 334.2v2l.4.9.6.4c.3.2.6.3 1 .3.3 0 .6-.1.8-.3.3 0 .5-.2.6-.4l.4-.9.1-2-.1-2c0-.3-.2-.6-.4-.8-.1-.2-.3-.4-.6-.5l-.9-.2a2 2 0 0 0-.9.2l-.6.5c-.2.2-.3.5-.3.8l-.1 2m-1.5 0l.1-2.3c0-.4.2-.7.3-1a3.4 3.4 0 0 1 3-1.7 3.3 3.3 0 0 1 3 1.8c.2.2.3.5.4 1a20.2 20.2 0 0 1-.4 5.5c-.2.4-.6.8-1 1.2-.6.4-1.2.6-2 .6-.7 0-1.4-.2-1.9-.6a3.3 3.3 0 0 1-1.4-2.2l-.1-2.3M114.9 336.4c-.2 1-.6 1.6-1.2 2.1s-1.3.8-2.2.8c-.7 0-1.4-.2-1.9-.6a3.3 3.3 0 0 1-1.4-2.2l-.1-2.3.1-2.3c0-.4.2-.7.3-1a3.4 3.4 0 0 1 3-1.7c1 0 1.7.3 2.3.8.6.6 1 1.3 1.1 2.1h-1.5l-.7-1c-.3-.3-.7-.4-1.2-.4a2 2 0 0 0-.9.2l-.6.5c-.2.2-.3.5-.3.8l-.1 2v2l.4.9.6.4c.3.2.6.3 1 .3.7 0 1.4-.5 1.8-1.4h1.5zM124 335.6l-1.4-4.3-1.4 4.3h2.8zm.4 1.4h-3.6l-.7 2.2h-1.6l3.5-10h1.2l3.5 10h-1.5l-.8-2.2zM131.5 329.3h1.5v8.5h4.7v1.4h-6.2zM156 336.4c-.1 1-.5 1.6-1.1 2.1-.6.5-1.4.8-2.2.8-.7 0-1.4-.2-1.9-.6a3.3 3.3 0 0 1-1.4-2.2l-.1-2.3V332l.4-1c.2-.4.6-.8 1.1-1.1.5-.4 1.2-.6 2-.6s1.6.3 2.2.8c.6.6 1 1.3 1 2.1h-1.5c0-.4-.3-.7-.6-1-.3-.3-.7-.4-1.2-.4a2 2 0 0 0-.9.2l-.6.5-.4.8v4l.4.9.6.4c.3.2.6.3 1 .3.7 0 1.3-.5 1.7-1.4h1.6zM162 334.2v2l.5.9c.1.2.3.3.6.4.2.2.5.3.9.3l.9-.3c.2 0 .4-.2.5-.4.2-.3.4-.5.4-.9l.1-2v-2l-.5-.8-.5-.5-1-.2a2 2 0 0 0-.8.2c-.3.1-.5.3-.6.5l-.4.8-.1 2m-1.5 0l.1-2.3.4-1a3.3 3.3 0 0 1 3-1.7 3.3 3.3 0 0 1 3 1.8l.3 1v4.5c0 .4-.2.8-.3 1l-1.1 1.2c-.5.4-1.2.6-2 .6-.7 0-1.3-.2-1.8-.6a3.3 3.3 0 0 1-1.5-2.2v-2.3M172.9 329.3h1.3l4.4 7v-7h1.5v9.9h-1.4l-4.4-7v7H173zM185.9 329.3h1.4l4.3 7v-7h1.5v9.9h-1.4l-4.3-7v7h-1.5zM198.9 329.3h6.1v1.4h-4.6v2.8h4v1.4h-4v2.9h4.6v1.4H199zM216.6 336.4c-.2 1-.6 1.6-1.2 2.1s-1.3.8-2.1.8-1.4-.2-2-.6a3.3 3.3 0 0 1-1.4-2.2v-2.3-2.3c0-.4.2-.7.3-1a3.4 3.4 0 0 1 3-1.7c1 0 1.7.3 2.3.8.6.6 1 1.3 1.1 2.1h-1.5c-.1-.4-.4-.7-.7-1-.3-.3-.7-.4-1.2-.4a2 2 0 0 0-.8.2c-.3.1-.5.3-.6.5-.2.2-.4.5-.4.8l-.1 2v2c.1.4.3.6.5.9.1.2.3.3.6.4.2.2.5.3.8.3.9 0 1.5-.5 1.9-1.4h1.5zM222.8 330.6H220v-1.3h6.7v1.3h-2.6v8.6h-1.4zM231.6 339.2h1.4v-10h-1.4zM239.8 334.2l.1 2c0 .4.2.6.4.9.1.2.3.3.6.4.2.2.5.3.9.3l.9-.3c.2 0 .4-.2.6-.4l.4-.9v-2-2l-.4-.8-.6-.5-1-.2a2 2 0 0 0-.8.2 2 2 0 0 0-.6.5l-.4.8v2m-1.5 0V332l.4-1a3.3 3.3 0 0 1 3-1.7 3.3 3.3 0 0 1 3 1.8c.1.2.3.5.3 1l.1 2.2v2.3l-.4 1c-.2.4-.6.8-1.1 1.2-.5.4-1.2.6-2 .6-.7 0-1.3-.2-1.8-.6-.5-.4-.9-.8-1.1-1.2l-.2-.4-.1-.6-.1-2.3M250.7 329.3h1.4l4.3 7v-7h1.5v9.9h-1.4l-4.3-7v7h-1.5zM263.8 336.8c.8.6 1.7 1 2.7 1 1.3 0 2-.5 2-1.4 0-.7-.5-1.2-1.3-1.3l-1.3-.2c-.8-.2-1.4-.5-1.9-1-.4-.5-.6-1-.6-1.8 0-.9.2-1.6.8-2.1.5-.5 1.3-.8 2.3-.8 1.2 0 2.2.4 3.1 1l-.8 1.3c-.7-.5-1.5-.8-2.4-.8-.4 0-.8.1-1.1.3-.3.3-.5.6-.5 1.1 0 .3.1.6.3.8l1 .5 1.2.1a3 3 0 0 1 2 1c.4.6.6 1.2.6 1.9 0 1.9-1.2 2.8-3.4 2.9-1.4 0-2.6-.5-3.6-1.4l1-1.1zM275.1 339.2h1.4v-1.4H275zM292 333.7h3.4v2c0 1-.3 1.9-1 2.5-.6.7-1.4 1-2.4 1-.8 0-1.4-.1-2-.5a3.3 3.3 0 0 1-1.3-2.2l-.1-2.3V332l.4-1a3.4 3.4 0 0 1 3-1.7c1 0 1.7.3 2.2.8.6.6 1 1.3 1.1 2.1h-1.5c-.1-.4-.3-.7-.6-1a1.9 1.9 0 0 0-2.7.3l-.4.8v4c0 .4.2.6.4.9l.6.5.9.2c.5 0 1-.2 1.4-.6.4-.4.5-1 .6-1.5v-.5h-2v-1.5zM300.9 329.3h1.4v8.5h4.7v1.4H301zM312.7 334.2l.1 2 .4.9.6.4c.3.2.6.3 1 .3.3 0 .6-.1.8-.3.3 0 .4-.2.6-.4l.4-.9v-2-2c0-.3-.2-.6-.4-.8-.2-.2-.3-.4-.6-.5l-.9-.2a2 2 0 0 0-.9.2l-.6.5-.4.8v2m-1.5 0V332l.4-1a3.4 3.4 0 0 1 3-1.7 3.3 3.3 0 0 1 3 1.8c.2.2.3.5.3 1a19.7 19.7 0 0 1-.3 5.5c-.2.4-.6.8-1 1.2-.6.4-1.2.6-2 .6-.7 0-1.4-.2-1.9-.6a3.3 3.3 0 0 1-1.4-2.2l-.1-2.3M325 334.8v3h2.3c.5 0 1-.2 1.2-.5.2-.3.4-.6.4-1s-.2-.8-.4-1c-.3-.4-.7-.5-1.2-.5h-2.2zm0-4.2v2.9h2.2c.5 0 .9-.2 1.1-.5.3-.2.4-.6.4-1s-.1-.7-.4-1c-.2-.2-.6-.4-1.1-.4H325zm-1.4-1.3h3.7c1 0 1.7.2 2.2.7.4.5.7 1.1.7 2l-.3 1.1-.4.5-.7.5c.5.1.9.4 1.1.8.3.5.4 1 .4 1.5 0 .8-.2 1.5-.8 2-.5.5-1 .8-1.8.8h-4v-10zM340.1 335.6l-1.4-4.3-1.4 4.3h2.8zm.4 1.4H337l-.8 2.2h-1.5l3.5-10h1.2l3.5 10h-1.5l-.8-2.2zM347.6 329.3h1.5v8.5h4.6v1.4h-6.1zM365.7 339.2h1.4v-10h-1.4zM372.8 329.3h1.4l2.7 6.4 2.7-6.4h1.4v9.9h-1.5V333l-2 4.8h-1.2l-2-4.8v6.2h-1.5zM388.3 334h2.2c.5-.1.9-.3 1.2-.6.2-.3.4-.7.4-1.1 0-.3 0-.6-.2-.8l-.5-.5c-.3-.2-.6-.3-1-.3h-2.1v3.2zm-1.5-4.7h4.6l1 .7c.4.2.6.5.8 1a3 3 0 0 1-.5 3.4c-.4.6-1.2.9-2.2 1h-2.2v3.8h-1.5v-10zM402.4 335.6l-1.4-4.3-1.4 4.3h2.8zm.4 1.4h-3.6l-.8 2.2H397l3.5-10h1.2l3.5 10h-1.5l-.8-2.2zM416.2 336.4c-.2 1-.6 1.6-1.2 2.1s-1.3.8-2.1.8-1.4-.2-2-.6a3.3 3.3 0 0 1-1.4-2.2v-2.3-2.3c0-.4.2-.7.3-1a3.4 3.4 0 0 1 3-1.7c1 0 1.7.3 2.3.8.6.6 1 1.3 1.1 2.1h-1.5c-.1-.4-.4-.7-.7-1-.3-.3-.7-.4-1.2-.4a2 2 0 0 0-.8.2c-.3.1-.5.3-.6.5-.2.2-.4.5-.4.8l-.1 2v2c.1.4.3.6.5.9.1.2.3.3.6.4.2.2.5.3.8.3.9 0 1.5-.5 1.9-1.4h1.5zM422.3 330.6h-2.6v-1.3h6.7v1.3h-2.6v8.6h-1.5zM430 339.2h1.3v-1.4H430zM75 248.7h10.1l10 46.4h.1l12.3-46.4h7l12.2 46.4h.2l10-46.4h10L131.3 314h-8L111 266.9h-.2L98.8 314h-8z"/>
    <path fill="#00A3DA" d="M151.4 314h9.6v-65.3h-9.6zM199 290.6L190 262h-.2l-9.1 28.6H199zm2.8 8.8h-24l-4.9 14.6h-10.1l23-65.3h8l23 65.3h-10.1l-5-14.6z"/>
    <path d="M229.2 304.7h11.5c5.4 0 9.3-2 11.7-5.7a11 11 0 0 0 2-5.4 130.9 130.9 0 0 0 0-24.2c-.3-2.4-1.1-4.4-2.4-5.9a12.6 12.6 0 0 0-11.3-5.5h-11.5v46.7zm-9.6-56h22.2c8.5 0 15 3.7 19.3 11a20 20 0 0 1 2.9 7.7c.3 2.7.4 7.3.4 14 0 7-.2 11.8-.7 14.6a16.8 16.8 0 0 1-2.8 7.2c-1.9 3-4.5 5.6-7.8 7.6a21.4 21.4 0 0 1-12 3.2h-21.5v-65.3z" fill="#595A59"/>
    <path fill="#FFFFFE" d="M272 223l24.3-10.5 21.5-14.6 17.4-27.7 4.9-27.1-1-35.4-20-33.3-23.5-18.5L248.4 43l-35 8.9-19 12.4-18.8 19.8-12 23-2.5 28.3 6.2 30 8 15.4 21.6 25 24.3 13.6 28.4 4.9z"/>
    <path fill="#FFFEFE" d="M229.7 81l-7 57 47.7-15.9z"/>
    <path fill="#7ACBE7" d="M261.7 185l-39-47 47.7-15.9z"/>
    <path fill="#F1F9FB" d="M270.2 78l.2 44.1 34.2-9.4z"/>
    <path fill="#C1E5EF" d="M299 166.8l-28.6-44.7 34.2-9.4z"/>
    <path fill="#ABDCEC" d="M194.2 107.9l-2.4 45.5 30.9-15.4z"/>
    <path fill="#64C5E5" d="M224.4 188.6l-32.6-35.2 30.9-15.4z"/>
    <path fill="#F1F9FB" d="M222.7 138L194.2 108 229.7 81z"/>
    <path fill="#D4EDF4" d="M270.4 122.1l-40.7-41 40.5-3.1z"/>
    <path fill="#00B5E0" d="M224.4 188.6l-1.7-50.6 39 47z"/>
    <path fill="#A3D9EB" d="M270.4 122.1l-8.7 62.9 37.3-18.2z"/>
    <path fill="#FFFEFE" d="M229.7 81l10.1-28.2L270.2 78z"/>
    <path fill="#80CDE8" d="M229.7 81L205.4 71l34.4-18.1z"/>
    <path fill="#C1E5EF" d="M194.2 107.9l11.2-37L229.7 81z"/>
    <path fill="#C7E7F1" d="M205.4 70.9l8-19 26.4.9z"/>
    <path fill="#C1E5EF" d="M191.8 153.4l-16.6-30.2 19-15.3z"/>
    <path fill="#C1E5EF" d="M224.4 188.6l-32.6-35.2 7.2 35.4z"/>
    <path fill="#60C4E4" d="M175.2 123.2l3-29.4 16 14z"/>
    <path fill="#9DD6EA" d="M205.4 70.9l-27.3 23 16.1 14zM205.4 70.9l-11-6.6 19-12.4z"/>
    <path fill="#35BCE1" d="M178.1 93.8l16.4-29.5 10.9 6.6z"/>
    <path fill="#00A3DA" d="M178.1 93.8l-2.5-9.7 18.9-19.8z"/>
    <path fill="#C1E5EF" d="M175.2 123.2L163.5 107l14.6-13.2z"/>
    <path fill="#00B5E0" d="M163.5 107l12.1-23 2.5 9.8z"/>
    <path fill="#7ACBE7" d="M175.2 123.2l-1 39 17.5-8.8z"/>
    <path fill="#00B5E0" d="M175.2 123.2l-14 12.2 13 26.8z"/>
    <path fill="#00A3DA" d="M163.5 107l-2.4 28.4 14-12.2z"/>
    <path fill="#7ACBE7" d="M224.4 188.6l28 26.4 9.3-30z"/>
    <path fill="#9DD6EA" d="M261.7 185l25.4 20.3-34.7 9.7z"/>
    <path fill="#C1E5EF" d="M299 166.8L261.7 185l25.4 20.3z"/>
    <path fill="#A3D9EB" d="M252.4 215l19.6 8 15-17.7z"/>
    <path fill="#8FD1E9" d="M287 205.3l12-38.5 17.3 21.9z"/>
    <path fill="#C1E5EF" d="M299 166.8l27.6-13.6-10.3 35.5zM326.6 153.2l13.5-10.1-35.5-30.4z"/>
    <path fill="#35BCE1" d="M326.6 153.2l8.6 17-19 18.5z"/>
    <path fill="#7ACBE7" d="M340 143l-4.8 27.2-8.6-17z"/>
    <path fill="#C1E5EF" d="M316.3 188.7L287 205.3l9.2 7.2z"/>
    <path fill="#00B5E0" d="M296.3 212.5l21.5-14.6-1.5-9.2z"/>
    <path fill="#00A3DA" d="M335.2 170.2l-19 18.5 1.6 9.2z"/>
    <path fill="#9AD5EA" d="M199 188.8l25.3 23.2.1-23.4z"/>
    <path fill="#00B5E0" d="M224.3 212l28.1 3-28-26.4zM252.4 215l-2.8 9.3 22.4-1.4z"/>
    <path fill="#00A3DA" d="M224.3 212l25.3 12.3 2.8-9.3z"/>
    <path fill="#00B5E0" d="M224.3 212l-3 7.4 28.3 4.9zM224.3 212l-27.4-6.2 2-17z"/>
    <path fill="#7ACBE7" d="M197 205.8l24.2 13.6 3.1-7.4z"/>
    <path fill="#00B5E0" d="M174.2 162.2l1 18.6 23.8 8z"/>
    <path fill="#00A9DC" d="M175.2 180.8l21.7 25 2-17z"/>
    <path fill="#7ACBE7" d="M174.2 162.2l-6.9 3.3 8 15.3z"/>
    <path fill="#A3D9EB" d="M167.3 165.5l7-3.3-13.2-26.8z"/>
    <path fill="#D9EFF6" d="M270.2 78l31.5-3.3 2.9 38z"/>
    <path fill="#F1F9FB" d="M304.6 112.7l22-3.2-25-34.8z"/>
    <path fill="#FFFEFE" d="M340 143l-35.4-30.3 22-3.2z"/>
    <path fill="#C1E5EF" d="M326.6 109.5L340 143l-1-35.4z"/>
    <path fill="#60C4E4" d="M301.7 74.7l24.9 34.8 12.6-1.8z"/>
    <path fill="#00A3DA" d="M301.7 74.7l17.5-.3 20 33.3z"/>
    <path fill="#EBF6FA" d="M270.2 78l-30.4-25.2 28.4-1.2z"/>
    <path fill="#9DD6EA" d="M270.2 78l-2-26.4 33.5 23z"/>
    <path fill="#FFFEFE" d="M268.2 51.6l27.4 4.3 6 18.8z"/>
    <path fill="#4EC0E3" d="M301.7 74.7l-6.1-18.8 23.6 18.5z"/>
    <path fill="#C1E5EF" d="M239.8 52.8l8.6-9.8 19.8 8.6z"/>
    <path fill="#8FD1E9" d="M213.4 51.9l35-8.9-8.6 9.8z"/>
    <path fill="#7ACBE7" d="M248.4 43l19.8 8.6 27.4 4.3z"/>
    <path fill="#F1F9FB" d="M299 166.8l27.6-13.6-22-40.5z"/>
    <path fill="#FFFFFE" d="M199 188.8l-24.8-26.6 17.5-8.8zM287 205.3l9.3 7.2L272 223z"/>
    <path d="M281.5 305.3l24.8-32c1-1.4 1.6-2.6 2-3.7l.3-3a10 10 0 0 0-2.2-6.4 8.3 8.3 0 0 0-6.6-2.8c-2.5 0-4.5.8-6.2 2.5a11 11 0 0 0-3 7h-9.1c.2-5.5 2-10 5.3-13.6 3.3-3.4 7.4-5.2 12.3-5.3 5.5.1 10 1.9 13.3 5.4 3.5 3.5 5.2 8 5.3 13.4 0 4.3-1.3 8.2-3.8 11.5l-20.5 26.5h24.3v9.3h-36.2v-8.8zM350.9 267.4c-.2-6.6-3.2-9.9-9-10-5.8.1-8.8 3.4-9 10v27.9c.2 6.6 3.2 10 9 10s8.8-3.4 9-10v-27.9zm-27-.6a17.9 17.9 0 0 1 18-18.8c5 0 9.1 1.7 12.6 4.9 3.5 3.3 5.3 8 5.4 14v28.9c0 6-1.9 10.6-5.4 13.9a18.1 18.1 0 0 1-25 0 17.8 17.8 0 0 1-5.6-13.9v-29zM372.6 258.5l-9 6.9v-10l9-6.8h9.1v65.6h-9zM392.6 273.3v-6c0-6 2.1-10.6 6-13.8 3.8-3.3 8.2-4.9 13.4-4.9a20 20 0 0 1 13.6 4.9c3.8 3.2 5.7 7.8 5.9 13.8V296c-.2 6-2.1 10.6-6 13.8a20.4 20.4 0 0 1-13.5 5c-4.5-.1-8.6-1.4-12.1-4A17.1 17.1 0 0 1 393 300h10c1.6 3.6 4.6 5.4 9 5.4 6.2 0 9.5-3.4 9.6-10v-6c-4.6 1.4-9 2-13 2-4.5 0-8.2-1.4-11.4-4.4-3.1-2.9-4.6-7.4-4.6-13.7zm9.8-5.4v5.3c.2 6.6 3.4 9.9 9.6 10 6.2-.1 9.5-3.4 9.6-10V268c-.1-6.5-3.4-9.8-9.6-10-6.2.2-9.4 3.5-9.6 10z" fill="#00A3DA"/>
  </g>
</svg>
