<svg viewBox="0 0 3741 1138" xmlns="http://www.w3.org/2000/svg">
  <g fill="none" fill-rule="evenodd">
    <path fill="#666" d="M1156.2 725.1h8.7V776h28v8.5h-36.7zM1218.5 754.7c0-6.9.2-11.5.6-13.8a20.1 20.1 0 0 1 20-16.3 19.7 19.7 0 0 1 17.8 10.7c1 1.4 1.7 3.3 2 5.6.4 2.4.6 7 .6 13.8 0 6.8-.2 11.4-.5 13.8a14 14 0 0 1-2 5.7 20 20 0 0 1-18 10.6c-4.5 0-8.3-1.2-11.3-3.3a19.6 19.6 0 0 1-8.6-13c-.4-2.4-.6-7-.6-13.8zm8.7 0c0 5.9.2 9.8.6 11.9.4 2 1.1 3.7 2.3 5 .9 1.2 2 2.2 3.6 3a10 10 0 0 0 5.3 1.3c2 0 3.8-.4 5.4-1.3a9.7 9.7 0 0 0 3.4-3c1.2-1.3 2-3 2.4-5 .4-2 .6-6 .6-11.9 0-5.8-.2-9.8-.6-11.9-.4-2-1.2-3.6-2.4-5-.8-1.1-2-2.2-3.4-3-1.6-.8-3.3-1.2-5.4-1.2-2 0-3.8.4-5.3 1.2-1.5.8-2.7 1.9-3.6 3a9.8 9.8 0 0 0-2.3 5c-.4 2.1-.6 6.1-.6 12zM1330.9 767.8a22.3 22.3 0 0 1-7.2 12.7 20 20 0 0 1-13 4.4c-4.5-.1-8.2-1.3-11.3-3.4a19.7 19.7 0 0 1-8.6-13c-.4-2.4-.6-7-.6-13.8 0-6.8.2-11.4.6-13.8.4-2.3 1-4.2 2-5.6a20.1 20.1 0 0 1 18-10.7c5.5 0 10 1.8 13.5 5.1s5.7 7.5 6.6 12.5h-9.2a13 13 0 0 0-3.9-6.1c-2-1.7-4.3-2.5-7-2.5-2.1 0-3.9.4-5.4 1.2a11.6 11.6 0 0 0-5.8 8c-.5 2.1-.7 6.1-.7 12 0 5.8.2 9.7.7 11.8a10 10 0 0 0 2.2 5c1 1.2 2.1 2.2 3.6 3a10 10 0 0 0 5.3 1.3c5 0 8.6-2.7 11-8h9.2zM1388 771.1h-21.8l-4.4 13.3h-9.2l20.8-59.3h7.3l20.9 59.3h-9.2L1388 771zm-2.5-8l-8.3-25.9h-.2l-8.3 26h16.8zM1430.3 725.1h8.7V776h28v8.5h-36.7zM1577.2 767.8a22.4 22.4 0 0 1-7.2 12.7c-3.6 2.9-8 4.4-13 4.4-4.5-.1-8.2-1.3-11.2-3.4a19.5 19.5 0 0 1-8.7-13c-.4-2.4-.6-7-.6-13.8 0-6.8.2-11.4.6-13.8a20 20 0 0 1 20-16.3c5.5 0 10 1.8 13.5 5.1s5.7 7.5 6.6 12.5h-9.2c-.7-2.4-2-4.5-3.9-6.1-2-1.7-4.3-2.5-7-2.5-2.1 0-3.9.4-5.4 1.2-1.5.8-2.7 1.9-3.6 3a10 10 0 0 0-2.2 5 72 72 0 0 0-.7 12c0 5.8.2 9.7.7 11.8a10 10 0 0 0 2.2 5c1 1.2 2.1 2.2 3.6 3a10 10 0 0 0 5.3 1.3c5 0 8.6-2.7 11-8h9.2zM1603.8 754.7c0-6.9.2-11.5.6-13.8a20.1 20.1 0 0 1 20-16.3 19.7 19.7 0 0 1 17.9 10.7 14 14 0 0 1 2 5.6c.3 2.4.5 7 .5 13.8 0 6.8-.2 11.4-.5 13.8-.4 2.4-1 4.3-2 5.7a20 20 0 0 1-18 10.6c-4.5 0-8.3-1.2-11.3-3.3a19.6 19.6 0 0 1-8.6-13c-.4-2.4-.6-7-.6-13.8zm8.7 0c0 5.9.2 9.8.6 11.9.4 2 1.2 3.7 2.3 5a10 10 0 0 0 3.6 3 10 10 0 0 0 5.3 1.3c2 0 3.9-.4 5.4-1.3a9.7 9.7 0 0 0 3.5-3c1.1-1.3 1.9-3 2.3-5 .4-2 .6-6 .6-11.9 0-5.8-.2-9.8-.6-11.9-.4-2-1.2-3.6-2.3-5a11 11 0 0 0-3.5-3c-1.5-.8-3.3-1.2-5.4-1.2-2 0-3.8.4-5.3 1.2-1.5.8-2.7 1.9-3.6 3-1.1 1.4-1.9 3-2.3 5a76 76 0 0 0-.6 12zM1677.5 725.1h8.2l26 42.1h.2v-42h8.7v59.2h-8.3l-26-42.2v42.2h-8.8zM1755.5 725.1h8.1l26 42.1h.2v-42h8.7v59.2h-8.2l-26-42.2h-.2v42.2h-8.6zM1833.3 725.1h36.7v8.5h-28v17h23.9v7.9h-24v17.4h28v8.5h-36.6zM1939.3 767.8a22.4 22.4 0 0 1-7.2 12.7c-3.7 2.9-8 4.4-13 4.4-4.5-.1-8.3-1.3-11.3-3.4-3-2.1-5.3-4.5-6.7-7.3l-1.1-2.5-.8-3.2c-.4-2.4-.6-7-.6-13.8 0-6.8.2-11.4.6-13.8a20.2 20.2 0 0 1 20-16.3c5.5 0 10 1.8 13.5 5.1s5.7 7.5 6.6 12.5h-9.2a13 13 0 0 0-3.9-6.1c-2-1.7-4.3-2.5-7.1-2.5-2 0-3.8.4-5.3 1.2-1.5.8-2.7 1.9-3.6 3a9.9 9.9 0 0 0-2.3 5c-.4 2.1-.6 6.1-.6 12 0 5.8.2 9.7.6 11.8a10 10 0 0 0 2.3 5c.9 1.2 2.1 2.2 3.6 3a10 10 0 0 0 5.3 1.3c4.9 0 8.5-2.7 11-8h9.2zM1976 733h-15.8v-7.9h40.2v8h-15.8v51.3h-8.7zM2028.8 725.1h8.7v59.3h-8.7zM2069.3 754.7c0-6.9.2-11.5.6-13.8.4-2.3 1-4.2 1.9-5.7a20 20 0 0 1 18-10.6 19.7 19.7 0 0 1 18 10.7 14 14 0 0 1 2 5.6c.3 2.4.4 7 .4 13.8 0 6.8-.1 11.4-.5 13.8a14 14 0 0 1-2 5.7 20 20 0 0 1-18 10.6c-4.4 0-8.2-1.2-11.2-3.3-3.1-2.1-5.3-4.5-6.7-7.3l-1.2-2.5c-.3-.9-.5-2-.7-3.2-.4-2.4-.6-7-.6-13.8zm8.7 0c0 5.9.2 9.8.6 11.9.4 2 1.1 3.7 2.2 5 1 1.2 2.2 2.2 3.7 3a10 10 0 0 0 5.2 1.3c2.1 0 4-.4 5.5-1.3a9.6 9.6 0 0 0 3.4-3c1.2-1.3 2-3 2.4-5 .3-2 .5-6 .5-11.9a79 79 0 0 0-.5-11.9c-.5-2-1.2-3.6-2.4-5-.8-1.1-2-2.2-3.4-3-1.6-.8-3.4-1.2-5.5-1.2-2 0-3.8.4-5.2 1.2-1.5.8-2.7 1.9-3.7 3a10 10 0 0 0-2.2 5c-.4 2.1-.6 6.1-.6 12zM2143 725.1h8.2l26 42.1h.1v-42h8.7v59.2h-8.2l-26-42.2h-.1v42.2h-8.7zM2221.5 770c4.6 3.9 10 5.9 16.3 6 7.5-.2 11.3-3 11.4-8.3 0-4.4-2.4-7.1-7.5-8l-7.6-1.1c-5-.9-8.7-2.7-11.3-5.6a16 16 0 0 1-4-11c0-5.2 1.7-9.4 5-12.6 3.3-3.1 7.9-4.7 13.8-4.8 7.1.2 13.3 2.2 18.6 6.2l-4.9 7.3a26 26 0 0 0-14.2-4.5c-2.7 0-4.9.7-6.7 2-1.8 1.5-2.8 3.6-2.8 6.5 0 1.7.6 3.2 1.9 4.6a11 11 0 0 0 6.2 3l6.4.9c5.4.7 9.4 2.7 12 6 2.5 3.1 3.8 6.8 3.8 11-.3 11.3-7 17.1-20.2 17.3a32 32 0 0 1-21.9-8.1l5.7-6.8zM2289 776h8.3v8.4h-8.2zM2390 751.8h20.4v12c0 6-2 11-5.9 15a20 20 0 0 1-14.5 6c-4.5 0-8.3-1.2-11.3-3.3a19.5 19.5 0 0 1-8.6-13c-.4-2.4-.6-7-.6-13.8 0-6.8.2-11.4.6-13.8.4-2.3 1-4.2 1.9-5.6a20.1 20.1 0 0 1 18-10.7c5.5 0 10 1.8 13.5 5.1 3.5 3.4 5.7 7.5 6.6 12.5h-9.2c-.7-2.4-2-4.5-3.9-6.1-2-1.7-4.3-2.5-7-2.5-2.1 0-3.9.4-5.3 1.2-1.5.8-2.7 1.9-3.7 3a9.9 9.9 0 0 0-2.2 5c-.4 2.1-.6 6.1-.6 12 0 5.8.2 9.7.6 11.8a10 10 0 0 0 2.2 5c1 1.2 2.2 2.2 3.7 3a10 10 0 0 0 5.3 1.3 11 11 0 0 0 8.4-3.6c2.2-2.2 3.3-5.2 3.4-9v-3H2390v-8.5zM2443.2 725.1h8.7V776h28v8.5h-36.7zM2505.4 754.7c0-6.9.2-11.5.6-13.8a17 17 0 0 1 2-5.7 20.2 20.2 0 0 1 18-10.6 19.7 19.7 0 0 1 17.9 10.7c1 1.4 1.6 3.3 2 5.6.3 2.4.5 7 .5 13.8 0 6.8-.2 11.4-.5 13.8-.4 2.4-1 4.3-2 5.7a20 20 0 0 1-18 10.6c-4.5 0-8.3-1.2-11.3-3.3a19.7 19.7 0 0 1-7.8-9.8l-.8-3.2c-.4-2.4-.6-7-.6-13.8zm8.7 0c0 5.9.2 9.8.6 11.9a10 10 0 0 0 2.3 5c.9 1.2 2.1 2.2 3.6 3a10 10 0 0 0 5.3 1.3c2 0 3.9-.4 5.4-1.3a9.8 9.8 0 0 0 3.5-3c1.1-1.3 1.9-3 2.3-5 .4-2 .6-6 .6-11.9a78 78 0 0 0-.6-11.9c-.4-2-1.2-3.6-2.3-5a11 11 0 0 0-3.5-3c-1.5-.8-3.3-1.2-5.4-1.2-2 0-3.8.4-5.3 1.2-1.5.8-2.7 1.9-3.6 3a9.9 9.9 0 0 0-2.3 5c-.4 2.1-.6 6.1-.6 12zM2579.1 725.1h22.3c5.6 0 9.8 1.5 12.7 4.4 2.8 3 4.3 6.7 4.3 11.5 0 2.4-.5 4.8-1.7 7-.6 1-1.5 2-2.6 3-1.2 1-2.5 2-4.2 2.7 0 0 1.7-.8 0 .2 3.1.8 5.5 2.5 7.1 5 1.5 2.7 2.3 5.6 2.3 8.6 0 5.2-1.6 9.2-4.7 12.2a15 15 0 0 1-11.3 4.7h-24.2V725zm8.7 33v17.8h13.4c3.3 0 5.6-1 7.1-2.7a9.2 9.2 0 0 0 2.3-6.2c0-2.4-.8-4.5-2.3-6.3-1.5-1.7-3.8-2.6-7-2.6h-13.5zm0-25v17h12.6c3.1 0 5.5-.8 7-2.6a8.2 8.2 0 0 0 2.3-6c0-2.3-.8-4.4-2.3-6-1.5-1.6-3.9-2.4-7-2.4h-12.6zM2680.3 771.1h-21.8l-4.4 13.3h-9.2l20.8-59.3h7.3l20.9 59.3h-9.2l-4.4-13.3zm-2.5-8l-8.3-25.9h-.2l-8.3 26h16.8zM2722.6 725.1h8.7V776h28v8.5h-36.7zM2830.8 725.1h8.7v59.3h-8.7zM2873.3 725.1h8.1l16.5 38.7L2914 725h8.3v59.3h-8.7v-37h-.2l-12 28.5h-7.3l-12-28.5h-.2v37h-8.6zM3052.8 771.1H3031l-4.4 13.3h-9.2l20.9-59.3h7.3l20.8 59.3h-9.1l-4.5-13.3zm-2.5-8l-8.3-25.9h-.1l-8.3 26h16.7zM3133 767.8a22.4 22.4 0 0 1-7.2 12.7c-3.6 2.9-8 4.4-13 4.4-4.5-.1-8.2-1.3-11.2-3.4a19.4 19.4 0 0 1-8.7-13c-.4-2.4-.5-7-.5-13.8 0-6.8.2-11.4.5-13.8a20.1 20.1 0 0 1 20-16.3c5.5 0 10 1.8 13.5 5.1s5.7 7.5 6.6 12.5h-9.2a13 13 0 0 0-3.9-6.1c-2-1.7-4.3-2.5-7-2.5-2.1 0-3.9.4-5.4 1.2-1.4.8-2.7 1.9-3.6 3-1.1 1.4-1.8 3-2.2 5a74 74 0 0 0-.7 12c0 5.8.3 9.7.7 11.8.4 2 1.1 3.7 2.2 5 1 1.2 2.2 2.2 3.7 3a10 10 0 0 0 5.2 1.3c5 0 8.6-2.7 11-8h9.2zM3169.6 733h-15.7v-7.9h40.1v8h-15.7v51.3h-8.7zM3215.2 776h8.2v8.4h-8.2zM1125.8 467h31.7l31.1 145.5h.6l38.4-145.5h21.8l38.3 145.5h.6l31.3-145.5h31.6l-49.5 204.7h-25.1L1238.8 524h-.5l-38 147.7h-25zM1358.3 569.3c0-23.8.7-39.7 2-47.8 1.5-8 3.7-14.6 6.7-19.6a69.7 69.7 0 0 1 62.1-36.6 67.7 67.7 0 0 1 62 36.8 48 48 0 0 1 7 19.5c1 8 1.7 24 1.7 47.7 0 23.4-.6 39.2-1.8 47.5a48.5 48.5 0 0 1-7 19.8 69.2 69.2 0 0 1-62 36.8 68 68 0 0 1-39-11.8 67.7 67.7 0 0 1-27-33.9c-1-2.9-2-6.5-2.7-11-1.3-8.2-2-24-2-47.4zm30 0c0 20.2.7 33.8 2.2 41a34.7 34.7 0 0 0 7.8 17.3c3.1 4.2 7.3 7.6 12.5 10.2 5 3.1 11.1 4.7 18.2 4.7 7.2 0 13.4-1.6 18.7-4.7 5-2.6 9-6 12-10.2a36.6 36.6 0 0 0 8-17.3c1.4-7.2 2-20.8 2-41 0-20.1-.6-33.9-2-41.2-1.4-7-4.1-12.6-8-17-3-4.2-7-7.8-12-10.6a40.5 40.5 0 0 0-37 0 38.2 38.2 0 0 0-12.4 10.6c-4 4.4-6.5 10-7.8 17-1.5 7.3-2.2 21-2.2 41.2zM1680 467h30v175.5h96.7v29.2h-126.6zM1822.1 467h69.4c26.8.2 47 11.7 60.4 34.5a62.8 62.8 0 0 1 9.1 24.2c1 8.4 1.5 23 1.5 43.6 0 22-.8 37.4-2.3 46a52.7 52.7 0 0 1-8.9 22.4 70 70 0 0 1-24.2 23.9 67.1 67.1 0 0 1-37.6 10H1822V467zm30 175.5h36c16.9 0 29.1-6 36.8-17.9 3.3-4.4 5.4-10 6.4-16.7.8-6.7 1.2-19.2 1.2-37.4a412 412 0 0 0-1.2-38.3c-1.1-7.7-3.7-14-7.8-18.7a39.4 39.4 0 0 0-35.4-17.3s15.2-.4-36 0v146.3z"/>
    <path fill="#333" d="M2036.5 467h30v204.7h-30zM2194.4 625.9h-75.2l-15.2 45.8h-31.8l72-204.7h25.2l72 204.7h-31.6l-15.4-45.8zm-8.6-27.5l-28.6-89.5h-.6l-28.7 89.5h58z"/>
    <path d="M2301.4 467h69.4c26.8.2 47 11.7 60.4 34.5a62.8 62.8 0 0 1 9.1 24.2c1 8.4 1.5 23 1.5 43.6 0 22-.8 37.4-2.3 46a52.7 52.7 0 0 1-8.9 22.4 70 70 0 0 1-24.2 23.9 67 67 0 0 1-37.6 10h-67.4V467zm30 175.5h36c16.9 0 29.1-6 36.7-17.9 3.4-4.4 5.5-10 6.4-16.7.9-6.7 1.3-19.2 1.3-37.4a412 412 0 0 0-1.3-38.3c-1-7.7-3.6-14-7.7-18.7a39.4 39.4 0 0 0-35.4-17.3s15.2-.4-36 0v146.3zM2561.1 625.9H2486l-15.2 45.8h-31.8l72-204.7h25.2l72 204.7h-31.6l-15.4-45.8zm-8.6-27.5l-28.6-89.5h-.6l-28.7 89.5h58zM2630.2 587.5L2570.6 467h31.8l42 90.8 42-90.8h31.9l-59.7 120.4v84.3h-28.4z" fill="#666"/>
    <path d="M2765.6 644.2l77.6-100.2c3-4 5-7.8 6.1-11.2.8-3.3 1.1-6.4 1.1-9.3a31 31 0 0 0-7-20.1 26 26 0 0 0-20.4-9c-7.8 0-14.3 2.7-19.5 7.8a34 34 0 0 0-9.5 21.8h-28.4c.8-17 6.3-31 16.6-42.2a52.3 52.3 0 0 1 38.6-16.5c17 .2 30.9 5.8 41.5 16.9a58 58 0 0 1 16.5 41.7c0 13.5-4 25.5-12 36l-63.8 82.6h75.8v29.2h-113.2v-27.5zM2894 524c.2-18.8 6-33.4 17.6-43.6a54.7 54.7 0 0 1 38.6-15.1c15.4 0 28.6 5 39.4 15.2 11 10.2 16.6 24.7 17 43.6 0 0-.4-18.9 0 90.3-.4 18.8-6 33.3-17 43.5a56.5 56.5 0 0 1-39.4 15.5c-15-.2-27.8-5.4-38.6-15.5-11.6-10.1-17.4-24.6-17.6-43.4V524zm84.2 1.9c-.5-20.6-9.9-31-28-31.4-18.2.4-27.5 10.8-27.9 31.4 0 0 .4-20.6 0 86.9.4 20.7 9.7 31.2 28 31.4 18-.2 27.4-10.7 28-31.4v-87zM3052 498l-28.3 21.3V488L3052 467h28.4v204.7h-28.4z" fill="#333"/>
    <path d="M779.2 298.4l141 38.5 70.7 55.3 59.7 99.6 2.7 105.7-14.7 81.2-51.9 82.6-64.4 43.9-72.6 31 45.2-52.6-45.2 52.6-66.8 4-84.8-14.7-72.6-40.6-65-74.5-23.5-46-18.6-90 7.2-84.7 36.2-68.6 56.3-58.9 56.7-37.3 104.4-26.5zM610 628.3l14.5 71.2-14.5-71.2z" fill="#FFF"/>
    <path fill="#FFF" d="M723.4 412.1l-21 170.3L845.2 535z"/>
    <path fill="#D2D2D2" d="M819 722.7L702.4 582.4 845.2 535z"/>
    <path fill="#F5F5F5" d="M844.5 403l.7 132 102-28.4z"/>
    <path fill="#EFEFEF" d="M930.7 668.6L845.2 535l102-28.4z"/>
    <path fill="#E1E1E1" d="M617.3 492.3l-7.3 136 92.4-45.9z"/>
    <path fill="#C5C5C5" d="M707.5 733.7L610 628.3l92.4-45.9z"/>
    <path fill="#F3F3F3" d="M702.4 582.4l-85.1-90.1 106-80.2z"/>
    <path fill="#F0F0F0" d="M845.2 535L723.4 412l121-9.1z"/>
    <path fill="#B6B6B6" d="M707.5 733.7l-5-151.3L819 722.7z"/>
    <path fill="#E6E6E6" d="M845.2 535L819 722.7l111.7-54.1z"/>
    <path fill="#FFF" d="M723.4 412.1l30.3-84.5 90.8 75.4z"/>
    <path fill="#D9D9D9" d="M723.4 412.1l-72.8-30.4 103-54.1z"/>
    <path fill="#FAFAFA" d="M617.3 492.3l33.3-110.6 72.8 30.4z"/>
    <path fill="#F0F0F0" d="M650.6 381.7l24.2-56.8 78.9 2.7z"/>
    <path fill="#EFEFEF" d="M610 628.3l-49.6-90.1 56.9-46zM707.5 733.7L610 628.3l21.6 106z"/>
    <path fill="#D5D5D5" d="M560.4 538.2l8.8-87.9 48 42z"/>
    <path fill="#E5E5E5" d="M650.6 381.7l-81.4 68.6 48 42zM650.6 381.7l-32.5-19.5 56.7-37.3z"/>
    <path fill="#C7C7C7" d="M569.2 450.3l49-88.1 32.4 19.5z"/>
    <path fill="#B3B3B3" d="M569.2 450.3l-7.4-29.2 56.3-58.9z"/>
    <path fill="#EFEFEF" d="M560.4 538.2l-34.8-48.5 43.6-39.4z"/>
    <path fill="#CCC" d="M525.6 489.7l36.2-68.6 7.4 29.2z"/>
    <path fill="#DCDCDC" d="M560.4 538.2l-2.8 116.5 52.4-26.4z"/>
    <path fill="#C8C8C8" d="M560.4 538.2l-42 36.3 39.2 80.2z"/>
    <path fill="#A6A6A6" d="M525.6 489.7l-7.2 84.8 42-36.3z"/>
    <path fill="#CCC" d="M707.5 733.7l83.7 78.7 27.8-89.7z"/>
    <path fill="#E5E5E5" d="M819 722.7l76 61-103.8 28.7z"/>
    <path fill="#EFEFEF" d="M930.7 668.6L819 722.7l76 61z"/>
    <path fill="#E6E6E6" d="M791.2 812.4l58.5 23.8 45.2-52.6z"/>
    <path fill="#C7C7C7" d="M895 783.6l35.7-115 51.5 65.3z"/>
    <path fill="#EFEFEF" d="M930.7 668.6l82.4-40.7-31 106z"/>
    <path fill="#EFEFEF" d="M1013.1 628l40.2-30.5-106.1-90.9z"/>
    <path fill="#CECECE" d="M1013.1 628l25.5 50.7-56.4 55.2z"/>
    <path fill="#C2C2C2" d="M1053.3 597.5l-14.7 81.2-25.5-50.8z"/>
    <path fill="#EFEFEF" d="M982.2 733.9l-87.3 49.7 27.4 21.6z"/>
    <path fill="#C8C8C8" d="M922.3 805.2l64.4-44-4.5-27.3z"/>
    <path fill="#AEAEAE" d="M1038.6 678.7l-56.4 55.2 4.5 27.4z"/>
    <path fill="#E4E4E4" d="M631.6 734.3l75.6 69.4.3-70z"/>
    <path fill="#BBB" d="M707.2 803.7l84 8.7-83.7-78.7z"/>
    <path fill="silver" d="M791.2 812.4l-8.3 27.8 66.8-4z"/>
    <path fill="#999" d="M707.2 803.7l75.7 36.5 8.3-27.8z"/>
    <path fill="#BBB" d="M707.2 803.7l-9 21.8 84.7 14.7z"/>
    <path fill="#C7C7C7" d="M707.2 803.7l-81.7-18.8 6-50.6z"/>
    <path fill="#DCDCDC" d="M625.5 784.9l72.6 40.6 9.1-21.8z"/>
    <path fill="#BDBDBD" d="M557.6 654.7l3 55.7 71 23.9z"/>
    <path fill="#AEAEAE" d="M560.6 710.4l64.9 74.5 6-50.6z"/>
    <path fill="#CCC" d="M557.6 654.7l-20.6 9.8 23.6 46z"/>
    <path fill="#E6E6E6" d="M537 664.5l20.6-9.8-39.2-80.2zM844.5 403l94-10 8.7 113.6z"/>
    <path fill="#F3F3F3" d="M947.2 506.6l65.7-9.6-74.3-104z"/>
    <path fill="#FFF" d="M1053.3 597.5l-106-90.9 65.6-9.6z"/>
    <path fill="#E1E1E1" d="M1012.9 497l40.4 100.5-2.7-105.7z"/>
    <path fill="#CACACA" d="M938.6 393l74.3 104 37.7-5.2z"/>
    <path fill="#A9A9A9" d="M938.6 393l52.3-.8 59.7 99.6z"/>
    <path fill="#F8F8F8" d="M844.5 403l-90.8-75.4 84.9-3.6z"/>
    <path fill="#D4D4D4" d="M844.5 403l-6-79 100 69z"/>
    <path fill="#FFF" d="M838.6 324l81.7 13 18.3 56z"/>
    <path fill="#C7C7C7" d="M938.6 393l-18.3-56 70.6 55.2z"/>
    <path fill="#E9E9E9" d="M753.7 327.6l25.5-29.2 59.4 25.6z"/>
    <path fill="#C7C7C7" d="M674.8 325l104.4-26.6-25.5 29.2z"/>
    <path fill="#C2C2C2" d="M779.2 298.4l59.4 25.6 81.7 13z"/>
    <path fill="#FCFCFC" d="M930.7 668.6l82.4-40.7-65.9-121.3z"/>
    <path fill="#FFF" d="M631.6 734.3l-74-79.6 52.4-26.4zM895 783.6l27.3 21.6-72.6 31z"/>
    <path d="M850 836.1l72.3-31" fill="#EEE"/>
    <path d="M2966 733.6V753h13.2c3.3 0 5.8-1.1 7.5-3.1 1.6-2 2.4-4.2 2.4-6.6 0-2-.4-3.7-1-5a7.5 7.5 0 0 0-2.8-3 11 11 0 0 0-6.4-1.7h-13zm-9 51.4v-60h21.4c2.3 0 4.5.2 6.7.7a18 18 0 0 1 6.5 3.5c2 1.3 3.4 3.3 4.6 5.8 1.2 2.4 1.8 5.2 1.8 8.5 0 4.5-1.5 8.5-4.6 12.2-3.2 3.8-7.8 5.8-13.9 5.9H2966V785h-8.9zM1553.1 494.6v61.8h45.5c11.3-.2 19.7-3.5 25.3-10a32 32 0 0 0 8.3-22.5c-.1-10.6-3.5-18.3-9.9-23-5-4.2-12.4-6.3-22-6.3H1553zM1523 671V467h77.5a60 60 0 0 1 40.5 13.4 54.8 54.8 0 0 1 19.7 43.5c-.3 27.8-13.2 46.6-38.4 56.6l46 90.5h-35.8l-41-87.2h-38.4V671H1523z" fill="#666"/>
    <path d="M3096 541v-19c.2-18.9 6.4-33.5 18.7-43.8A60.2 60.2 0 0 1 3156 463c16.5 0 30.5 5 42 15.2 11.7 10.3 17.7 24.9 18.1 43.9v90.7c-.4 18.9-6.4 33.4-18.1 43.7a62.3 62.3 0 0 1-42 15.5c-14-.2-26.5-4.3-37.4-12.4a54.2 54.2 0 0 1-21.3-34.3h31.2c4.7 11.5 13.9 17.2 27.5 17.2 19.3-.2 29.2-10.6 29.8-31.4v-19.3a131.3 131.3 0 0 1-40.4 6.3 47.5 47.5 0 0 1-35-13.8c-9.7-9.1-14.5-23.6-14.3-43.3zm30.3-17v16.7c.4 20.8 10.3 31.3 29.6 31.5 19.3-.2 29.2-10.7 29.8-31.5V524c-.6-20.6-10.5-31-29.8-31.4-19.3.4-29.2 10.8-29.6 31.4z" fill="#333"/>
  </g>
</svg>
