<svg viewBox="0 0 506 383" xmlns="http://www.w3.org/2000/svg">
  <g fill="none" fill-rule="evenodd">
    <path fill="#FFF" d="M0 0h506v383H0z"/>
    <path fill="#FFFFFE" d="M246.2 53.3l-36 9.2-19.7 12.9-19.4 20.4-12.5 23.7-2.5 29.3 6.4 31.1 8.1 15.9 22.5 25.7 25.1 14 29.3 5.2 23.1-1.4 25.1-10.7 22.3-15.2 18-28.6 5-28-1-36.6-20.6-34.5-24.4-19z"/>
    <path fill="#FFFEFE" d="M227 92.6l-7.3 59 49.4-16.5z"/>
    <path fill="#7ACBE7" d="M260 200l-40.3-48.5 49.4-16.4z"/>
    <path fill="#F1F9FB" d="M268.8 89.5l.3 45.6 35.2-9.8z"/>
    <path fill="#C1E5EF" d="M298.6 181.3l-29.5-46.2 35.2-9.8z"/>
    <path fill="#ABDCEC" d="M190.3 120.4l-2.6 47 32-15.9z"/>
    <path fill="#64C5E5" d="M221.5 203.8l-33.8-36.4 32-15.9z"/>
    <path fill="#F1F9FB" d="M219.7 151.5l-29.4-31.1 36.6-27.8z"/>
    <path fill="#D4EDF4" d="M269 135.1l-42-42.5 41.8-3.1z"/>
    <path fill="#00B5E0" d="M221.5 203.8l-1.8-52.3L260 200z"/>
    <path fill="#A3D9EB" d="M269 135.1l-9 65 38.6-18.8z"/>
    <path fill="#FFFEFE" d="M227 92.6l10.4-29.2 31.4 26z"/>
    <path fill="#80CDE8" d="M227 92.6l-25.2-10.5 35.6-18.7z"/>
    <path fill="#C1E5EF" d="M190.3 120.4L201.8 82l25.1 10.5z"/>
    <path fill="#C7E7F1" d="M201.8 82.1l8.3-19.6 27.3.9z"/>
    <path fill="#C1E5EF" d="M187.7 167.4l-17.1-31.2 19.7-15.8zM221.5 203.8l-33.8-36.4 7.5 36.6z"/>
    <path fill="#60C4E4" d="M170.6 136.2l3-30.3 16.7 14.5z"/>
    <path fill="#9DD6EA" d="M201.8 82.1L173.6 106l16.7 14.5zM201.8 82.1l-11.3-6.7 19.6-13z"/>
    <path fill="#35BCE1" d="M173.6 105.9l17-30.5 11.2 6.7z"/>
    <path fill="#00A3DA" d="M173.6 105.9l-2.5-10.1 19.4-20.4z"/>
    <path fill="#C1E5EF" d="M170.6 136.2l-12-16.7 15-13.6z"/>
    <path fill="#00B5E0" d="M158.6 119.5L171 95.8l2.5 10z"/>
    <path fill="#7ACBE7" d="M170.6 136.2l-1 40.3 18.1-9.1z"/>
    <path fill="#00B5E0" d="M170.6 136.2l-14.5 12.6 13.5 27.7z"/>
    <path fill="#00A3DA" d="M158.6 119.5l-2.5 29.3 14.5-12.6z"/>
    <path fill="#7ACBE7" d="M221.5 203.8l29 27.2 9.5-31z"/>
    <path fill="#9DD6EA" d="M260 200l26.3 21.1-35.9 10z"/>
    <path fill="#C1E5EF" d="M298.6 181.3L260 200l26.3 21.1z"/>
    <path fill="#A3D9EB" d="M250.4 231l20.2 8.3 15.7-18.2z"/>
    <path fill="#8FD1E9" d="M286.3 221.1l12.3-39.8 17.8 22.6z"/>
    <path fill="#C1E5EF" d="M298.6 181.3l28.5-14-10.7 36.6zM327.1 167.3l14-10.5-36.8-31.5z"/>
    <path fill="#35BCE1" d="M327.1 167.3l8.9 17.5-19.6 19.1z"/>
    <path fill="#7ACBE7" d="M341 156.8l-5 28-8.9-17.5z"/>
    <path fill="#C1E5EF" d="M316.4 203.9l-30.1 17.2 9.4 7.5z"/>
    <path fill="#00B5E0" d="M295.7 228.6l22.3-15.2-1.6-9.5z"/>
    <path fill="#00A3DA" d="M336 184.8L316.4 204l1.6 9.5z"/>
    <path fill="#9AD5EA" d="M195.2 204l26.2 24v-24.2z"/>
    <path fill="#00B5E0" d="M221.4 228l29 3-29-27.2zM250.4 231l-2.9 9.7 23.1-1.4z"/>
    <path fill="#00A3DA" d="M221.4 228l26.1 12.7 3-9.7z"/>
    <path fill="#00B5E0" d="M221.4 228l-3.2 7.6 29.3 5zM221.4 228l-28.3-6.5 2-17.5z"/>
    <path fill="#7ACBE7" d="M193 221.5l25.2 14 3.2-7.5z"/>
    <path fill="#00B5E0" d="M169.6 176.5l1 19.3 24.6 8.2z"/>
    <path fill="#00A9DC" d="M170.6 195.8l22.5 25.7 2-17.5z"/>
    <path fill="#7ACBE7" d="M169.6 176.5l-7.1 3.4 8.1 15.9z"/>
    <path fill="#A3D9EB" d="M162.5 179.9l7.1-3.4-13.5-27.7z"/>
    <path fill="#D9EFF6" d="M268.8 89.5l32.6-3.5 3 39.3z"/>
    <path fill="#F1F9FB" d="M304.3 125.3l22.8-3.3-25.7-36z"/>
    <path fill="#FFFEFE" d="M341 156.8l-36.7-31.5 22.8-3.3z"/>
    <path fill="#C1E5EF" d="M327 122l14 34.8-1-36.6z"/>
    <path fill="#60C4E4" d="M301.4 86l25.7 36 13-1.8z"/>
    <path fill="#00A3DA" d="M301.4 86l18-.3 20.7 34.5z"/>
    <path fill="#EBF6FA" d="M268.8 89.5l-31.4-26.1 29.4-1.2z"/>
    <path fill="#9DD6EA" d="M268.8 89.5l-2-27.3L301.4 86z"/>
    <path fill="#FFFEFE" d="M266.8 62.2l28.2 4.4 6.4 19.4z"/>
    <path fill="#4EC0E3" d="M301.4 86L295 66.6l24.4 19.1z"/>
    <path fill="#C1E5EF" d="M237.4 63.4l8.8-10 20.6 8.8z"/>
    <path fill="#8FD1E9" d="M210.1 62.5l36.1-9.2-8.8 10.1z"/>
    <path fill="#7ACBE7" d="M246.2 53.3l20.6 8.9 28.2 4.4z"/>
    <path fill="#F1F9FB" d="M298.6 181.3l28.5-14-22.8-42z"/>
    <path fill="#FFFFFE" d="M195.2 204l-25.6-27.5 18.1-9.1zM286.3 221.1l9.4 7.5-25 10.7z"/>
    <path fill="#595A59" d="M69 318h1.6v9.1h5.1v1.6H69zM81.9 323.3l.1 2.2c0 .3.2.6.4.9l.7.5c.2.2.6.2 1 .2.3 0 .6 0 1-.2l.5-.5c.3-.3.4-.6.5-1v-2-2.3c-.1-.3-.2-.6-.5-.8a2 2 0 0 0-.6-.6l-1-.2c-.3 0-.7 0-1 .2a2 2 0 0 0-.6.6l-.4.8-.1 2.2m-1.6 0l.1-2.5c.1-.4.2-.8.4-1a3.7 3.7 0 0 1 3.2-2 3.6 3.6 0 0 1 3.3 2c.2.2.3.6.4 1a22.2 22.2 0 0 1-.4 6c-.2.5-.6 1-1.2 1.3-.5.4-1.2.6-2 .7-.9 0-1.6-.3-2.1-.7a3.5 3.5 0 0 1-1.6-2.3v-2.5M100.7 325.7a4 4 0 0 1-1.3 2.3c-.7.5-1.5.8-2.4.8-.8 0-1.5-.3-2-.7a3.6 3.6 0 0 1-1.6-2.3v-2.5-2.5c.1-.4.2-.8.4-1a3.7 3.7 0 0 1 3.2-2c1 0 1.9.4 2.5 1a4 4 0 0 1 1.2 2.2H99c-.1-.4-.3-.8-.7-1a2 2 0 0 0-1.3-.5c-.3 0-.7 0-1 .2a2 2 0 0 0-.6.6l-.4.8-.1 2.2.1 2.2c0 .3.2.6.4.9l.7.5c.2.2.6.2 1 .2.8 0 1.5-.4 2-1.4h1.6zM110.6 324.8l-1.5-4.7-1.6 4.7h3zm.4 1.5h-4l-.7 2.4h-1.7l3.8-10.8h1.3l3.8 10.8h-1.7l-.8-2.4zM118.7 318h1.6v9.1h5v1.6h-6.6zM145.3 325.7a4 4 0 0 1-1.3 2.3c-.6.5-1.4.8-2.3.8-.8 0-1.5-.3-2-.7a3.5 3.5 0 0 1-1.6-2.3l-.1-2.5v-2.5l.4-1a3.7 3.7 0 0 1 3.3-2c1 0 1.8.4 2.4 1a4 4 0 0 1 1.2 2.2h-1.6c-.2-.4-.4-.8-.7-1a2 2 0 0 0-1.3-.5c-.4 0-.7 0-1 .2a2 2 0 0 0-.6.6l-.5.8v4.4l.5.9c.1.2.3.4.6.5.3.2.6.2 1 .2.9 0 1.5-.4 2-1.4h1.6zM151.7 323.3l.1 2.2.4.9.7.5c.3.2.6.2 1 .2.3 0 .7 0 1-.2l.6-.5.4-1 .1-2-.1-2.3a2 2 0 0 0-.4-.8 2 2 0 0 0-.7-.6l-1-.2c-.3 0-.6 0-.9.2a2 2 0 0 0-.7.6l-.4.8v2.2m-1.7 0c0-1.2 0-2 .2-2.5 0-.4.1-.8.3-1a3.6 3.6 0 0 1 3.3-2 3.6 3.6 0 0 1 3.2 2c.2.2.3.6.4 1v5c0 .4-.2.8-.4 1-.2.5-.6 1-1.2 1.3-.5.4-1.2.6-2 .7-.9 0-1.5-.3-2-.7a3.5 3.5 0 0 1-1.6-2.3l-.2-2.5M163.5 318h1.5l4.7 7.6v-7.7h1.6v10.8h-1.5l-4.7-7.7v7.7h-1.6zM177.6 318h1.5l4.7 7.6v-7.7h1.6v10.8H184l-4.7-7.7v7.7h-1.6zM191.7 318h6.7v1.5h-5.1v3h4.3v1.5h-4.3v3.1h5v1.6h-6.6zM211 325.7a4 4 0 0 1-1.4 2.3c-.6.5-1.4.8-2.3.8-.8 0-1.5-.3-2-.7-.6-.3-1-.8-1.3-1.3l-.2-.4-.1-.6-.1-2.5v-2.5l.4-1a3.7 3.7 0 0 1 3.3-2c1 0 1.8.4 2.4 1a4 4 0 0 1 1.2 2.2h-1.6c-.2-.4-.4-.8-.7-1a2 2 0 0 0-1.3-.5c-.4 0-.7 0-1 .2a2 2 0 0 0-.6.6l-.5.8v4.4l.5.9c.1.2.3.4.6.5.3.2.6.2 1 .2.9 0 1.5-.4 2-1.4h1.6zM217.6 319.4h-2.9v-1.5h7.3v1.5h-2.9v9.3h-1.5zM227.1 328.7h1.6v-10.8h-1.6zM236 323.3c0 1 0 1.8.2 2.2 0 .3.2.6.4.9l.6.5c.3.2.6.2 1 .2s.7 0 1-.2l.6-.5.4-1 .1-2V321a2 2 0 0 0-.5-.8 2 2 0 0 0-.6-.6l-1-.2c-.4 0-.7 0-1 .2a2 2 0 0 0-.6.6c-.2.2-.4.5-.4.8l-.1 2.2m-1.6 0v-2.5l.4-1c.3-.5.7-1 1.3-1.3.5-.4 1.2-.6 2-.7a3.6 3.6 0 0 1 3.2 2c.2.2.3.6.4 1l.1 2.5v2.5l-.5 1c-.2.5-.6 1-1.1 1.3-.6.4-1.3.6-2.1.7-.8 0-1.5-.3-2-.7a3.5 3.5 0 0 1-1.6-2.3l-.1-2.5M247.8 318h1.5l4.7 7.6v-7.7h1.6v10.8h-1.5l-4.7-7.7v7.7h-1.6zM262 326c.9.8 1.9 1.1 3 1.1 1.4 0 2-.5 2-1.5 0-.8-.4-1.2-1.3-1.4l-1.4-.2c-.8-.2-1.5-.5-2-1a3 3 0 0 1-.7-2 3 3 0 0 1 .9-2.3c.6-.6 1.4-.8 2.5-.9 1.3 0 2.4.4 3.4 1.2l-1 1.3c-.7-.5-1.6-.8-2.5-.8a2 2 0 0 0-1.2.3c-.4.3-.5.7-.5 1.2 0 .3 0 .6.3.8.2.3.6.5 1.1.6.3 0 .7 0 1.2.2 1 0 1.7.4 2.2 1 .4.6.7 1.3.7 2-.1 2-1.3 3.1-3.7 3.2-1.5 0-2.9-.5-4-1.5l1-1.2zM274.3 328.7h1.5V327h-1.5zM292.6 322.8h3.7v2.2c0 1-.4 2-1 2.7-.8.7-1.6 1-2.7 1-.8 0-1.5-.2-2-.6a3.5 3.5 0 0 1-1.6-2.3l-.1-2.5v-2.5l.4-1a3.7 3.7 0 0 1 3.3-2c1 0 1.8.4 2.4 1a4 4 0 0 1 1.2 2.2h-1.6c-.2-.4-.4-.8-.7-1a2 2 0 0 0-1.3-.5c-.4 0-.7 0-1 .2a2 2 0 0 0-.6.6c-.2.2-.4.5-.4.8l-.1 2.2v2.2l.5.9.6.5c.3.2.6.2 1 .2a2 2 0 0 0 1.5-.6c.4-.4.6-1 .6-1.6v-.6h-2.1v-1.5zM302.2 318h1.6v9.1h5v1.6h-6.6zM315 323.3l.2 2.2c0 .3.2.6.4.9l.7.5c.2.2.5.2 1 .2.3 0 .6 0 .9-.2.3-.1.5-.3.6-.5.2-.3.4-.6.4-1l.2-2c0-1.2 0-1.9-.2-2.3 0-.3-.2-.6-.4-.8a2 2 0 0 0-.6-.6l-1-.2c-.4 0-.7 0-1 .2a2 2 0 0 0-.6.6l-.4.8-.1 2.2m-1.6 0l.1-2.5c0-.4.2-.8.4-1a3.6 3.6 0 0 1 3.2-2 3.6 3.6 0 0 1 3.3 2c.1.2.3.6.3 1l.1 2.5v2.5l-.4 1c-.3.5-.7 1-1.2 1.3-.6.4-1.3.6-2 .7-.9 0-1.6-.3-2.1-.7a3.5 3.5 0 0 1-1.6-2.3v-2.5M328.4 324v3.1h2.5c.6 0 1-.1 1.3-.5.2-.3.4-.6.4-1 0-.5-.2-.9-.4-1.2-.3-.3-.7-.5-1.3-.5h-2.5zm0-4.6v3h2.3c.6 0 1 0 1.3-.4.3-.3.4-.6.4-1 0-.5-.1-.9-.4-1.2-.3-.3-.7-.4-1.3-.4h-2.3zm-1.5-1.5h4c1 0 1.8.3 2.3.8.5.6.8 1.3.8 2.1 0 .5-.1.9-.3 1.3l-.5.5-.8.5c.6.2 1 .5 1.3 1 .3.4.4 1 .4 1.5a3 3 0 0 1-.8 2.2c-.6.6-1.2.9-2 .9h-4.4v-10.8zM344.7 324.8l-1.5-4.7-1.5 4.7h3zm.5 1.5h-4l-.8 2.4h-1.6l3.8-10.8h1.3l3.8 10.8H346l-.8-2.4zM352.9 318h1.5v9.1h5.1v1.6H353zM372.5 328.7h1.5v-10.8h-1.5zM380.2 318h1.4l3 7 3-7h1.4v10.7h-1.5V322l-2.2 5.1h-1.4l-2.1-5.1v6.7h-1.6zM397 323h2.3c.6 0 1-.2 1.3-.6.3-.4.4-.8.4-1.2l-.1-.9-.5-.5c-.4-.2-.7-.3-1.2-.3H397v3.5zm-1.6-5h4.9l1.2.7c.3.2.6.6.8 1 .2.5.3 1 .3 1.6 0 .7-.3 1.5-.8 2.1-.6.7-1.4 1-2.4 1H397v4.3h-1.6v-10.8zM412.2 324.8l-1.5-4.7-1.5 4.7h3zm.5 1.5h-4l-.8 2.4h-1.6l3.8-10.8h1.3l3.8 10.8h-1.7l-.8-2.4zM427.2 325.7a4 4 0 0 1-1.3 2.3c-.6.5-1.4.8-2.3.8-.8 0-1.5-.3-2-.7a3.5 3.5 0 0 1-1.6-2.3l-.1-2.5v-2.5l.4-1a3.6 3.6 0 0 1 3.3-2c1 0 1.8.4 2.4 1a4 4 0 0 1 1.2 2.2h-1.6c-.2-.4-.4-.8-.7-1a2 2 0 0 0-1.3-.5c-.4 0-.7 0-1 .2a2 2 0 0 0-.6.6c-.3.2-.4.5-.5.8v4.4c.1.3.2.6.5.9.1.2.3.4.6.5.3.2.6.2 1 .2.9 0 1.5-.4 2-1.4h1.6zM433.9 319.4H431v-1.5h7.3v1.5h-2.9v9.3H434zM442.1 328.7h1.5V327h-1.5zM63.5 271.2h5.8l5.6 26.3h.1l7-26.3h4l6.9 26.3 5.7-26.3h5.8l-9 37H91L84 281.6l-7 26.8h-4.5zM111.1 289.7c0 3.7.1 6.1.4 7.4.2 1.3.7 2.4 1.4 3.2.6.7 1.3 1.3 2.3 1.8.9.6 2 .9 3.3.9 1.3 0 2.4-.3 3.4-.9a6 6 0 0 0 2.1-1.8c.7-.8 1.2-1.9 1.5-3.2.2-1.3.4-3.7.4-7.4a49 49 0 0 0-.4-7.5 6.6 6.6 0 0 0-1.5-3 6.6 6.6 0 0 0-2.1-2c-1-.4-2.1-.7-3.4-.7-1.3 0-2.4.3-3.3.7a7 7 0 0 0-2.3 2c-.7.8-1.2 1.8-1.4 3-.3 1.4-.4 3.9-.4 7.5m-5.4 0c0-4.3 0-7.2.3-8.7.3-1.4.7-2.6 1.2-3.5a12.6 12.6 0 0 1 11.3-6.6 12.3 12.3 0 0 1 11.2 6.6c.6 1 1 2.1 1.3 3.6.2 1.4.3 4.3.3 8.6a74 74 0 0 1-.3 8.6 8.8 8.8 0 0 1-1.3 3.6 12.5 12.5 0 0 1-11.2 6.7c-2.8-.1-5.2-.8-7-2.2a12.3 12.3 0 0 1-5.5-8c-.2-1.6-.3-4.5-.3-8.7M140.9 287.4h8.2c2 0 3.6-.6 4.6-1.8 1-1.1 1.5-2.5 1.5-4.1 0-2-.6-3.3-1.8-4.2-1-.8-2.2-1.2-4-1.2H141v11.3zm-5.5-16.2h14c3 0 5.5.8 7.4 2.4a10 10 0 0 1 3.5 8c0 5-2.3 8.4-6.9 10.2l8.3 16.5h-6.4l-7.5-15.9h-7v15.9h-5.4v-37.1zM164 271.2h5.4V303h17.5v5.3h-23zM195.1 303h6.6c3 0 5.2-1.1 6.6-3.3.6-.8 1-1.8 1.2-3l.2-6.8c0-3.2 0-5.5-.2-7a6.5 6.5 0 0 0-1.4-3.3 7.1 7.1 0 0 0-6.4-3.1H195V303zm-5.4-31.8h12.6a12 12 0 0 1 11 6.2c.8 1.4 1.3 2.9 1.6 4.4a78.5 78.5 0 0 1-.8 18.4l-1 1.9c-1 1.7-2.5 3.2-4.4 4.3a12.2 12.2 0 0 1-6.8 1.9h-12.2v-37.1z"/>
    <path fill="#00A3DA" d="M228.5 308.3h5.5v-37.1h-5.5zM255.6 295l-5.2-16.2L245 295h10.5zm1.6 5h-13.7l-2.7 8.3H235l13-37.1h4.6l13 37H260l-2.7-8.2z"/>
    <path d="M282 303h6.5c3 0 5.3-1.1 6.7-3.3.6-.8 1-1.8 1.1-3 .2-1.2.2-3.5.2-6.8 0-3.2 0-5.5-.2-7a6.5 6.5 0 0 0-1.4-3.3 7.1 7.1 0 0 0-6.4-3.1H282V303zm-5.5-31.8h12.6a12 12 0 0 1 11 6.2c.8 1.4 1.4 2.9 1.6 4.4a78.5 78.5 0 0 1-.7 18.4l-1 1.9c-1 1.7-2.6 3.2-4.4 4.3a12.2 12.2 0 0 1-6.9 1.9h-12.2v-37.1zM322 295l-5.2-16.2-5.2 16.2H322zm1.6 5H310l-2.8 8.3h-5.7l13-37.1h4.6l13 37h-5.7l-2.8-8.2zM336.1 293l-10.8-21.8h5.8l7.6 16.4 7.6-16.4h5.8L341.3 293v15.3H336z" fill="#595A59"/>
    <path d="M360.2 302.8L374 285a7 7 0 0 0 1-2l.3-1.6c0-1.4-.4-2.6-1.3-3.6-.8-1-2-1.5-3.6-1.6-1.4 0-2.5.5-3.4 1.4a6 6 0 0 0-1.7 3.9h-5c0-3 1-5.5 2.9-7.5 1.8-2 4.1-3 6.8-3 3 0 5.5 1 7.4 3 1.9 2 2.9 4.5 2.9 7.5 0 2.3-.7 4.5-2.1 6.3l-11.3 14.7h13.4v5.2h-20v-5zM398.7 281.8c-.1-3.6-1.8-5.5-5-5.6-3.2.1-4.9 2-5 5.6v15.4c.1 3.7 1.8 5.6 5 5.6s4.9-1.9 5-5.6v-15.4zm-15-.3a10 10 0 0 1 10-10.4c2.7 0 5 .9 7 2.6 2 1.9 3 4.4 3 7.8v16c0 3.3-1 6-3 7.7a10 10 0 0 1-13.8 0c-2-1.8-3.1-4.3-3.2-7.7v-16zM411 276.5l-5 3.8v-5.6l5-3.7h5v36.3h-5zM422 284.8v-3.4c0-3.3 1.2-5.9 3.4-7.7a11 11 0 0 1 7.4-2.7c3 0 5.4.9 7.5 2.7a10 10 0 0 1 3.2 7.7v16c0 3.4-1.1 6-3.2 7.8-2 1.8-4.6 2.7-7.5 2.7-2.6 0-4.8-.8-6.8-2.2a9.6 9.6 0 0 1-3.8-6h5.6c.9 2 2.5 3 5 3 3.4 0 5.2-1.9 5.3-5.6v-3.4a24 24 0 0 1-7.2 1.2c-2.5 0-4.6-.8-6.3-2.5-1.8-1.6-2.6-4.1-2.6-7.6zm5.4-3v3c.1 3.6 1.9 5.4 5.4 5.5 3.4 0 5.2-2 5.3-5.6v-3c-.1-3.6-1.9-5.4-5.3-5.5-3.5 0-5.3 2-5.4 5.6z" fill="#00A3DA"/>
  </g>
</svg>
