<?xml version="1.0" encoding="UTF-8"?>
<svg width="2010px" height="1454px" viewBox="0 0 2010 1454" version="1.1" xmlns="http://www.w3.org/2000/svg" xmlns:xlink="http://www.w3.org/1999/xlink">
    <!-- Generator: Sketch 52.1 (67048) - http://www.bohemiancoding.com/sketch -->
    <title>wiad19_primary_greyscale</title>
    <desc>Created with Sketch.</desc>
    <g id="wiad19_primary_greyscale" stroke="none" stroke-width="1" fill="none" fill-rule="evenodd">
        <g id="Group" transform="translate(213.000000, 128.000000)">
            <path d="M761.37764,0.26565 L961.71896,54.9857 L1061.99868,133.42714 L1146.75692,274.90617 L1150.70664,425.06849 L1129.82716,540.31054 L1056.08968,657.60233 L964.648,719.93537 L964.65636,719.94384 L861.47724,764.05175 L925.73144,689.31863 L925.72764,689.31478 L861.47724,764.05175 L766.66876,769.72665 L646.2232,748.82269 L543.08968,691.13968 L450.91916,585.36016 L417.38112,520.10574 L391.0608,392.27265 L401.26076,271.96862 L452.6398,174.55592 L532.60624,90.84768 L613.06516,37.90171 L761.36852,0.26565 L761.37764,0.26565 Z M521.05272,468.73519 L521.04436,468.73519 L541.64416,569.86006 L521.05272,468.73519 Z" id="Combined-shape-4" fill="#FFFFFF"></path>
            <polygon id="" fill="#FFFFFF" points="682.099588 161.759132 652.341088 403.609013 855.09526 336.225599"></polygon>
            <polygon id="" fill="#D2D2D2" points="817.930948 602.831523 652.343536 403.610808 855.093628 336.227484"></polygon>
            <polygon id="" fill="#F5F5F5" points="854.073146 148.88074 854.073146 148.728595 999.977516 295.941073 999.977516 295.94542 855.093394 336.227746"></polygon>
            <polygon id="" fill="#EFEFEF" points="976.49231 525.908986 855.09251 336.229804 999.979845 295.94248"></polygon>
            <polygon id="" fill="#E1E1E1" points="531.428264 275.591506 521.053328 468.73325 652.345016 403.6123"></polygon>
            <polygon id="" fill="#C5C5C5" points="659.626646 618.383104 521.05143 468.73312 652.343185 403.61236"></polygon>
            <polygon id="" fill="#F3F3F3" points="652.342968 403.610714 531.426056 275.589809 682.101072 161.76059"></polygon>
            <polygon id="" fill="#F0F0F0" points="855.093634 336.227746 682.097788 161.76109 854.07295 148.727839"></polygon>
            <polygon id="" fill="#B6B6B6" points="659.626704 618.383104 652.343288 403.61236 817.930778 602.833264"></polygon>
            <polygon id="" fill="#E6E6E6" points="855.0936 336.227751 817.93104 602.832057 976.49376 525.906954"></polygon>
            <polygon id="" fill="#FFFFFF" points="682.099648 161.759089 725.107794 41.667315 854.070471 148.725695"></polygon>
            <polygon id="" fill="#D9D9D9" points="682.099648 161.759089 578.803788 118.492393 725.107856 41.667315"></polygon>
            <polygon id="" fill="#FAFAFA" points="531.428184 275.59157 578.80324 118.491538 682.098944 161.758258"></polygon>
            <polygon id="" fill="#F0F0F0" points="578.803788 118.493158 613.066084 37.90159 725.107856 41.663996"></polygon>
            <polygon id="" fill="#EFEFEF" points="521.052344 468.735384 450.706594 340.743496 531.427312 275.593446"></polygon>
            <polygon id="" fill="#EFEFEF" points="659.626646 618.383176 521.05143 468.733248 551.701486 619.254136"></polygon>
            <polygon id="" fill="#D5D5D5" points="450.706922 340.742375 463.190274 216.02575 531.427968 275.592375"></polygon>
            <polygon id="" fill="#E5E5E5" points="578.803844 118.493118 463.191168 216.026518 531.428516 275.59315"></polygon>
            <polygon id="" fill="#E5E5E5" points="578.803796 118.493158 532.607702 90.847432 613.066102 37.90159"></polygon>
            <polygon id="" fill="#C7C7C7" points="463.190588 216.027307 532.607424 90.848233 578.803148 118.493974"></polygon>
            <polygon id="" fill="#B3B3B3" points="463.190555 216.027307 452.640872 174.556473 532.607393 90.848233"></polygon>
            <polygon id="" fill="#EFEFEF" points="450.706874 340.742375 401.261198 271.971625 463.190261 216.02575"></polygon>
            <polygon id="" fill="#CCCCCC" points="401.260631 271.969816 452.639903 174.557424 463.190009 216.02828"></polygon>
            <polygon id="" fill="#DCDCDC" points="450.706908 340.742315 446.719568 506.200738 521.05266 468.733954"></polygon>
            <polygon id="" fill="#C8C8C8" points="450.7069 340.742315 391.06102 392.275843 446.71954 506.200738"></polygon>
            <polygon id="" fill="#A6A6A6" points="401.2606 271.969778 391.06072 392.273978 450.7066 340.740812"></polygon>
            <polygon id="" fill="#CCCCCC" points="659.626619 618.383129 778.484843 730.158146 817.930676 602.833211"></polygon>
            <polygon id="" fill="#E5E5E5" points="817.930992 602.831663 925.731232 689.314811 778.485144 730.160726"></polygon>
            <polygon id="" fill="#EFEFEF" points="976.49232 525.908985 817.92976 602.82984 925.73008 689.317395"></polygon>
            <polygon id="" fill="#E6E6E6" points="778.48618 730.159016 861.47792 764.046428 925.731824 689.317376"></polygon>
            <polygon id="" fill="#C7C7C7" points="925.731625 689.31624 976.494125 525.90783 1049.61075 618.69525"></polygon>
            <polygon id="" fill="#EFEFEF" points="976.492296 525.908953 1093.62146 468.184069 1049.61312 618.692413"></polygon>
            <polygon id="" fill="#EFEFEF" points="1093.62304 468.185854 1150.70618 425.064826 999.976904 295.94395"></polygon>
            <polygon id="" fill="#CECECE" points="1093.62298 468.18573 1129.83111 540.310578 1049.61042 618.694074"></polygon>
            <polygon id="" fill="#C2C2C2" points="1150.70687 425.064496 1129.82774 540.310264 1093.62356 468.185176"></polygon>
            <polygon id="" fill="#EFEFEF" points="1049.6125 618.694518 925.733375 689.315238 964.6415 719.94033"></polygon>
            <polygon id="" fill="#C8C8C8" points="964.639375 719.941452 1056.08953 657.603948 1049.61041 618.69564"></polygon>
            <polygon id="" fill="#AEAEAE" points="1129.82893 540.311166 1049.61252 618.694554 1056.09163 657.602812"></polygon>
            <polygon id="" fill="#E4E4E4" points="551.699998 619.2561 659.19558 717.7979 659.624822 618.3853"></polygon>
            <polygon id="" fill="#BBBBBB" points="659.19536 717.797306 778.487 730.159732 659.6288 618.384878"></polygon>
            <polygon id="" fill="#C0C0C0" points="778.486144 730.159 766.669408 769.72564 861.477952 764.04644"></polygon>
            <polygon id="" fill="#999999" points="659.19536 717.797279 766.67024 769.726626 778.487 730.159794"></polygon>
            <polygon id="" fill="#BBBBBB" points="659.195292 717.797279 646.224334 748.818285 766.670275 769.726626"></polygon>
            <polygon id="" fill="#C7C7C7" points="659.195274 717.797248 543.091143 691.14328 551.699418 619.255717"></polygon>
            <polygon id="" fill="#DCDCDC" points="543.089973 691.141114 646.223133 748.820258 659.194104 717.795304"></polygon>
            <polygon id="" fill="#BDBDBD" points="446.719528 506.200754 450.919354 585.363266 551.698748 619.254896"></polygon>
            <polygon id="" fill="#AEAEAE" points="450.918816 585.361125 543.089382 691.140362 551.697876 619.257013"></polygon>
            <polygon id="" fill="#CCCCCC" points="446.719536 506.20072 417.382058 520.10488 450.919386 585.36328"></polygon>
            <polygon id="" fill="#E6E6E6" points="417.382048 520.106546 446.719552 506.202281 391.06104 392.273222"></polygon>
            <polygon id="" fill="#E6E6E6" points="854.07227 148.727744 987.697456 134.657072 999.980728 295.944434"></polygon>
            <polygon id="" fill="#F3F3F3" points="999.978672 295.942814 1093.27861 282.33854 987.699566 134.65934"></polygon>
            <polygon id="" fill="#FFFFFF" points="1150.70679 425.064432 999.977816 295.943664 1093.278 282.339408"></polygon>
            <polygon id="" fill="#E1E1E1" points="1093.27707 282.339784 1150.70623 425.064896 1146.76449 274.906528"></polygon>
            <polygon id="" fill="#CACACA" points="987.69856 134.657388 1093.27792 282.340824 1146.76544 274.907512"></polygon>
            <polygon id="" fill="#A9A9A9" points="987.69856 134.657424 1062.00288 133.428272 1146.76544 274.907416"></polygon>
            <polygon id="" fill="#F8F8F8" points="854.07232 148.727783 725.10998 41.665368 845.72242 36.652801"></polygon>
            <polygon id="" fill="#D4D4D4" points="854.072206 148.727783 845.722436 36.652801 987.697412 134.657023"></polygon>
            <polygon id="" fill="#FFFFFF" points="845.722722 36.653202 961.718602 54.986517 987.697698 134.657361"></polygon>
            <polygon id="" fill="#C7C7C7" points="987.698602 134.65737 961.71961 54.98658 1062.00285 133.428276"></polygon>
            <polygon id="" fill="#E9E9E9" points="725.109021 41.666142 761.371511 0.266112 845.721579 36.653568"></polygon>
            <polygon id="" fill="#C7C7C7" points="613.064815 37.902396 761.373306 0.264936 725.110878 41.664966"></polygon>
            <polygon id="" fill="#C2C2C2" points="761.37185 0.26609 845.721902 36.65354 961.717796 54.986965"></polygon>
            <polygon id="" fill="#FCFCFC" points="976.492296 525.908986 1093.62146 468.183934 999.979842 295.94248"></polygon>
            <polygon id="" fill="#FFFFFF" points="551.708182 619.264168 446.712532 506.193192 521.045668 468.730664"></polygon>
            <polygon id="" fill="#FFFFFF" points="861.477568 764.049012 925.731576 689.31616 964.656696 719.941044 861.478192 764.049012"></polygon>
            <polygon id="" fill="#666666" points="23.338952 1092.36616 29.893155 1092.36616 29.893155 1130.73688 51.030646 1130.73688 51.030646 1137.11197 23.338952 1137.11197"></polygon>
            <path d="M70.33696,1114.74732 C70.33696,1109.53492 70.48288,1106.05162 70.770464,1104.28904 C71.091136,1102.53078 71.57024,1101.10984 72.236864,1100.01821 C73.291072,1097.95981 74.974528,1096.11815 77.286944,1094.51408 C79.55376,1092.889 82.39936,1092.04733 85.816128,1092.00147 C89.26208,1092.04733 92.124384,1092.889 94.42464,1094.51822 C96.69936,1096.13899 98.349376,1097.98064 99.353728,1100.04319 C100.0912,1101.13896 100.599456,1102.5599 100.878528,1104.30578 C101.124448,1106.06818 101.257888,1109.54316 101.257888,1114.74732 C101.257888,1119.86399 101.124448,1123.31399 100.878528,1125.1183 C100.599456,1126.92237 100.0912,1128.36829 99.353728,1129.44736 C98.349376,1131.51405 96.69936,1133.33072 94.42464,1134.90567 C92.124384,1136.54313 89.26208,1137.40154 85.807904,1137.4808 C82.39936,1137.40154 79.55376,1136.54313 77.286944,1134.90567 C74.974528,1133.33072 73.28288,1131.51405 72.236864,1129.44736 C71.91616,1128.77231 71.628608,1128.11828 71.374464,1127.51402 C71.137056,1126.8807 70.932768,1126.08071 70.770464,1125.1183 C70.48288,1123.31399 70.33696,1119.86399 70.33696,1114.74732 Z M76.891168,1114.74732 C76.891168,1119.15983 77.053792,1122.13069 77.374496,1123.69322 C77.645344,1125.24319 78.211968,1126.52231 79.070432,1127.47235 C79.75376,1128.40155 80.678784,1129.14325 81.812064,1129.71407 C82.920384,1130.39326 84.24544,1130.73908 85.799392,1130.73908 C87.3704,1130.73908 88.716128,1130.39326 89.874592,1129.71407 C90.957696,1129.14325 91.841088,1128.40155 92.495264,1127.47235 C93.345184,1126.51403 93.937056,1125.24319 94.24528,1123.69322 C94.549568,1122.13069 94.695168,1119.15983 94.695168,1114.74732 C94.695168,1110.34314 94.549568,1107.3266 94.24528,1105.73063 C93.937056,1104.21824 93.345184,1102.97652 92.495264,1102.01406 C91.841088,1101.10161 90.957696,1100.32227 89.874592,1099.7015 C88.716128,1099.10571 87.3704,1098.79319 85.799392,1098.74737 C84.24544,1098.79319 82.920384,1099.10571 81.812064,1099.7015 C80.678784,1100.32227 79.75376,1101.10161 79.070432,1102.01406 C78.211968,1102.97652 77.645344,1104.21824 77.374496,1105.73063 C77.053792,1107.3266 76.891168,1110.34314 76.891168,1114.74732 Z" id="Combined-shape-76" fill="#666666"></path>
            <path d="M155.203136,1124.6191 C154.248928,1128.76483 152.436576,1131.944 149.765792,1134.1773 C147.01168,1136.37732 143.740832,1137.48159 139.978112,1137.48159 C136.578368,1137.4023 133.736704,1136.54413 131.444992,1134.90646 C129.136544,1133.33149 127.44912,1131.51485 126.399168,1129.44816 C126.0824,1128.77329 125.79088,1128.1191 125.540704,1127.51482 C125.29904,1126.88149 125.099008,1126.08151 124.936704,1125.11909 C124.64912,1123.3148 124.498944,1119.86496 124.498944,1114.74811 C124.498944,1109.54394 124.64912,1106.06895 124.936704,1104.30241 C125.261664,1102.56068 125.748928,1101.13997 126.399168,1100.04398 C127.44912,1097.97729 129.136544,1096.13564 131.45744,1094.51898 C133.736704,1092.88996 136.578368,1092.04829 139.978112,1091.99814 C144.170048,1092.04829 147.569792,1093.32739 150.21568,1095.84415 C152.849088,1098.36476 154.507328,1101.50662 155.203136,1105.24401 L148.240704,1105.24401 C147.69504,1103.43578 146.728384,1101.91081 145.320032,1100.64407 C143.85328,1099.41906 142.065856,1098.79396 139.961696,1098.744 C138.41168,1098.79396 137.086624,1099.10651 135.974048,1099.70233 C134.845056,1100.3233 133.93248,1101.09828 133.232416,1102.01487 C132.373952,1102.97729 131.811584,1104.2149 131.540736,1105.73163 C131.215776,1107.32742 131.057408,1110.34412 131.057408,1114.74811 C131.057408,1119.1608 131.215776,1122.13148 131.540736,1123.69405 C131.811584,1125.24397 132.373952,1126.51484 133.232416,1127.47313 C133.93248,1128.40232 134.845056,1129.14407 135.974048,1129.71489 C137.086624,1130.39404 138.419904,1130.73986 139.969888,1130.73986 C143.657536,1130.73986 146.41984,1128.694 148.240704,1124.6191 L155.203136,1124.6191 Z" id="" fill="#666666"></path>
            <path d="M198.277008,1127.10315 L181.847898,1127.10315 L178.514424,1137.1116 L171.560196,1137.1116 L187.31872,1092.36579 L192.814432,1092.36579 L208.5687,1137.1116 L201.631154,1137.1116 L198.277008,1127.10315 Z M196.40205,1121.10314 L190.135432,1101.52412 L190.01444,1101.52412 L183.743566,1121.10314 L196.40205,1121.10314 Z" id="Combined-shape-78" fill="#666666"></path>
            <polygon id="" fill="#666666" points="230.239988 1092.36616 236.79812 1092.36616 236.79812 1130.73688 257.923168 1130.73688 257.923168 1137.11197 230.239988 1137.11197"></polygon>
            <path d="M341.161216,1124.6191 C340.2152,1128.76483 338.3904,1131.944 335.719584,1134.1773 C332.965184,1136.37732 329.698592,1137.48159 325.940448,1137.48159 C322.531872,1137.4023 319.686272,1136.54413 317.411264,1134.90646 C315.08608,1133.33149 313.411136,1131.51485 312.356928,1129.44816 C312.044416,1128.77329 311.752896,1128.1191 311.494528,1127.51482 C311.265312,1126.88149 311.069568,1126.08151 310.902976,1125.11909 C310.602944,1123.3148 310.452768,1119.86496 310.452768,1114.74811 C310.452768,1109.54394 310.602944,1106.06895 310.902976,1104.30241 C311.227936,1102.56068 311.707008,1101.13997 312.356928,1100.04398 C313.411136,1097.97729 315.08608,1096.13564 317.411264,1094.51898 C319.686272,1092.88996 322.531872,1092.04829 325.94864,1091.99814 C330.123552,1092.04829 333.532128,1093.32739 336.169472,1095.84415 C338.806848,1098.36476 340.46112,1101.50662 341.161216,1105.24401 L334.194496,1105.24401 C333.657056,1103.43578 332.686144,1101.91081 331.277792,1100.64407 C329.811072,1099.41906 328.027904,1098.79396 325.92768,1098.744 C324.373696,1098.79396 323.040416,1099.10651 321.932096,1099.70233 C320.794592,1100.3233 319.882048,1101.09828 319.194432,1102.01487 C318.340224,1102.97729 317.777856,1104.2149 317.49456,1105.73163 C317.173536,1107.32742 317.02368,1110.34412 317.02368,1114.74811 C317.02368,1119.1608 317.173536,1122.13148 317.49456,1123.69405 C317.777856,1125.24397 318.340224,1126.51484 319.194432,1127.47313 C319.882048,1128.40232 320.794592,1129.14407 321.932096,1129.71489 C323.040416,1130.39404 324.373696,1130.73986 325.92768,1130.73986 C329.619552,1130.73986 332.373632,1128.694 334.206976,1124.6191 L341.161216,1124.6191 Z" id="" fill="#666666"></path>
            <path d="M361.254816,1114.74732 C361.254816,1109.53492 361.392544,1106.05162 361.692256,1104.28904 C362.01328,1102.53078 362.496608,1101.10984 363.146528,1100.01821 C364.19648,1097.95981 365.884192,1096.11815 368.2048,1094.51408 C370.475872,1092.889 373.317504,1092.04733 376.72576,1092.00147 C380.184192,1092.04733 383.046496,1092.889 385.346464,1094.51822 C387.621472,1096.13899 389.263264,1097.98064 390.271584,1100.04319 C391.0048,1101.13896 391.513376,1102.5599 391.784224,1104.30578 C392.04656,1106.06818 392.18,1109.54316 392.18,1114.74732 C392.18,1119.86399 392.04656,1123.31399 391.784224,1125.1183 C391.513376,1126.92237 391.0048,1128.36829 390.271584,1129.44736 C389.263264,1131.51405 387.621472,1133.33072 385.346464,1134.90567 C383.046496,1136.54313 380.171424,1137.40154 376.72576,1137.4808 C373.317504,1137.40154 370.475872,1136.54313 368.2048,1134.90567 C365.884192,1133.33072 364.19648,1131.51405 363.146528,1129.44736 C362.838272,1128.77231 362.546464,1128.11828 362.284128,1127.51402 C362.054912,1126.8807 361.85488,1126.08071 361.692256,1125.1183 C361.392544,1123.31399 361.254816,1119.86399 361.254816,1114.74732 Z M367.817536,1114.74732 C367.817536,1119.15983 367.975616,1122.13069 368.279904,1123.69322 C368.567456,1125.24319 369.13408,1126.52231 369.984032,1127.47235 C370.675584,1128.40155 371.584192,1129.14325 372.71744,1129.71407 C373.82576,1130.39326 375.163296,1130.73908 376.721504,1130.73908 C378.275776,1130.73908 379.63824,1130.39326 380.788224,1129.71407 C381.879808,1129.14325 382.754976,1128.40155 383.41312,1127.47235 C384.26336,1126.51403 384.846688,1125.24319 385.167392,1123.69322 C385.458912,1122.13069 385.617312,1119.15983 385.617312,1114.74732 C385.617312,1110.34314 385.458912,1107.3266 385.167392,1105.73063 C384.846688,1104.21824 384.26336,1102.97652 383.41312,1102.01406 C382.754976,1101.10161 381.879808,1100.32227 380.788224,1099.7015 C379.63824,1099.10571 378.275776,1098.79319 376.721504,1098.74737 C375.163296,1098.79319 373.82576,1099.10571 372.71744,1099.7015 C371.584192,1100.32227 370.675584,1101.10161 369.984032,1102.01406 C369.13408,1102.97652 368.567456,1104.21824 368.279904,1105.73063 C367.975616,1107.3266 367.817536,1110.34314 367.817536,1114.74732 Z" id="Combined-shape-81" fill="#666666"></path>
            <polygon id="" fill="#666666" points="416.88961 1092.36616 423.064452 1092.36616 442.702104 1124.19108 442.81852 1124.19108 442.81852 1092.36616 449.381234 1092.36616 449.381234 1137.11197 443.17297 1137.11197 423.572718 1105.30775 423.447768 1105.30775 423.447768 1137.11197 416.88961 1137.11197"></polygon>
            <polygon id="" fill="#666666" points="475.723248 1092.36616 481.894112 1092.36616 501.535708 1124.19108 501.64818 1124.19108 501.64818 1092.36616 508.214838 1092.36616 508.214838 1137.11197 501.99838 1137.11197 482.398094 1105.30775 482.273178 1105.30775 482.273178 1137.11197 475.723248 1137.11197"></polygon>
            <polygon id="" fill="#666666" points="534.484184 1092.36616 562.163118 1092.36616 562.163118 1098.74539 541.050857 1098.74539 541.050857 1111.56205 559.075865 1111.56205 559.075865 1117.5662 541.050857 1117.5662 541.050857 1130.73688 562.163118 1130.73688 562.163118 1137.11197 534.484184 1137.11197"></polygon>
            <path d="M614.513376,1124.6191 C613.559168,1128.76483 611.738304,1131.944 609.067488,1134.1773 C606.313088,1136.37732 603.042528,1137.48159 599.27984,1137.48159 C595.875808,1137.4023 593.034176,1136.54413 590.763136,1134.90646 C588.433984,1133.33149 586.750848,1131.51485 585.69664,1129.44816 C585.392352,1128.77329 585.100832,1128.1191 584.838176,1127.51482 C584.60896,1126.88149 584.404992,1126.08151 584.254816,1125.11909 C583.950848,1123.3148 583.800672,1119.86496 583.800672,1114.74811 C583.800672,1109.54394 583.950848,1106.06895 584.254816,1104.30241 C584.571584,1102.56068 585.050656,1101.13997 585.69664,1100.04398 C586.750848,1097.97729 588.433984,1096.13564 590.763136,1094.51898 C593.034176,1092.88996 595.875808,1092.04829 599.292288,1091.99814 C603.46752,1092.04829 606.880032,1093.32739 609.517408,1095.84415 C612.150816,1098.36476 613.81328,1101.50662 614.513376,1105.24401 L607.538144,1105.24401 C607.000704,1103.43578 606.029792,1101.91081 604.629952,1100.64407 C603.155008,1099.41906 601.375808,1098.79396 599.271616,1098.744 C597.717344,1098.79396 596.384096,1099.10651 595.275744,1099.70233 C594.146464,1100.3233 593.234208,1101.09828 592.5384,1102.01487 C591.684192,1102.97729 591.117248,1104.2149 590.838208,1105.73163 C590.517504,1107.32742 590.367328,1110.34412 590.367328,1114.74811 C590.367328,1119.1608 590.517504,1122.13148 590.838208,1123.69405 C591.117248,1125.24397 591.684192,1126.51484 592.5384,1127.47313 C593.234208,1128.40232 594.146464,1129.14407 595.275744,1129.71489 C596.384096,1130.39404 597.717344,1130.73986 599.271616,1130.73986 C602.967456,1130.73986 605.721536,1128.694 607.550624,1124.6191 L614.513376,1124.6191 Z" id="" fill="#666666"></path>
            <polygon id="" fill="#666666" points="642.178629 1098.37578 630.287091 1098.37578 630.287091 1092.36736 660.62862 1092.36736 660.62862 1098.37578 648.737082 1098.37578 648.737082 1137.10903 642.178629 1137.10903"></polygon>
            <polygon id="" fill="#666666" points="682.073136 1092.36579 688.631583 1092.36579 688.631583 1137.1116 682.073136 1137.1116"></polygon>
            <path d="M712.642336,1114.74732 C712.642336,1109.53492 712.784,1106.05162 713.084032,1104.28904 C713.396512,1102.53078 713.89232,1101.10984 714.54256,1100.01821 C715.584,1097.95981 717.267456,1096.11815 719.596576,1094.51408 C721.87584,1092.889 724.713216,1092.04733 728.117536,1092.00147 C731.5632,1092.04733 734.438272,1092.889 736.733952,1094.51822 C739.013216,1096.13899 740.659008,1097.98064 741.667328,1100.04319 C742.39232,1101.13896 742.909088,1102.5599 743.17568,1104.30578 C743.442272,1106.06818 743.56752,1109.54316 743.56752,1114.74732 C743.56752,1119.86399 743.442272,1123.31399 743.17568,1125.1183 C742.904832,1126.92237 742.39232,1128.36829 741.667328,1129.44736 C740.659008,1131.51405 739.013216,1133.33072 736.733952,1134.90567 C734.438272,1136.54313 731.5632,1137.40154 728.117536,1137.4808 C724.713216,1137.40154 721.87584,1136.54313 719.596576,1134.90567 C717.267456,1133.33072 715.584,1131.51405 714.54256,1129.44736 C714.225792,1128.77231 713.93824,1128.11828 713.675872,1127.51402 C713.438176,1126.8807 713.246656,1126.08071 713.084032,1125.1183 C712.784,1123.31399 712.642336,1119.86399 712.642336,1114.74732 Z M719.196544,1114.74732 C719.196544,1119.15983 719.359168,1122.13069 719.679872,1123.69322 C719.958912,1125.24319 720.513088,1126.52231 721.375808,1127.47235 C722.06736,1128.40155 722.979904,1129.14325 724.117408,1129.71407 C725.221504,1130.39326 726.554752,1130.73908 728.096576,1130.73908 C729.67152,1130.73908 731.030016,1130.39326 732.183936,1129.71407 C733.271584,1129.14325 734.146464,1128.40155 734.804896,1127.47235 C735.659072,1126.51403 736.238176,1125.24319 736.559168,1123.69322 C736.854944,1122.13069 737.000864,1119.15983 737.000864,1114.74732 C737.000864,1110.34314 736.854944,1107.3266 736.559168,1105.73063 C736.238176,1104.21824 735.659072,1102.97652 734.804896,1102.01406 C734.146464,1101.10161 733.271584,1100.32227 732.183936,1099.7015 C731.030016,1099.10571 729.67152,1098.79319 728.096576,1098.74737 C726.554752,1098.79319 725.221504,1099.10571 724.117408,1099.7015 C722.979904,1100.32227 722.06736,1101.10161 721.375808,1102.01406 C720.513088,1102.97652 719.958912,1104.21824 719.679872,1105.73063 C719.359168,1107.3266 719.196544,1110.34314 719.196544,1114.74732 Z" id="Combined-shape-88" fill="#666666"></path>
            <polygon id="" fill="#666666" points="768.281094 1092.36616 774.460476 1092.36616 794.089602 1124.19108 794.21454 1124.19108 794.21454 1092.36616 800.772696 1092.36616 800.772696 1137.11197 794.564439 1137.11197 774.964485 1105.30775 774.839547 1105.30775 774.839547 1137.11197 768.281094 1137.11197"></polygon>
            <path d="M827.582842,1126.28116 C831.041242,1129.21448 835.141096,1130.69361 839.899333,1130.73944 C845.532763,1130.65193 848.391124,1128.56442 848.470456,1124.50207 C848.512102,1121.16864 846.632884,1119.16019 842.812111,1118.47277 C841.070272,1118.23946 839.166139,1117.96038 837.070474,1117.65605 C833.353651,1117.01032 830.516278,1115.59787 828.574426,1113.38953 C826.574527,1111.11027 825.574396,1108.34352 825.574396,1105.08529 C825.574396,1101.18518 826.832917,1098.03534 829.349596,1095.62696 C831.778726,1093.25619 835.232869,1092.04772 839.707834,1091.99776 C845.095315,1092.13524 849.770293,1093.6728 853.757947,1096.63525 L850.095244,1102.1978 C846.853588,1099.9895 843.270217,1098.84355 839.361895,1098.74776 C837.341008,1098.74776 835.657843,1099.2853 834.303622,1100.32287 C832.899505,1101.41022 832.170238,1103.0312 832.141066,1105.1728 C832.141066,1106.46037 832.624384,1107.63109 833.591053,1108.6728 C834.566236,1109.73533 836.111989,1110.48122 838.262071,1110.88955 C839.449444,1111.0894 841.070272,1111.32289 843.128548,1111.60198 C847.203751,1112.16452 850.207741,1113.66866 852.145336,1116.10613 C854.0662,1118.50619 855.028612,1121.29789 855.028612,1124.46447 C854.807908,1133.01856 849.745378,1137.3687 839.824555,1137.48117 C833.412028,1137.48117 827.891062,1135.45622 823.278718,1131.37695 L827.582842,1126.28116 Z" id="" fill="#666666"></path>
            <polygon id="" fill="#666666" points="878.577311 1130.74064 884.773109 1130.74064 884.773109 1137.1116 878.577311 1137.1116"></polygon>
            <path d="M954.800608,1112.50579 L970.213184,1112.50579 L970.213184,1121.6183 C970.129888,1126.08899 968.63824,1129.839 965.75072,1132.86396 C962.842496,1135.86394 959.184064,1137.40568 954.758976,1137.4808 C951.354944,1137.40568 948.509056,1136.54727 946.229792,1134.90567 C943.91312,1133.33072 942.229984,1131.51405 941.183968,1129.44736 C940.875712,1128.77231 940.584192,1128.11828 940.317312,1127.51402 C940.07168,1126.8807 939.888384,1126.08071 939.721504,1125.1183 C939.425728,1123.31399 939.275872,1119.86399 939.275872,1114.74732 C939.275872,1109.54316 939.425728,1106.06818 939.721504,1104.30578 C940.03824,1102.5599 940.529792,1101.13896 941.183968,1100.04319 C942.229984,1097.98064 943.91312,1096.13899 946.229792,1094.52232 C948.509056,1092.889 951.354944,1092.04733 954.758976,1092.00147 C958.9424,1092.04733 962.350656,1093.32664 964.98832,1095.85163 C967.62144,1098.37657 969.279968,1101.51409 969.967264,1105.25991 L963.013344,1105.25991 C962.475584,1103.44738 961.496448,1101.90983 960.096608,1100.64331 C958.625632,1099.41828 956.838208,1098.79319 954.738304,1098.74737 C953.179776,1098.79319 951.863232,1099.10571 950.75488,1099.7015 C949.617376,1100.32227 948.713344,1101.10161 948.021472,1102.01406 C947.154816,1102.97652 946.596704,1104.21824 946.3216,1105.73063 C945.99664,1107.3266 945.842528,1110.34314 945.842528,1114.74732 C945.842528,1119.15983 945.99664,1122.13483 946.3216,1123.69736 C946.596704,1125.24319 947.154816,1126.51403 948.021472,1127.47235 C948.713344,1128.40155 949.617376,1129.14325 950.75488,1129.71407 C951.863232,1130.39326 953.19648,1130.73908 954.746496,1130.73908 C957.309088,1130.73908 959.413248,1129.839 961.088224,1128.03074 C962.750688,1126.3016 963.609152,1124.03491 963.650784,1121.22647 L963.650784,1118.88484 L954.800608,1118.88484 L954.800608,1112.50579 Z" id="" fill="#666666"></path>
            <polygon id="" fill="#666666" points="994.921301 1092.36616 1001.48368 1092.36616 1001.48368 1130.73688 1022.59626 1130.73688 1022.59626 1137.11197 994.921301 1137.11197"></polygon>
            <path d="M1041.91504,1114.74732 C1041.91504,1109.53492 1042.06064,1106.05162 1042.35642,1104.28904 C1042.66496,1102.53078 1043.16502,1101.10984 1043.81494,1100.01821 C1044.86915,1097.95981 1046.5441,1096.11815 1048.86896,1094.51408 C1051.14003,1092.889 1053.98563,1092.04733 1057.38995,1092.00147 C1060.83165,1092.04733 1063.71066,1092.889 1066.01062,1094.51822 C1068.28563,1096.13899 1069.9232,1097.98064 1070.94397,1100.04319 C1071.66502,1101.13896 1072.17754,1102.5599 1072.45232,1104.30578 C1072.71072,1106.06818 1072.8399,1109.54316 1072.8399,1114.74732 C1072.8399,1119.86399 1072.71072,1123.31399 1072.45232,1125.1183 C1072.17754,1126.92237 1071.66502,1128.36829 1070.94397,1129.44736 C1069.9232,1131.51405 1068.28563,1133.33072 1066.01062,1134.90567 C1063.71066,1136.54313 1060.83165,1137.40154 1057.38995,1137.4808 C1053.98563,1137.40154 1051.14003,1136.54313 1048.86896,1134.90567 C1046.5441,1133.33072 1044.86915,1131.51405 1043.81494,1129.44736 C1043.49818,1128.77231 1043.21062,1128.11828 1042.95254,1127.51402 C1042.71907,1126.8807 1042.51907,1126.08071 1042.35642,1125.1183 C1042.06064,1123.31399 1041.91504,1119.86399 1041.91504,1114.74732 Z M1048.47744,1114.74732 C1048.47744,1119.15983 1048.62336,1122.13069 1048.94832,1123.69322 C1049.2231,1125.24319 1049.78579,1126.52231 1050.64819,1127.47235 C1051.33581,1128.40155 1052.25232,1129.14325 1053.3816,1129.71407 C1054.48992,1130.39326 1055.82746,1130.73908 1057.3857,1130.73908 C1058.93994,1130.73908 1060.3024,1130.39326 1061.45664,1129.71407 C1062.54397,1129.14325 1063.41488,1128.40155 1064.07728,1127.47235 C1064.93146,1126.51403 1065.51482,1125.24319 1065.83155,1123.69322 C1066.13158,1122.13069 1066.28573,1119.15983 1066.28573,1114.74732 C1066.28573,1110.34314 1066.13158,1107.3266 1065.83155,1105.73063 C1065.51482,1104.21824 1064.93146,1102.97652 1064.07728,1102.01406 C1063.41488,1101.10161 1062.54397,1100.32227 1061.45664,1099.7015 C1060.3024,1099.10571 1058.93994,1098.79319 1057.3857,1098.74737 C1055.82746,1098.79319 1054.48992,1099.10571 1053.3816,1099.7015 C1052.25232,1100.32227 1051.33581,1101.10161 1050.64819,1102.01406 C1049.78579,1102.97652 1049.2231,1104.21824 1048.94832,1105.73063 C1048.62336,1107.3266 1048.47744,1110.34314 1048.47744,1114.74732 Z" id="Combined-shape-94" fill="#666666"></path>
            <path d="M1097.5544,1092.36657 L1114.34614,1092.36657 C1118.60861,1092.40825 1121.8044,1093.52076 1123.95872,1095.68322 C1126.11275,1097.88326 1127.18792,1100.77487 1127.18792,1104.37069 C1127.22534,1106.21234 1126.80461,1107.97079 1125.91274,1109.64979 C1125.45462,1110.44563 1124.80046,1111.20822 1123.95872,1111.92062 C1123.10451,1112.68735 1122.05457,1113.36654 1120.80034,1113.97903 C1120.80034,1113.97903 1122.05457,1113.36654 1120.80034,1114.10829 C1123.15439,1114.73315 1124.95031,1116.0166 1126.15866,1117.94147 C1127.30042,1119.92062 1127.86704,1122.08331 1127.86704,1124.4041 C1127.82538,1128.28747 1126.65869,1131.33741 1124.35025,1133.59154 C1122.07128,1135.94578 1119.22114,1137.11238 1115.81712,1137.11238 C1115.81712,1137.11238 1119.22114,1137.11238 1097.5544,1137.11238 L1097.5544,1092.36657 Z M1104.10858,1117.25814 L1104.10858,1130.73729 L1114.24614,1130.73729 C1116.68379,1130.6958 1118.47122,1130.004 1119.60446,1128.67493 C1120.73375,1127.35827 1121.30465,1125.79983 1121.30465,1123.99576 C1121.30465,1122.14996 1120.73375,1120.57483 1119.60446,1119.25817 C1118.47122,1117.96645 1116.68379,1117.29986 1114.24614,1117.25814 L1104.10858,1117.25814 Z M1104.10858,1098.37482 L1104.10858,1111.2499 L1113.60868,1111.2499 C1116.00436,1111.2499 1117.75441,1110.60396 1118.89617,1109.304 C1120.04614,1108.11656 1120.62522,1106.61241 1120.62522,1104.79987 C1120.62522,1102.99989 1120.04614,1101.4582 1118.89617,1100.19996 C1117.75441,1099.02903 1116.00436,1098.43738 1113.60868,1098.37482 L1104.10858,1098.37482 Z" id="Combined-shape-95" fill="#666666"></path>
            <path d="M1173.91996,1127.10315 L1157.49085,1127.10315 L1154.15738,1137.1116 L1147.20315,1137.1116 L1162.95312,1092.36579 L1168.45313,1092.36579 L1184.2031,1137.1116 L1177.28657,1137.1116 L1173.91996,1127.10315 Z M1172.045,1121.10314 L1165.77835,1101.52412 L1165.65739,1101.52412 L1159.38648,1121.10314 L1172.045,1121.10314 Z" id="Combined-shape-96" fill="#666666"></path>
            <polygon id="" fill="#666666" points="1205.88293 1092.36616 1212.44108 1092.36616 1212.44108 1130.73688 1233.57037 1130.73688 1233.57037 1137.11197 1205.88293 1137.11197"></polygon>
            <polygon id="" fill="#666666" points="1287.57338 1092.36579 1294.14398 1092.36579 1294.14398 1137.1116 1287.57338 1137.1116"></polygon>
            <polygon id="" fill="#666666" points="1319.61993 1092.36616 1325.79478 1092.36616 1338.2283 1121.54943 1350.41563 1092.36616 1356.61992 1092.36616 1356.61992 1137.11197 1350.06147 1137.11197 1350.06147 1109.22019 1349.91163 1109.22019 1340.84073 1130.70366 1335.36569 1130.70366 1326.29482 1109.22019 1326.17413 1109.22019 1326.17413 1137.11197 1319.61993 1137.11197"></polygon>
            <path d="M1455.16992,1127.10315 L1438.74081,1127.10315 L1435.40734,1137.1116 L1428.45737,1137.1116 L1444.2116,1092.36579 L1449.70735,1092.36579 L1465.46158,1137.1116 L1458.52407,1137.1116 L1455.16992,1127.10315 Z M1453.30317,1121.10314 L1447.03226,1101.52412 L1446.91982,1101.52412 L1440.64496,1121.10314 L1453.30317,1121.10314 Z" id="Combined-shape-101" fill="#666666"></path>
            <path d="M1515.73836,1124.6191 C1514.78812,1128.76483 1512.97576,1131.944 1510.30496,1134.1773 C1507.53415,1136.37732 1504.28395,1137.48159 1500.5173,1137.48159 C1497.10082,1137.4023 1494.26314,1136.54413 1491.98811,1134.90646 C1489.66327,1133.33149 1487.97978,1131.51485 1486.94231,1129.44816 C1486.62161,1128.77329 1486.32581,1128.1191 1486.0717,1127.51482 C1485.83824,1126.88149 1485.64248,1126.08151 1485.4841,1125.11909 C1485.17159,1123.3148 1485.03813,1119.86496 1485.03813,1114.74811 C1485.03813,1109.54394 1485.18833,1106.06895 1485.4841,1104.30241 C1485.79233,1102.56068 1486.27993,1101.13997 1486.94231,1100.04398 C1487.97978,1097.97729 1489.67145,1096.13564 1491.98811,1094.51898 C1494.2756,1092.88996 1497.10903,1092.04829 1500.5173,1091.99814 C1504.70893,1092.04829 1508.10898,1093.32739 1510.7424,1095.84415 C1513.384,1098.36476 1515.04256,1101.50662 1515.73836,1105.24401 L1508.76742,1105.24401 C1508.23819,1103.43578 1507.26727,1101.91081 1505.85919,1100.64407 C1504.38396,1099.41906 1502.60475,1098.79396 1500.50087,1098.744 C1498.95087,1098.79396 1497.62156,1099.10651 1496.50503,1099.70233 C1495.38391,1100.3233 1494.4674,1101.09828 1493.76733,1102.01487 C1492.9174,1102.97729 1492.35078,1104.2149 1492.06747,1105.73163 C1491.75496,1107.32742 1491.60086,1110.34412 1491.60086,1114.74811 C1491.60086,1119.1608 1491.75496,1122.13148 1492.06747,1123.69405 C1492.35078,1125.24397 1492.9174,1126.51484 1493.76733,1127.47313 C1494.4674,1128.40232 1495.38391,1129.14407 1496.50897,1129.71489 C1497.62156,1130.39404 1498.95087,1130.73986 1500.50087,1130.73986 C1504.19247,1130.73986 1506.959,1128.694 1508.78413,1124.6191 L1515.73836,1124.6191 Z" id="" fill="#666666"></path>
            <polygon id="" fill="#666666" points="1543.34615 1098.37578 1531.46283 1098.37578 1531.46283 1092.36736 1561.7919 1092.36736 1561.7919 1098.37578 1549.90036 1098.37578 1549.90036 1137.10903 1543.34615 1137.10903"></polygon>
            <polygon id="" fill="#666666" points="0.365427 897.494832 24.286104 897.494832 47.790225 1007.3491 48.198744 1007.3491 77.252841 897.494832 93.677733 897.494832 122.623758 1007.3491 123.031935 1007.3491 146.64447 897.494832 170.561385 897.494832 133.19874 1052.02391 114.206967 1052.02391 85.669632 940.578132 85.25718 940.578132 56.619468 1052.02391 37.732005 1052.02391"></polygon>
            <path d="M175.884088,974.759524 C175.884088,956.77628 176.396548,944.738576 177.421576,938.647044 C178.51324,932.559462 180.192424,927.638552 182.450704,923.884472 C186.075724,916.776052 191.888176,910.44278 199.89238,904.880232 C207.759208,899.251008 217.57576,896.363558 229.346572,896.22199 C241.24666,896.363558 251.16322,899.263648 259.100788,904.91357 C266.967292,910.496974 272.64658,916.855368 276.1339,923.99286 C278.667364,927.738724 280.409188,932.646994 281.363368,938.726044 C282.250696,944.801144 282.696628,956.813568 282.696628,974.759524 C282.696628,992.425978 282.250696,1004.36367 281.363368,1010.58444 C280.409188,1016.80111 278.663368,1021.78443 276.130012,1025.52619 C272.642368,1032.66368 266.963296,1038.95113 259.096576,1044.39281 C251.16322,1050.047 241.24234,1053.01376 229.34236,1053.2969 C217.57576,1053.01376 207.759208,1050.047 199.89238,1044.39281 C191.888176,1038.95113 186.075724,1032.66368 182.450704,1025.52619 C181.354828,1023.19695 180.36328,1020.96773 179.475628,1018.8469 C178.654828,1016.65954 177.971512,1013.90545 177.421576,1010.58444 C176.396548,1004.36367 175.884088,992.425978 175.884088,974.759524 Z M198.54238,974.759524 C198.54238,989.984404 199.092316,1000.28442 200.192404,1005.6678 C201.150904,1011.04707 203.10484,1015.40534 206.050756,1018.73029 C208.450732,1021.91778 211.604872,1024.50108 215.508964,1026.48446 C219.34642,1028.82191 223.94236,1029.98858 229.292464,1029.98858 C234.704884,1029.98858 239.400832,1028.82191 243.379984,1026.48446 C247.1467,1024.50108 250.167352,1021.91778 252.429844,1018.73029 C255.37576,1015.40107 257.396656,1011.04707 258.496528,1005.6678 C259.521556,1000.28442 260.038336,989.984404 260.038336,974.759524 C260.038336,959.538594 259.521556,949.163682 258.496528,943.642846 C257.396656,938.401196 255.37576,934.117816 252.429844,930.788598 C250.167352,927.601106 247.1467,924.947022 243.379984,922.821922 C239.400832,920.771872 234.704884,919.672034 229.292464,919.530308 C223.94236,919.672034 219.34642,920.771872 215.508964,922.821922 C211.604872,924.947022 208.450732,927.601106 206.050756,930.788598 C203.10484,934.117816 201.150904,938.39693 200.192404,943.63858 C199.092316,949.163682 198.54238,959.538594 198.54238,974.759524 Z" id="Combined-shape-106" fill="#666666"></path>
            <polygon id="" fill="#666666" points="418.806264 897.494832 441.468568 897.494832 441.468568 1029.98657 514.427021 1029.98657 514.427021 1052.02391 418.806264 1052.02391"></polygon>
            <path d="M526.066875,897.496548 L578.437811,897.496548 C598.700401,897.638196 613.904459,906.329892 624.033507,923.567424 C627.65856,929.363136 629.946006,935.438244 630.908685,941.796492 C631.654368,948.154896 632.03379,959.146656 632.03379,974.759136 C632.03379,991.363152 631.450426,1002.95068 630.287657,1009.52171 C629.737784,1012.84654 628.916987,1015.81319 627.825373,1018.42556 C626.658752,1020.96727 625.254591,1023.62161 623.617063,1026.37564 C619.233594,1033.65491 613.137804,1039.65904 605.337932,1044.39239 C597.600334,1049.47986 588.121204,1052.02578 576.896262,1052.02578 C576.896262,1052.02578 588.121204,1052.02578 526.066875,1052.02578 L526.066875,897.496548 Z M548.729475,1029.98813 L575.867029,1029.98813 C588.608803,1029.98813 597.858739,1025.49236 603.617051,1016.50084 C606.15049,1013.17148 607.762766,1008.95902 608.446175,1003.85891 C609.058643,998.833992 609.37547,989.417364 609.37547,975.609024 C609.37547,962.159016 609.058643,952.529916 608.446175,946.721568 C607.625378,940.913064 605.67113,936.204828 602.591991,932.596392 C596.283806,923.604864 587.3752,919.250748 575.867029,919.529832 C575.867029,919.529832 587.3752,919.250748 548.729475,919.529832 L548.729475,1029.98813 Z" id="Combined-shape-109" fill="#666666"></path>
            <polygon id="" fill="#333333" points="687.914784 897.494832 710.577384 897.494832 710.577384 1052.02391 687.914784 1052.02391"></polygon>
            <path d="M807.120714,1017.45946 L750.354006,1017.45946 L738.858171,1052.02204 L714.837468,1052.02204 L769.24167,897.492804 L788.233308,897.492804 L842.637381,1052.02204 L818.716524,1052.02204 L807.120714,1017.45946 Z M800.654073,996.709428 L778.995618,929.105268 L778.583076,929.105268 L756.924879,996.709428 L800.654073,996.709428 Z" id="Combined-shape-111" fill="#333333"></path>
            <path d="M887.9202,897.496548 L940.291136,897.496548 C960.553512,897.638196 975.757891,906.329892 985.886939,923.567424 C989.511885,929.363136 991.799331,935.438244 992.762117,941.796492 C993.5078,948.154896 993.887115,959.146656 993.887115,974.759136 C993.887115,991.363152 993.30771,1002.95068 992.141089,1009.52171 C991.591109,1012.84654 990.770419,1015.81319 989.674525,1018.42556 C988.512077,1020.96727 987.107702,1023.62161 985.470388,1026.37564 C981.087026,1033.65491 974.991236,1039.65904 967.191257,1044.39239 C959.453659,1049.47986 949.974529,1052.02578 938.749373,1052.02578 C938.749373,1052.02578 949.974529,1052.02578 887.9202,1052.02578 L887.9202,897.496548 Z M910.5828,1029.98813 L937.720354,1029.98813 C950.461807,1029.98813 959.712064,1025.49236 965.470483,1016.50084 C968.003494,1013.17148 969.616198,1008.95902 970.2995,1003.85891 C970.912075,998.833992 971.228795,989.417364 971.228795,975.609024 C971.228795,962.159016 970.912075,952.529916 970.2995,946.721568 C969.47881,940.913064 967.524455,936.204828 964.445423,932.596392 C958.137131,923.604864 949.228632,919.250748 937.720354,919.529832 C937.720354,919.529832 949.228632,919.250748 910.5828,919.529832 L910.5828,1029.98813 Z" id="Combined-shape-112" fill="#666666"></path>
            <path d="M1083.96424,1017.45946 L1027.1974,1017.45946 L1015.70156,1052.02204 L991.680862,1052.02204 L1046.08481,897.492804 L1065.07644,897.492804 L1119.48077,1052.02204 L1095.55992,1052.02204 L1083.96424,1017.45946 Z M1077.4976,996.709428 L1055.83901,929.105268 L1055.42647,929.105268 L1033.76827,996.709428 L1077.4976,996.709428 Z" id="Combined-shape-113" fill="#666666"></path>
            <polygon id="" fill="#666666" points="1136.14418 988.453596 1091.09834 897.495456 1115.12312 897.495456 1146.85238 966.057924 1178.58579 897.495456 1202.6108 897.495456 1157.53584 988.432692 1157.53584 1052.02453 1136.14418 1052.02453"></polygon>
            <path d="M1238.60613,1031.25377 L1297.16861,955.641003 C1299.4354,952.595203 1300.97721,949.76622 1301.80223,947.145262 C1302.3479,944.666075 1302.62299,942.332898 1302.62299,940.136939 C1302.62299,934.332806 1300.87299,929.266259 1297.37289,924.949544 C1293.73116,920.632829 1288.58537,918.399347 1281.92717,918.257733 C1276.02292,918.257733 1271.11873,920.20783 1267.20225,924.099389 C1263.15622,927.995344 1260.75198,933.482808 1259.99778,940.562095 L1238.60613,940.562095 C1239.1564,927.724519 1243.33554,917.103469 1251.14796,908.711976 C1259.02294,900.528665 1268.72301,896.366124 1280.23128,896.22451 C1293.11041,896.366124 1303.5605,900.612032 1311.58138,908.953599 C1319.73119,917.228598 1323.87727,927.728601 1324.01464,940.457847 C1324.01464,950.641024 1320.99791,959.695371 1314.97299,967.616021 L1266.79369,1029.98694 L1324.01464,1029.98694 L1324.01464,1052.02456 L1238.60613,1052.02456 L1238.60613,1031.25377 Z" id="" fill="#333333"></path>
            <path d="M1335.28879,940.563584 C1335.42622,926.313564 1339.84705,915.342676 1348.54706,907.651078 C1356.69685,900.03453 1366.42612,896.22199 1377.73039,896.22199 C1389.37634,896.22199 1399.27614,900.038638 1407.42628,907.667826 C1415.71375,915.372064 1419.99294,926.359384 1420.27201,940.634368 C1420.27201,940.634368 1419.99294,926.359384 1420.27201,1008.78024 C1419.99294,1022.98444 1415.71375,1033.93858 1407.42628,1041.63871 C1399.27614,1049.2679 1389.37634,1053.15122 1377.73039,1053.2969 C1366.42612,1053.15122 1356.69685,1049.27612 1348.54706,1041.6553 C1339.84705,1033.96355 1335.42622,1023.03026 1335.28879,1008.85103 L1335.28879,940.563584 Z M1398.88037,941.942766 C1398.46783,926.4387 1391.41789,918.542808 1377.73039,918.259514 C1363.97211,918.542808 1356.95124,926.4387 1356.68043,941.942766 C1356.68043,941.942766 1356.95124,926.4387 1356.68043,1007.57612 C1356.95124,1023.22618 1363.97211,1031.11781 1377.73039,1031.25938 C1391.41789,1031.11781 1398.46783,1023.22618 1398.88037,1007.57612 L1398.88037,941.942766 Z" id="Combined-shape-116" fill="#333333"></path>
            <polygon id="" fill="#333333" points="1454.52791 920.859108 1433.23628 936.967356 1433.23628 913.400748 1454.52791 897.496548 1475.91529 897.496548 1475.91529 1052.02157 1454.52791 1052.02157"></polygon>
            <path d="M861.149015,764.04941 L964.63817,719.782736" id="" fill="#EEEEEE"></path>
            <path d="M1389.76308,1098.59396 L1389.76308,1113.45405 L1399.76999,1113.45405 C1402.27938,1113.41198 1404.1665,1112.61272 1405.43139,1111.05624 C1406.63508,1109.54183 1407.23692,1107.85918 1407.23692,1106.00823 C1407.23692,1104.47279 1406.99211,1103.17925 1406.50247,1102.12757 C1405.99243,1101.18107 1405.27839,1100.43439 1404.36032,1099.88752 C1402.97301,1098.98308 1401.36131,1098.5519 1399.52517,1098.59396 L1389.76308,1098.59396 Z M1383,1138 L1383,1092 L1399.15795,1092 C1400.91248,1092 1402.60578,1092.16827 1404.23791,1092.5048 C1405.87003,1092.9465 1407.52253,1093.85093 1409.19546,1095.21811 C1410.60317,1096.24875 1411.74564,1097.72107 1412.6229,1099.63512 C1413.54097,1101.48606 1414,1103.67351 1414,1106.19753 C1414,1109.60496 1412.83713,1112.70735 1410.51135,1115.5048 C1408.12437,1118.44949 1404.63576,1119.96388 1400.04541,1120.04801 L1389.76308,1120.04801 L1389.76308,1138 L1383,1138 Z" id="P" fill="#666666"></path>
            <path d="M323.318753,918.078189 L323.318753,965.37037 L358.06477,965.37037 C366.664625,965.227708 373.11442,962.659833 377.414348,957.666667 C381.644922,953.030155 383.760177,947.323765 383.760177,940.547325 C383.62147,932.415597 381.090099,926.530882 376.165988,922.893004 C372.282182,919.683112 366.664619,918.078189 359.31313,918.078189 L323.318753,918.078189 Z M300.328125,1053 L300.328125,897 L359.52119,897 C372.143558,897 382.442424,900.423834 390.418097,907.271605 C400.058258,915.046678 405.086323,926.138474 405.502446,940.547325 C405.225031,961.732616 395.446309,976.141251 376.165988,983.773663 L411.328125,1053 L383.968237,1053 L352.65521,986.341564 L323.318753,986.341564 L323.318753,1053 L300.328125,1053 Z" id="R" fill="#666666"></path>
            <path d="M1488.00421,953.32996 L1488.00421,938.953441 C1488.14726,924.505326 1492.76057,913.383305 1501.84429,905.587045 C1510.3558,897.86231 1520.51225,894 1532.31392,894 C1544.47323,894 1554.80848,897.86231 1563.32,905.587045 C1571.97456,913.383305 1576.44483,924.505326 1576.73093,938.953441 L1576.73093,1007.93927 C1576.44483,1022.31586 1571.97456,1033.40212 1563.32,1041.19838 C1554.80848,1048.92312 1544.47323,1052.85695 1532.31392,1053 C1521.94275,1052.85695 1512.71612,1049.70988 1504.63376,1043.5587 C1496.47988,1037.55058 1491.22284,1028.86038 1488.86251,1017.48785 L1511.92931,1017.48785 C1515.43405,1026.21394 1522.22885,1030.57692 1532.31392,1030.57692 C1546.54746,1030.43387 1553.8787,1022.45892 1554.30785,1006.65182 L1554.30785,991.953441 C1543.65058,995.315132 1533.70871,996.924427 1524.48194,996.781377 C1514.32534,996.924427 1505.67091,993.419739 1498.51838,986.267206 C1491.36585,979.32925 1487.86116,968.350278 1488.00421,953.32996 Z M1510.42728,940.348178 L1510.42728,953.115385 C1510.71339,968.922481 1518.00886,976.897435 1532.31392,977.040486 C1546.54746,976.897435 1553.8787,968.922481 1554.30785,953.115385 L1554.30785,940.348178 C1553.8787,924.684132 1546.54746,916.709178 1532.31392,916.423077 C1518.00886,916.709178 1510.71339,924.684132 1510.42728,940.348178 Z" id="9" fill="#333333"></path>
            <polygon id="" fill="#666666" points="1577.78144 1130.74064 1583.96477 1130.74064 1583.96477 1137.1116 1577.78144 1137.1116"></polygon>
        </g>
    </g>
</svg>