<svg viewBox="0 0 2010 1791" xmlns="http://www.w3.org/2000/svg">
  <g fill="none" fill-rule="evenodd">
    <path fill="#ACAFB2" d="M307.3 1471.5h6v35.4H333v5.8h-25.6zM350.7 1492.1c0-4.8.1-8 .4-9.6.3-1.7.7-3 1.3-4a14 14 0 0 1 12.6-7.4 13.7 13.7 0 0 1 12.5 7.4c.6 1 1.1 2.4 1.4 4 .2 1.6.3 4.8.3 9.6 0 4.7-.1 8-.3 9.6-.3 1.6-.8 3-1.4 4-1 1.9-2.5 3.6-4.6 5a14 14 0 0 1-8 2.4c-3 0-5.7-.9-7.8-2.4a13.6 13.6 0 0 1-6-9 73 73 0 0 1-.4-9.6zm6 0c0 4 .2 6.8.5 8.3a7 7 0 0 0 1.5 3.5 7 7 0 0 0 2.6 2 7 7 0 0 0 3.6 1c1.5 0 2.7-.4 3.8-1 1-.5 1.8-1.2 2.4-2 .8-1 1.4-2.1 1.6-3.5.3-1.5.5-4.2.5-8.3 0-4-.2-6.8-.5-8.3a7.4 7.4 0 0 0-1.6-3.4 7.5 7.5 0 0 0-2.4-2.2c-1-.5-2.3-.8-3.8-.9-1.4 0-2.6.4-3.6 1-1 .5-2 1.2-2.6 2-.7 1-1.3 2-1.5 3.5-.3 1.5-.5 4.2-.5 8.3zM429 1501.2c-.9 3.8-2.6 6.8-5 8.8a14 14 0 0 1-9 3c-3.2 0-5.8-.8-8-2.3a13.8 13.8 0 0 1-6-9c-.2-1.7-.3-4.9-.3-9.6 0-4.8.1-8 .4-9.6.3-1.6.7-3 1.3-4a14 14 0 0 1 12.5-7.4c4 0 7 1.2 9.5 3.6 2.4 2.3 4 5.2 4.6 8.6h-6.4c-.5-1.6-1.4-3-2.7-4.2a7.8 7.8 0 0 0-5-1.8c-1.4 0-2.6.4-3.6 1a8 8 0 0 0-2.6 2c-.8 1-1.3 2-1.5 3.5-.3 1.5-.5 4.2-.5 8.3 0 4 .2 6.8.5 8.3.2 1.4.7 2.6 1.5 3.5.7.8 1.5 1.5 2.6 2a7 7 0 0 0 3.6 1c3.4 0 6-2 7.7-5.7h6.4zM468.7 1503.5h-15.1l-3 9.2H444l14.5-41.2h5.1l14.5 41.2h-6.4l-3-9.2zm-1.7-5.5l-5.8-18-5.9 18H467zM498.2 1471.5h6v35.4h19.6v5.8h-25.6zM600.6 1501.2c-.9 3.8-2.6 6.8-5 8.8a14 14 0 0 1-9 3c-3.2 0-5.8-.8-8-2.3a13.7 13.7 0 0 1-6-9c-.2-1.7-.3-4.9-.3-9.6 0-4.8.1-8 .4-9.6.3-1.6.7-3 1.3-4a14 14 0 0 1 12.6-7.4c3.8 0 7 1.2 9.4 3.6 2.4 2.3 4 5.2 4.6 8.6h-6.4c-.5-1.6-1.4-3-2.7-4.2a7.8 7.8 0 0 0-5-1.8c-1.4 0-2.6.4-3.7 1-1 .5-1.8 1.2-2.5 2a7 7 0 0 0-1.5 3.5 51 51 0 0 0-.5 8.3c0 4 .2 6.8.5 8.3a7 7 0 0 0 1.5 3.5 7 7 0 0 0 2.5 2 7 7 0 0 0 3.7 1c3.4 0 6-2 7.7-5.7h6.4zM619.1 1492.1c0-4.8.2-8 .4-9.6a14 14 0 0 1 13.9-11.3 13.7 13.7 0 0 1 12.5 7.3c.7 1 1.2 2.4 1.4 4 .3 1.6.4 4.8.4 9.6 0 4.7-.1 8-.4 9.6-.2 1.6-.7 3-1.4 4a14 14 0 0 1-12.5 7.4c-3.1 0-5.7-.9-7.8-2.4a13.6 13.6 0 0 1-6-9c-.3-1.7-.5-4.9-.5-9.6zm6.1 0c0 4 .1 6.8.4 8.3a7 7 0 0 0 1.6 3.5 7 7 0 0 0 2.5 2 7 7 0 0 0 3.7 1c1.4 0 2.7-.4 3.8-1 1-.5 1.8-1.2 2.4-2 .8-1 1.3-2.1 1.6-3.5.3-1.5.4-4.2.4-8.3 0-4-.1-6.8-.4-8.3a7.4 7.4 0 0 0-1.6-3.4 7.6 7.6 0 0 0-2.4-2.2c-1.1-.5-2.4-.8-3.8-.9-1.4 0-2.6.4-3.7 1-1 .5-1.9 1.2-2.5 2a7 7 0 0 0-1.6 3.5c-.3 1.5-.4 4.2-.4 8.3zM670.5 1471.5h5.7l18.1 29.3h.1v-29.3h6v41.2h-5.7l-18-29.3h-.2v29.3h-6zM724.8 1471.5h5.7l18.1 29.3h.1v-29.3h6v41.2H749l-18-29.3h-.2v29.3h-6zM779 1471.5h25.5v5.8h-19.4v11.9h16.6v5.5H785v12.2h19.4v5.8H779zM852.9 1501.2c-1 3.8-2.6 6.8-5 8.8a14 14 0 0 1-9.1 3c-3.1 0-5.8-.8-7.9-2.3a13.8 13.8 0 0 1-4.6-5l-.8-1.8-.6-2.2a71 71 0 0 1-.4-9.6c0-4.8.1-8 .4-9.6a14 14 0 0 1 13.9-11.4c3.9 0 7 1.2 9.4 3.6 2.5 2.3 4 5.2 4.7 8.6h-6.5c-.5-1.6-1.4-3-2.7-4.2a7.8 7.8 0 0 0-5-1.8c-1.3 0-2.6.4-3.6 1-1 .5-1.9 1.2-2.5 2-.8 1-1.3 2-1.6 3.5-.3 1.5-.4 4.2-.4 8.3 0 4 .1 6.8.4 8.3a7 7 0 0 0 1.6 3.5 7 7 0 0 0 2.5 2 7 7 0 0 0 3.7 1c3.4 0 6-2 7.6-5.7h6.5zM878.4 1477h-11v-5.5h28v5.5h-11v35.7h-6zM915.2 1471.5h6v41.2h-6zM943.4 1492.1c0-4.8.1-8 .4-9.6a13.9 13.9 0 0 1 6-9c2.1-1.6 4.7-2.3 7.9-2.4a13.7 13.7 0 0 1 12.5 7.4c.7 1 1.1 2.4 1.4 4 .2 1.6.3 4.8.3 9.6 0 4.7 0 8-.3 9.6-.3 1.6-.7 3-1.4 4-1 1.9-2.5 3.6-4.6 5a14 14 0 0 1-8 2.4c-3 0-5.7-.9-7.8-2.4a13.5 13.5 0 0 1-4.6-5l-.8-1.8c-.3-.6-.4-1.3-.6-2.2-.3-1.7-.4-4.9-.4-9.6zm6 0c0 4 .2 6.8.5 8.3a7 7 0 0 0 1.6 3.5 7 7 0 0 0 2.5 2 7 7 0 0 0 3.7 1c1.4 0 2.7-.4 3.7-1 1-.5 1.9-1.2 2.5-2 .7-1 1.3-2.1 1.6-3.5.3-1.5.4-4.2.4-8.3 0-4-.1-6.8-.4-8.3a7.4 7.4 0 0 0-1.6-3.4 7.5 7.5 0 0 0-2.5-2.2c-1-.5-2.3-.8-3.7-.9-1.5 0-2.7.4-3.7 1-1 .5-1.9 1.2-2.5 2a7 7 0 0 0-1.6 3.5 51 51 0 0 0-.4 8.3zM994.8 1471.5h5.7l18 29.3h.2v-29.3h6v41.2h-5.7l-18-29.3h-.2v29.3h-6zM1049.5 1502.7c3.2 2.8 7 4.1 11.3 4.2 5.2-.1 7.9-2 8-5.8 0-3-1.7-5-5.3-5.6l-5.3-.7a13 13 0 0 1-7.8-4 11.2 11.2 0 0 1-2.8-7.6c0-3.6 1.2-6.5 3.5-8.7 2.3-2.2 5.4-3.3 9.6-3.4 5 .1 9.3 1.6 13 4.3l-3.5 5.1a18 18 0 0 0-9.9-3.2c-1.8 0-3.4.5-4.6 1.5-1.3 1-2 2.5-2 4.5 0 1.2.4 2.2 1.3 3.2 1 1 2.3 1.7 4.3 2l4.5.7c3.8.5 6.6 2 8.3 4.2a12 12 0 0 1 2.7 7.7c-.2 7.9-4.9 11.9-14 12-6 0-11-1.9-15.3-5.7l4-4.7zM1096.5 1506.9h5.8v5.8h-5.8zM1166.9 1490h14.2v8.4c0 4.2-1.5 7.6-4.1 10.4a14 14 0 0 1-10.2 4.3c-3.1 0-5.7-.9-7.8-2.4a13.7 13.7 0 0 1-6-9c-.3-1.7-.5-4.9-.5-9.6 0-4.8.2-8 .5-9.6.2-1.6.7-3 1.3-4a14 14 0 0 1 12.5-7.4c3.9 0 7 1.2 9.5 3.6 2.4 2.3 4 5.2 4.6 8.7h-6.5a9.2 9.2 0 0 0-2.6-4.3 7.8 7.8 0 0 0-5-1.8c-1.4 0-2.6.4-3.7 1-1 .5-1.8 1.2-2.5 2-.8 1-1.3 2-1.6 3.5-.3 1.5-.4 4.2-.4 8.3 0 4 .1 6.8.4 8.3a7 7 0 0 0 1.6 3.4 7 7 0 0 0 2.5 2.1 7 7 0 0 0 3.7 1c2.4 0 4.3-.9 5.9-2.5a9 9 0 0 0 2.3-6.3v-2.2h-8.1v-5.9zM1203.9 1471.5h6v35.4h19.5v5.8H1204zM1247.3 1492.1c0-4.8 0-8 .4-9.6.3-1.7.7-3 1.3-4a14 14 0 0 1 12.5-7.4 13.7 13.7 0 0 1 12.5 7.4c.7 1 1.2 2.4 1.4 4 .3 1.6.4 4.8.4 9.6 0 4.7-.1 8-.4 9.6-.2 1.6-.7 3-1.4 4a14 14 0 0 1-12.5 7.4c-3.1 0-5.7-.9-7.8-2.4a13.6 13.6 0 0 1-6-9c-.3-1.7-.4-4.9-.4-9.6zm6 0c0 4 .2 6.8.5 8.3a7 7 0 0 0 1.5 3.5 7 7 0 0 0 2.5 2 7 7 0 0 0 3.7 1c1.5 0 2.7-.4 3.8-1 1-.5 1.8-1.2 2.4-2 .8-1 1.3-2.1 1.6-3.5.3-1.5.5-4.2.5-8.3 0-4-.2-6.8-.5-8.3a7.5 7.5 0 0 0-1.6-3.4 7.6 7.6 0 0 0-2.4-2.2c-1-.5-2.3-.8-3.8-.9-1.4 0-2.6.4-3.7 1-1 .5-1.8 1.2-2.5 2-.8 1-1.3 2-1.5 3.5-.3 1.5-.5 4.2-.5 8.3zM1298.6 1471.5h15.5c4 0 6.9 1 8.9 3s3 4.7 3 8c0 1.7-.4 3.4-1.2 4.9-.4.7-1 1.4-1.8 2.1a13 13 0 0 1-3 1.9s1.2-.6 0 .1a8 8 0 0 1 5 3.5c1 1.9 1.6 3.9 1.6 6 0 3.6-1.1 6.4-3.3 8.5a10.5 10.5 0 0 1-7.8 3.2h-16.9v-41.2zm6 23v12.4h9.4c2.3 0 4-.7 5-2 1-1.2 1.5-2.6 1.5-4.3 0-1.7-.5-3.1-1.5-4.3-1-1.2-2.7-1.8-5-1.9h-9.3zm0-17.5v11.9h8.8c2.2 0 3.8-.6 4.9-1.8 1-1.1 1.6-2.5 1.6-4.2a6 6 0 0 0-1.6-4.2c-1-1.1-2.7-1.6-4.9-1.7h-8.7zM1369 1503.5h-15l-3.2 9.2h-6.4l14.6-41.2h5l14.6 41.2h-6.4l-3.1-9.2zm-1.7-5.5l-5.7-18h-.1l-5.8 18h11.6zM1398.6 1471.5h6v35.4h19.5v5.8h-25.5zM1474 1471.5h6v41.2h-6zM1503.5 1471.5h5.7l11.5 26.9 11.2-27h5.8v41.3h-6V1487h-.2l-8.4 19.8h-5l-8.4-19.8h-.1v25.7h-6zM1628.6 1503.5h-15.1l-3.1 9.2h-6.4l14.5-41.2h5l14.6 41.2h-6.4l-3-9.2zm-1.7-5.5l-5.8-18h-.1l-5.8 18h11.7zM1684.5 1501.2c-.9 3.8-2.5 6.8-5 8.8a14 14 0 0 1-9 3c-3.2 0-5.8-.8-8-2.3a13.5 13.5 0 0 1-6-9 69 69 0 0 1-.3-9.6c0-4.8.1-8 .4-9.6.3-1.6.7-3 1.3-4a13.9 13.9 0 0 1 12.6-7.4c3.8 0 7 1.2 9.4 3.6 2.4 2.3 4 5.2 4.6 8.6h-6.4a9 9 0 0 0-2.7-4.2 7.8 7.8 0 0 0-5-1.8c-1.4 0-2.6.4-3.6 1-1 .5-2 1.2-2.6 2a7 7 0 0 0-1.5 3.5c-.3 1.5-.5 4.2-.5 8.3 0 4 .2 6.8.5 8.3a7 7 0 0 0 1.5 3.5 7 7 0 0 0 2.6 2 7 7 0 0 0 3.6 1c3.5 0 6-2 7.7-5.7h6.4zM1710 1477h-11v-5.5h28v5.5h-11v35.7h-6zM1741.8 1506.9h5.7v5.8h-5.7zM262.7 1135.5H305l41.4 193.6h.7l51.2-193.6h29l51 193.6h.7l41.6-193.6h42.1l-65.8 272.3h-33.5L413 1211.4h-.7L362 1407.8h-33.3z"/>
    <path fill="#FFF" d="M581 1135.5h39.9v272.3h-40zM791 1346.9H691l-20.3 60.9h-42.3l95.8-272.3h33.5l95.9 272.3h-42.2l-20.4-60.9zm-11.4-36.6l-38.2-119h-.7l-38.2 119h77z"/>
    <path d="M865.4 1135.5h92.2a88.1 88.1 0 0 1 80.4 46 83.6 83.6 0 0 1 12 32c1.4 11.3 2 30.7 2 58.2 0 29.2-1 49.6-3 61.2a69.9 69.9 0 0 1-11.8 29.7 93.2 93.2 0 0 1-32.2 31.7 89.2 89.2 0 0 1-50 13.5h-89.6v-272.3zm39.9 233.5H953c22.4 0 38.7-8 48.9-23.8a46.2 46.2 0 0 0 8.5-22.3c1-8.8 1.6-25.4 1.6-49.7a549 549 0 0 0-1.6-51 47.7 47.7 0 0 0-10.3-24.8 52.4 52.4 0 0 0-47.1-23s20.3-.5-47.8 0V1369z" fill="#ACAFB2"/>
    <g>
      <path d="M985.7 278l196.5 53.6 98.4 77 83.1 138.8 4 147.3-20.6 113-72.3 115L1185 984l-101.2 43.3 63-73.3-63 73.3-93 5.6-118.2-20.5-101.2-56.6-90.4-103.8-32.9-64-25.8-125.4 10-118 50.4-95.6 78.5-82.1 78.9-52L985.7 278zM749.9 737.4l20.2 99.2-20.2-99.2z" fill="#FFF"/>
      <path fill="#FFF" d="M908 436.4l-29.3 237.2 199-66z"/>
      <path fill="#D2D2D2" d="M1041.2 869L878.7 673.7l199-66z"/>
      <path fill="#F5F5F5" d="M1076.6 423.6l1 184 142.1-39.6z"/>
      <path fill="#EFEFEF" d="M1196.7 793.6l-119-186 142-39.6z"/>
      <path fill="#E1E1E1" d="M760.1 548l-10.2 189.5 128.8-63.9z"/>
      <path fill="#C5C5C5" d="M885.9 884.3l-136-146.8 128.8-63.9z"/>
      <path fill="#F3F3F3" d="M878.7 673.6L760.1 548l147.8-111.6z"/>
      <path fill="#F0F0F0" d="M1077.6 607.5L908 436.4l168.7-12.8z"/>
      <path fill="#B6B6B6" d="M885.9 884.3l-7.2-210.7 162.5 195.5z"/>
      <path fill="#E6E6E6" d="M1077.6 607.5l-36.4 261.6 155.5-75.5z"/>
      <path fill="#FFF" d="M908 436.4L950 318.6l126.5 105z"/>
      <path fill="#D9D9D9" d="M908 436.4l-101.4-42.5L950 318.6z"/>
      <path fill="#FAFAFA" d="M760.1 548l46.5-154 101.3 42.4z"/>
      <path fill="#F0F0F0" d="M806.6 394l33.6-79.1 109.9 3.7z"/>
      <path fill="#EFEFEF" d="M750 737.5L681 612l79-63.9zM885.9 884.3l-136-146.8 30 147.7z"/>
      <path fill="#D5D5D5" d="M681 612l12.2-122.4L760 548z"/>
      <path fill="#E5E5E5" d="M806.6 394l-113.4 95.6L760 548zM806.6 394l-45.3-27.2 78.9-52z"/>
      <path fill="#C7C7C7" d="M693.2 489.6l68-122.8 45.4 27.1z"/>
      <path fill="#B3B3B3" d="M693.2 489.6l-10.4-40.7 78.5-82.1z"/>
      <path fill="#EFEFEF" d="M681 612l-48.6-67.5 60.8-54.9z"/>
      <path fill="#CCC" d="M632.4 544.5l50.4-95.6 10.4 40.7z"/>
      <path fill="#DCDCDC" d="M681 612l-4 162.3 73-36.8z"/>
      <path fill="#C8C8C8" d="M681 612l-58.6 50.5L677 774.3z"/>
      <path fill="#A6A6A6" d="M632.4 544.5l-10 118 58.5-50.6z"/>
      <path fill="#CCC" d="M885.9 884.3L1002.5 994l38.7-125z"/>
      <path fill="#E5E5E5" d="M1041.2 869l105.7 84.9-144.4 40z"/>
      <path fill="#EFEFEF" d="M1196.7 793.6l-155.5 75.5 105.7 84.8z"/>
      <path fill="#E6E6E6" d="M1002.5 994l81.4 33.2 63-73.3z"/>
      <path fill="#C7C7C7" d="M1147 953.9l49.7-160.3 71.7 91z"/>
      <path fill="#EFEFEF" d="M1196.7 793.6l115-56.6-43.3 147.6zM1311.6 737l56-42.3L1219.7 568z"/>
      <path fill="#CECECE" d="M1311.6 737l35.5 70.7-78.7 77z"/>
      <path fill="#C2C2C2" d="M1367.6 694.7l-20.5 113-35.5-70.7z"/>
      <path fill="#EFEFEF" d="M1268.4 884.6L1147 954l38.2 30z"/>
      <path fill="#C8C8C8" d="M1185 984l89.8-61.2-6.4-38.2z"/>
      <path fill="#AEAEAE" d="M1347.1 807.7l-78.7 77 6.4 38z"/>
      <path fill="#E4E4E4" d="M780 885.2l105.4 96.6.5-97.5z"/>
      <path fill="#BBB" d="M885.4 981.8l117 12.2L886 884.3z"/>
      <path fill="silver" d="M1002.5 994l-11.6 38.8 93-5.6z"/>
      <path fill="#999" d="M885.4 981.8l105.5 51 11.6-38.8z"/>
      <path fill="#BBB" d="M885.4 981.8l-12.7 30.5 118.2 20.5z"/>
      <path fill="#C7C7C7" d="M885.4 981.8l-113.9-26.1 8.5-70.5z"/>
      <path fill="#DCDCDC" d="M771.5 955.7l101.2 56.6 12.7-30.5z"/>
      <path fill="#BDBDBD" d="M677 774.3l4.1 77.6 98.9 33.3z"/>
      <path fill="#AEAEAE" d="M681.1 852l90.4 103.7 8.5-70.5z"/>
      <path fill="#CCC" d="M677 774.3l-28.8 13.6 33 64z"/>
      <path fill="#E6E6E6" d="M648.2 787.9l28.8-13.6-54.6-111.8zM1076.6 423.6l131.1-13.8 12 158.2z"/>
      <path fill="#F3F3F3" d="M1219.7 568l91.6-13.3-103.6-145z"/>
      <path fill="#FFF" d="M1367.6 694.7L1219.7 568l91.6-13.3z"/>
      <path fill="#E1E1E1" d="M1311.3 554.7l56.3 140-3.9-147.3z"/>
      <path fill="#CACACA" d="M1207.7 409.8l103.6 144.9 52.4-7.3z"/>
      <path fill="#A9A9A9" d="M1207.7 409.8l72.9-1.2 83.1 138.8z"/>
      <path fill="#F8F8F8" d="M1076.6 423.6l-126.5-105 118.3-5z"/>
      <path fill="#D4D4D4" d="M1076.6 423.6l-8.2-110 139.3 96.2z"/>
      <path fill="#FFF" d="M1068.4 313.6l113.8 18 25.5 78.2z"/>
      <path fill="#C7C7C7" d="M1207.7 409.8l-25.5-78.2 98.4 77z"/>
      <path fill="#E9E9E9" d="M950.1 318.5l35.6-40.6 82.7 35.7z"/>
      <path fill="#C7C7C7" d="M840.2 314.9l145.5-37-35.6 40.6z"/>
      <path fill="#C2C2C2" d="M985.7 278l82.7 35.6 113.8 18z"/>
      <path fill="#FCFCFC" d="M1196.7 793.6l115-56.6-92-169z"/>
      <path fill="#FFF" d="M780 885.2l-103-111 73-36.7zM1147 953.9l38 30-101.1 43.3z"/>
      <path d="M1084.4 1027l100.7-43.3" fill="#EEE"/>
    </g>
    <path d="M1568.3 1477v13.3h9.2c2.3 0 4-.8 5.3-2.2a7 7 0 0 0 1.6-4.5 8 8 0 0 0-.7-3.5 5.2 5.2 0 0 0-2-2 7.9 7.9 0 0 0-4.4-1.2h-9zm-6.3 35.3V1471h15c1.6 0 3.1.2 4.7.5 1.5.3 3 1.2 4.5 2.4a10 10 0 0 1 3.2 4c.9 1.6 1.3 3.6 1.3 5.8 0 3.1-1 5.9-3.2 8.4-2.2 2.6-5.5 4-9.7 4h-9.5v16.2h-6.3z" fill="#ACAFB2"/>
    <g fill="#FFF">
      <path d="M1140.5 1371.2l103.1-133.2c4-5.4 6.7-10.4 8.2-15 1-4.4 1.4-8.5 1.4-12.3 0-10.3-3-19.2-9.2-26.8a34.7 34.7 0 0 0-27.2-11.8c-10.4 0-19 3.4-26 10.3a45.3 45.3 0 0 0-12.7 29h-37.6c1-22.6 8.3-41.3 22-56.1a69.6 69.6 0 0 1 51.3-22c22.7.2 41 7.7 55.2 22.4a77 77 0 0 1 22 55.5c0 18-5.4 34-16 47.9l-84.9 109.9H1291v38.8h-150.4v-36.6zM1311.8 1211.4c.3-25 8-44.4 23.4-58a72.7 72.7 0 0 1 51.4-20.1c20.5 0 38 6.7 52.3 20.2 14.6 13.5 22.2 32.9 22.7 58 0 0-.5-25.1 0 120.1-.5 25-8 44.3-22.7 57.9a75.2 75.2 0 0 1-52.3 20.5c-20-.2-37-7-51.4-20.5-15.3-13.5-23.1-32.8-23.4-57.8v-120.3zm112 2.4c-.6-27.3-13-41.2-37.2-41.7-24.2.5-36.6 14.4-37 41.7 0 0 .4-27.3 0 115.7.4 27.6 12.8 41.5 37 41.7 24.1-.2 36.6-14.1 37.3-41.7v-115.7zM1522 1176.7l-37.6 28.4v-41.5l37.5-28h37.7v272.2H1522zM1580 1236.9v-24.7c.3-24.8 8.4-44 24.5-57.3 15-13.3 33-19.9 54-19.9 21.4 0 39.7 6.6 54.8 19.9 15.3 13.4 23.2 32.5 23.7 57.3v118.4c-.5 24.7-8.4 43.8-23.7 57.1a81.6 81.6 0 0 1-54.9 20.3 82.2 82.2 0 0 1-49-16.2 70.8 70.8 0 0 1-27.9-44.8h40.8c6.2 15 18.3 22.5 36.1 22.5 25.2-.2 38.2-14 39-41v-25.3a172 172 0 0 1-52.8 8.3c-18 .2-33.3-5.8-46-18-12.6-12-18.8-30.8-18.6-56.6zm39.7-22.3v21.9c.5 27.1 13.4 40.8 38.7 41 25.2-.2 38.2-13.9 39-41v-22c-.8-26.8-13.8-40.5-39-41-25.3.5-38.2 14.2-38.7 41z"/>
    </g>
  </g>
</svg>
