<svg id="Layer_3" data-name="Layer 3" xmlns="http://www.w3.org/2000/svg" viewBox="0 0 87.5 42.52"><defs><style>.cls-1,.cls-3{fill:#00a260;}.cls-2{fill:#70c4a0;}.cls-3{font-size:3px;font-family:MyriadPro-Regular, Myriad Pro;}</style></defs><title>Artboard 1</title><path class="cls-1" d="M54,19.67a6.75,6.75,0,1,1,13.46,0,7,7,0,0,1-6.73,7.27,8.14,8.14,0,0,1-5.56-1.71v3.91c1.58,1.19,3.29,1.45,5.56,1.45a10.76,10.76,0,0,0,10.6-10.92,10.61,10.61,0,1,0-21.21,0v17a1.94,1.94,0,0,0,3.88,0Z"/><path class="cls-1" d="M36.62,19.67A10.76,10.76,0,0,1,26,30.58a10.76,10.76,0,0,1-10.6-10.92A10.76,10.76,0,0,1,26,8.75,10.76,10.76,0,0,1,36.62,19.67ZM26,12.4a7,7,0,0,0-6.73,7.27A7,7,0,0,0,26,26.94a7,7,0,0,0,6.73-7.27A7,7,0,0,0,26,12.4Z"/><path class="cls-1" d="M54,19.67a10.61,10.61,0,1,1-21.21,0,10.61,10.61,0,1,1,21.21,0M43.35,12.4a7,7,0,0,0-6.73,7.27,7,7,0,0,0,6.73,7.27,7,7,0,0,0,6.73-7.27A7,7,0,0,0,43.35,12.4Z"/><path class="cls-1" d="M26,26.94v3.65H15.41c-6.52,0-10.71-3.65-10.71-9.86v-15a1.87,1.87,0,0,1,2-1.81,1.87,1.87,0,0,1,2,1.81v15c0,3.7,2.13,6.22,6.71,6.22Z"/><polygon class="cls-2" points="76.88 8.97 76.88 19.7 74.8 19.7 74.8 10.89 72.13 10.89 72.8 8.97 76.88 8.97"/><polygon class="cls-2" points="83.13 8.97 83.13 19.7 81.05 19.7 81.05 10.89 78.38 10.89 79.05 8.97 83.13 8.97"/><text class="cls-3" transform="translate(66.58 7.9) scale(1.14 1)">TM</text></svg>